<?xml version="1.0" encoding="utf-8"?>
<!-- Generator: Adobe Illustrator 16.2.0, SVG Export Plug-In . SVG Version: 6.00 Build 0)  -->
<!DOCTYPE svg PUBLIC "-//W3C//DTD SVG 1.1//EN" "http://www.w3.org/Graphics/SVG/1.1/DTD/svg11.dtd">
<svg version="1.1" id="Слой_1" xmlns="http://www.w3.org/2000/svg" xmlns:xlink="http://www.w3.org/1999/xlink" x="0px" y="0px"
	 width="600px" height="400px" viewBox="0 0 600 400" enable-background="new 0 0 600 400" xml:space="preserve">
<rect x="-100" fill="#002395" width="800" height="400"/>
<path fill="#FECB00" d="M112,0h400v400L112,0z"/>
<g id="g">
	<path id="s" fill="#FFFFFF" d="M17.664,26.242L40-42.5l22.336,68.742L3.86-16.243h72.28L17.664,26.242z"/>
	<g>
		<path id="s_1_" fill="#FFFFFF" d="M67.664,76.242L90,7.5l22.336,68.742L53.86,33.757h72.28L67.664,76.242z"/>
	</g>
	<g>
		<path id="s_2_" fill="#FFFFFF" d="M117.664,126.242L140,57.5l22.336,68.742L103.86,83.757h72.28L117.664,126.242z"/>
	</g>
</g>
<g>
	<g id="g_1_">
		<path id="s_3_" fill="#FFFFFF" d="M167.664,176.242L190,107.5l22.336,68.742l-58.476-42.485h72.28L167.664,176.242z"/>
		<g>
			<path id="s_4_" fill="#FFFFFF" d="M217.664,226.242L240,157.5l22.336,68.742l-58.476-42.485h72.28L217.664,226.242z"/>
		</g>
		<g>
			<path id="s_5_" fill="#FFFFFF" d="M267.664,276.242L290,207.5l22.336,68.742l-58.476-42.485h72.281L267.664,276.242z"/>
		</g>
	</g>
	<g>
		<g id="g_2_">
			<path id="s_6_" fill="#FFFFFF" d="M317.664,326.242L340,257.5l22.336,68.742l-58.477-42.485h72.281L317.664,326.242z"/>
			<g>
				<path id="s_7_" fill="#FFFFFF" d="M367.664,376.242L390,307.5l22.336,68.742l-58.477-42.485h72.281L367.664,376.242z"/>
			</g>
			<g>
				<path id="s_8_" fill="#FFFFFF" d="M417.664,426.242L440,357.5l22.336,68.742l-58.477-42.485h72.281L417.664,426.242z"/>
			</g>
		</g>
	</g>
</g>
</svg>
