<?xml version="1.0" encoding="utf-8"?>
<!-- Generator: Adobe Illustrator 16.2.0, SVG Export Plug-In . SVG Version: 6.00 Build 0)  -->
<!DOCTYPE svg PUBLIC "-//W3C//DTD SVG 1.1//EN" "http://www.w3.org/Graphics/SVG/1.1/DTD/svg11.dtd">
<svg version="1.1" id="Слой_1" xmlns="http://www.w3.org/2000/svg" xmlns:xlink="http://www.w3.org/1999/xlink" x="0px" y="0px"
	 width="600px" height="400px" viewBox="0 0 600 400" enable-background="new 0 0 600 400" xml:space="preserve">
<rect y="1" fill="#CC092F" width="600" height="400"/>
<rect y="1" fill="#FFD200" width="400" height="400"/>
<rect y="1" fill="#0046AE" width="200" height="400"/>
<g id="Layer_x0020_1">
	<polygon id="path2778" fill="#B07F55" points="280.175,148.702 274.952,147.509 264.011,141.738 257.095,141.358 256.622,127.96 
		243.364,117.304 229.847,131.894 227.916,136.187 228.537,268.926 237.287,258.342 239.12,258.794 248.157,249.02 255.832,229.657 
		258.098,221.626 268.443,233.854 264.533,241.081 268.086,240.814 268.398,243.845 271.661,242.459 272.544,246.634 
		279.743,239.338 289.755,244.271 270.754,278.123 263.988,283.13 276.19,287.71 288.708,273.123 286.896,282.704 283.176,292.002 
		298.408,300.774 314.956,290.999 306.826,273.932 309.473,272.714 320.197,288.256 331.885,282.462 316.693,264.703 
		306.71,243.346 317.241,239.863 324.422,246.749 325.488,242.269 329.286,244.103 328.804,240.367 332.62,241.198 327.972,233.828 
		339.77,223.941 347.232,247.249 358.223,259.818 360.556,259.529 368.548,269.399 368.477,132.634 353.712,117.115 
		339.393,128.795 339.985,141.38 333.551,141.619 323.971,146.532 318.603,148.295 316.075,148.798 312.787,145.22 308.376,136.4 
		308.086,127.698 310.807,122.024 310.304,116.661 312.738,116.708 311.19,113.084 313.338,112.226 310.117,109.391 
		311.235,108.078 299.079,102.857 289.804,102.238 287.299,103.335 286.087,105.598 288.54,112.538 285.919,115.159 
		288.514,120.236 288.611,131.371 286.539,140.765 282.363,147.867 	"/>
	<path id="rect2244" d="M277.785,92.971c-1.371,0-2.565,0.35-3.263,0.894c1.109,0.322,1.914,1.342,1.914,2.585v3.154h-1.217h-1.935
		c-1.234,0-2.258-0.794-2.588-1.893c-0.542,0.699-0.891,1.893-0.891,3.263c0,1.369,0.349,2.564,0.891,3.262
		c0.323-1.109,1.345-1.914,2.588-1.914h1.935h1.217v1.218v9.829v4.107c0,1.192-0.745,2.181-1.784,2.546
		c1.504,0.203,2.8,2.222,3.153,3.324c0.356-1.099,1.652-3.121,3.153-3.324c-1.048-0.359-1.805-1.346-1.805-2.546v-7.086v-6.85
		v-1.218h1.218h1.936c1.234,0,2.258,0.793,2.588,1.893c0.541-0.699,0.89-1.894,0.89-3.263c0-1.368-0.349-2.564-0.89-3.259
		c-0.323,1.106-1.346,1.913-2.588,1.913h-1.936h-1.218V96.45c0-1.235,0.796-2.255,1.892-2.586
		C280.35,93.321,279.152,92.971,277.785,92.971L277.785,92.971z"/>
	<path id="path2303" fill="#F5D402" d="M277.785,93.625c-0.715,0-1.341,0.133-1.872,0.304c0.708,0.612,1.175,1.505,1.175,2.521
		v3.154c0,0.045-0.013,0.086-0.023,0.131v0.5h-0.5c-0.041,0.008-0.085,0.021-0.129,0.022h-0.284h-0.934h-1.935
		c-1.006,0-1.884-0.462-2.501-1.152c-0.177,0.534-0.325,1.145-0.325,1.869c0,0.711,0.131,1.34,0.303,1.868
		c0.616-0.705,1.505-1.171,2.523-1.171h1.935h0.414h0.803h0.652c-0.004,0.065-0.023,0.127-0.023,0.193v0.326
		c0.01,0.044,0.022,0.086,0.023,0.132v1.218v9.829v4.107c0,0.983-0.508,1.758-1.175,2.372c0.476,0.293,0.888,0.665,1.239,1.088
		c0.313,0.375,0.438,0.743,0.652,1.129c0.217-0.384,0.339-0.754,0.655-1.129c0.343-0.416,0.749-0.774,1.217-1.068
		c-0.674-0.608-1.175-1.403-1.175-2.391v-7.086v-6.85v-0.174v-1.043v-0.632h0.523c0.041-0.009,0.086-0.019,0.129-0.019h1.217h1.936
		c1.005,0,1.884,0.459,2.5,1.152c0.176-0.536,0.326-1.145,0.326-1.871c0-0.711-0.132-1.342-0.304-1.869
		c-0.615,0.706-1.505,1.174-2.523,1.174h-1.936h-1.217c-0.043,0-0.088-0.014-0.129-0.022h-0.5v-0.5
		c-0.009-0.044-0.022-0.085-0.023-0.13V96.45c0-1.003,0.46-1.884,1.152-2.498C279.121,93.775,278.509,93.625,277.785,93.625
		L277.785,93.625L277.785,93.625L277.785,93.625z"/>
	<polygon id="path2516" fill="#D10429" points="266.121,241.303 256.95,255.33 252.499,255.195 247.914,257.354 246.43,262.339 
		247.104,264.635 252.093,270.025 256.138,267.733 259.377,264.229 260.186,261.128 271.783,246.026 271.243,242.248 
		268.682,243.867 267.738,240.762 	"/>
	<polygon id="path2750" fill="#D10429" points="324.786,245.481 337.055,262.071 338.268,265.309 343.665,270.161 345.279,269.758 
		351.217,262.876 349.87,258.163 344.336,254.79 340.157,255.195 330.849,241.303 329.233,240.628 328.563,243.327 325.86,242.519 	
		"/>
	<polygon id="rect2290" points="258.087,266.433 264.968,270.181 263.294,277.838 256.414,274.09 	"/>
	<path id="rect2273" d="M226.058,192.986l-2.478,1.132l28.002,61.335h2.979L226.058,192.986L226.058,192.986L226.058,192.986
		L226.058,192.986z M259.084,265.326l-2.022,2.088l1.261,2.78l2.457-1.129L259.084,265.326L259.084,265.326L259.084,265.326z"/>
	<polygon id="rect2288" fill="#F5D402" points="259.075,268.599 263.344,270.925 262.305,275.672 258.039,273.345 	"/>
	<polygon id="path2754" fill="#0B45BB" points="257.893,192.08 258.031,225.123 260.455,229.03 275.828,237.526 295.519,246.565 
		298.08,249.258 315.075,239.953 335.031,230.514 338.807,224.713 338.807,192.217 	"/>
	<path id="path2355" fill="#D10429" d="M256.954,152.31l1.02,2.978l-0.239,37.942l1.414,1.565l11.677,1.391l12.631-1.85
		c0,0,7.336,1.135,12.395,1.915c0.005,0.026,0.151,0.761,0.151,0.761s1.835-0.281,2.414-0.371c0.568,0.088,2.391,0.371,2.391,0.371
		l0.152-0.761c5.062-0.78,12.398-1.915,12.398-1.915l12.626,1.85l11.679-1.391l1.417-1.565l-0.242-37.942l1.023-2.978l-13.982,0.106
		c0,0-15.98,0.159-27.46,0.284c-11.481-0.125-27.484-0.284-27.484-0.284L256.954,152.31L256.954,152.31L256.954,152.31
		L256.954,152.31z"/>
	<polygon id="path2762" fill="#F5D402" points="313.07,156.639 314.788,162.741 317.458,170.562 317.841,177.999 314.788,183.341 
		309.256,185.627 306.21,186.581 302.58,184.676 298.576,187.155 294.191,184.486 290.568,186.965 288.275,185.437 284.272,184.866 
		279.698,180.098 278.743,171.517 284.272,156.258 277.405,161.787 271.493,169.798 271.493,180.288 275.69,187.342 
		283.321,192.303 285.42,192.877 281.793,199.55 288.088,201.455 291.329,204.702 293.047,211.185 292.663,225.108 290.754,228.348 
		286.561,231.211 286.371,233.88 290.948,236.743 294.952,239.979 300.868,240.173 306.017,236.55 310.397,234.07 309.256,230.257 
		304.683,226.637 303.728,215.569 305.062,204.512 311.735,200.314 315.172,199.17 311.545,192.303 317.077,190.398 
		323.177,185.056 326.039,174.376 324.322,167.893 320.13,162.551 	"/>
	<polygon id="path2756" fill="#F5D402" points="261.006,194.592 267.298,192.113 271.687,188.68 274.736,191.919 280.842,194.399 
		275.883,197.261 271.493,201.078 267.679,198.218 	"/>
	<polygon id="path2758" fill="#F5D402" points="325.088,188.87 322.226,191.919 316.123,194.399 321.843,198.025 325.473,201.265 
		329.473,198.025 335.955,194.782 329.286,192.113 	"/>
	<polygon id="path2760" fill="#F5D402" points="298.386,157.593 296.477,163.315 290.948,160.642 293.428,166.177 288.088,168.273 
		293.428,170.178 291.139,175.714 296.291,173.041 298.386,178.764 300.484,173.041 305.633,175.33 303.344,170.178 
		308.686,168.273 303.537,165.984 305.826,160.453 300.484,163.125 	"/>
	<polygon id="path2764" fill="#F5D402" points="286.941,204.411 289.61,207.081 287.135,209.56 284.559,206.987 	"/>
	<polygon id="path2766" fill="#F5D402" points="309.924,204.125 307.251,206.892 309.641,209.47 312.499,206.987 	"/>
	<polygon id="path2768" fill="#F5D402" points="311.836,211.185 307.061,212.329 305.826,215.092 305.729,222.723 307.728,227.014 
		310.397,228.154 310.024,218.148 	"/>
	<polygon id="path2770" fill="#F5D402" points="285.036,211.278 286.755,219.767 286.755,227.971 289.136,226.253 290.754,222.529 
		291.042,216.047 289.804,212.139 	"/>
	<polygon id="path2772" fill="#F5D402" points="328.804,218.048 323.276,215.379 317.935,216.521 315.172,219.767 314.882,225.008 
		318.795,229.59 319.746,229.872 319.653,224.914 323.843,219.193 	"/>
	<polygon id="path2774" fill="#F5D402" points="276.167,216.236 275.597,213.95 272.641,212.229 270.16,213.19 268.917,215.76 
		269.588,218.048 267.012,217.765 264.916,219.767 264.629,222.436 266.061,224.156 268.063,224.82 269.207,224.725 268.254,227.11 
		269.014,229.488 271.401,230.827 274.069,230.159 275.5,227.487 277.789,229.016 280.552,228.445 282.363,225.676 281.125,223.106 
		279.792,222.052 281.697,221.005 282.46,217.858 279.884,214.901 277.405,215.285 	"/>
	<path id="path2169" d="M284.48,154.439c-0.398,2.792-14.459,8.6-14.459,20.307c0,14.991,14.024,18.525,14.024,18.525l-0.588,1.064
		l-3.414,6.218c0,0,5.798,0.292,8.874,2.915c3.708,3.162,3.346,9.868,3.346,14.739c0,3.843-0.485,7.898-2.455,9.571
		c-2.646,2.241-4.438,2.407-4.438,5.04c0,2.199,1.69,2.637,4.438,4.093c3.518,1.853,3.354,4.346,8.586,4.346
		c5.233,0,5.092-2.493,8.612-4.346c2.745-1.456,4.435-1.894,4.435-4.093c0-2.633-1.787-2.8-4.435-5.04
		c-1.97-1.673-2.454-5.729-2.454-9.571c0-4.871-0.362-11.576,3.342-14.739c3.08-2.623,8.875-2.915,8.875-2.915l-3.412-6.218
		l-0.589-1.064c0,0,14.026-3.535,14.026-18.525c0-11.707-14.064-17.514-14.46-20.307c-1.375,4.834,4.692,11.509,4.692,19.416
		c0,10.23-7.541,10.72-7.541,10.72c-1.766,0-2.479,1.262-3.175,1.262c-1.485-0.155-2.187-2.046-3.653-2.046
		c-1.379,0-2.44,2.133-4.263,2.133c-1.823,0-2.858-2.133-4.24-2.133c-1.466,0-2.166,1.892-3.652,2.046
		c-0.692,0-1.41-1.262-3.173-1.262c0,0-7.544-0.489-7.544-10.72C279.786,165.948,285.855,159.272,284.48,154.439L284.48,154.439z
		 M313.357,194.335c0,0,9.421,4.156,11.892,7.699c5.363-4.058,12.412-7.241,12.412-7.241s-6.757-1.763-12.412-6.851
		C322.012,192.219,313.357,194.335,313.357,194.335L313.357,194.335z M283.458,194.335c0,0-8.656-2.116-11.891-6.393
		c-5.654,5.087-12.417,6.851-12.417,6.851s7.053,3.183,12.417,7.241C274.037,198.493,283.458,194.335,283.458,194.335
		L283.458,194.335z M298.395,155.479l-2.433,6.916l-6.631-3.153l3.153,6.631l-6.915,2.458l6.915,2.456l-3.153,6.609l6.631-3.153
		l2.433,6.916l2.46-6.916l6.631,3.153l-3.152-6.609l6.912-2.456l-6.912-2.458l3.152-6.631l-6.631,3.153L298.395,155.479z
		 M282.438,158.677c0.577,1.242-4.699,8.899-4.699,15.176c0,7.699,4.108,12.243,9.59,12.243c1.044,0,2.187,1.412,3.172,1.412
		c1.607,0,2.676-1.783,3.653-1.783c1.243,0,2.082,1.955,4.24,1.955c2.159,0,3.02-1.955,4.264-1.955c0.977,0,2.048,1.783,3.652,1.783
		c0.985,0,2.128-1.412,3.176-1.412c5.481,0,9.587-4.544,9.587-12.243c0-6.277-5.271-13.935-4.699-15.176
		c0,0,10.284,7.377,10.284,16.066c0,14.003-14.195,17.461-14.195,17.461l3.199,7.195c0,0-4.405,0.66-7.093,2.831
		c-3.582,2.887-3.631,10.695-3.631,15.976c0,6.225,0.234,8.859,2.478,10.549c2.372,1.779,4.153,2.165,4.153,3.979
		c0,1.578-1.846,2.225-4.237,3.281c-2.726,1.203-2.994,3.282-6.938,3.282c-3.939,0-4.188-2.079-6.912-3.282
		c-2.397-1.057-4.24-1.703-4.24-3.281c0-1.813,1.781-2.199,4.153-3.979c2.248-1.689,2.479-4.324,2.479-10.549
		c0-5.28-0.049-13.09-3.631-15.976c-2.688-2.171-7.089-2.831-7.089-2.831l3.194-7.195c0,0-14.196-3.458-14.196-17.461
		C272.152,166.054,282.438,158.677,282.438,158.677L282.438,158.677L282.438,158.677z M298.417,160.132l1.565,4.415l4.221-2.022
		l-2.001,4.239l4.389,1.568l-4.389,1.565l2.001,4.217l-4.221-2.001l-1.588,4.392l-1.565-4.392l-4.217,2.001l2.001-4.217
		l-4.392-1.565l4.392-1.568l-2.001-4.239l4.217,2.022L298.417,160.132z M271.435,190.076c2.859,3.269,7.393,4.52,7.393,4.52
		c0,0-4.72,2.474-7.261,5.392v0.174c-0.026-0.024-0.063-0.04-0.087-0.065c-0.052,0.058-0.104,0.113-0.154,0.175v-0.307
		c-2.688-2.375-8.044-5.043-8.044-5.043S268.415,193.152,271.435,190.076L271.435,190.076L271.435,190.076z M325.377,190.076
		c3.022,3.077,8.154,4.846,8.154,4.846s-5.357,2.668-8.048,5.043c0,0.019,0,0.307,0,0.307c-0.043-0.062-0.1-0.116-0.151-0.174
		c-0.021,0.026-0.058,0.04-0.084,0.064c0,0,0-0.167,0-0.174c-2.545-2.919-7.26-5.392-7.26-5.392S322.518,193.345,325.377,190.076
		L325.377,190.076z M287.002,203.557l-3.372,3.365l3.372,3.372l3.369-3.372L287.002,203.557z M309.81,203.557l-3.371,3.365
		l3.371,3.372l3.372-3.372L309.81,203.557z M287.002,205.164l1.759,1.758l-1.759,1.788l-1.784-1.788L287.002,205.164z
		 M309.81,205.164l1.781,1.758l-1.781,1.788l-1.76-1.788L309.81,205.164z M283.892,210.294c0.67,1.656,2.262,6.785,2.262,12.937
		c0,4.256-0.413,6.502-0.413,6.502s4.752-1.4,5.696-6.222c0.445-2.256,0.938-10.581-1.349-11.997L283.892,210.294L283.892,210.294z
		 M312.917,210.294l-6.193,1.221c-2.29,1.416-1.796,9.74-1.348,11.997c0.944,4.82,5.691,6.222,5.691,6.222s-0.409-2.247-0.409-6.502
		C310.658,217.079,312.247,211.95,312.917,210.294L312.917,210.294L312.917,210.294z M272.346,211.643
		c-0.266,0.013-0.536,0.044-0.804,0.106c-2.136,0.538-3.428,2.714-2.891,4.85c0.083,0.327,0.216,0.628,0.368,0.916
		c-0.311-0.106-0.635-0.171-0.978-0.196c-0.136-0.01-0.279-0.004-0.413,0c-2.023,0.064-3.707,1.657-3.85,3.715
		c-0.15,2.198,1.521,4.094,3.721,4.243c0.328,0.022,0.646,0.011,0.955-0.045c-0.19,0.256-0.354,0.537-0.478,0.848
		c-0.822,2.047,0.174,4.393,2.217,5.218c2.043,0.824,4.373-0.193,5.195-2.239c0.126-0.311,0.197-0.614,0.242-0.932
		c0.186,0.258,0.415,0.501,0.672,0.712c1.69,1.417,4.22,1.19,5.633-0.499s1.187-4.192-0.5-5.609
		c-0.256-0.216-0.541-0.384-0.826-0.522c0.306-0.096,0.603-0.229,0.89-0.409c1.866-1.17,2.433-3.656,1.262-5.524
		c-0.807-1.282-2.221-1.94-3.633-1.85c-0.642,0.045-1.286,0.246-1.869,0.606c-0.286,0.18-0.539,0.379-0.761,0.613
		c0-0.32-0.027-0.651-0.109-0.977C275.921,212.795,274.203,211.559,272.346,211.643L272.346,211.643L272.346,211.643
		L272.346,211.643z M286.066,212.165l3.327,0.698c1.23,1.692,1.021,4.441,1.021,8.261c0,3.852-2.893,5.327-2.893,5.327
		C287.521,217.189,286.569,214.969,286.066,212.165L286.066,212.165L286.066,212.165z M310.741,212.165
		c-0.504,2.804-1.455,5.024-1.455,14.286c0,0-2.894-1.476-2.894-5.327c0-3.819-0.205-6.568,1.022-8.261L310.741,212.165
		L310.741,212.165z M272.583,213.317c1.442-0.063,2.767,0.891,3.133,2.35c0.086,0.347,0.094,0.688,0.064,1.021
		c-0.026,0.277-0.1,0.526-0.197,0.782c-0.48-0.177-1.002-0.266-1.542-0.266c-1.342,0-2.544,0.595-3.372,1.523
		c-0.216-0.192-0.406-0.4-0.564-0.65c-0.179-0.273-0.329-0.574-0.413-0.911c-0.417-1.662,0.6-3.346,2.262-3.766
		C272.159,213.354,272.378,213.326,272.583,213.317L272.583,213.317L272.583,213.317L272.583,213.317z M322.268,214.599
		c-5.103,0-8.841,3.932-8.327,8.761c0.429,4.075,3.741,7.484,7.827,8.458c-0.699-1.141-1.161-2.41-1.303-3.759
		c-0.513-4.829,3.219-8.739,8.328-8.739c0.804,0,1.581,0.097,2.342,0.281C329.336,216.651,325.952,214.599,322.268,214.599
		L322.268,214.599L322.268,214.599L322.268,214.599L322.268,214.599z M278.801,215.705c0.998,0.034,1.955,0.552,2.523,1.462
		c0.911,1.45,0.473,3.369-0.978,4.282c-0.305,0.19-0.629,0.315-0.959,0.387c-0.272,0.066-0.552,0.061-0.826,0.045
		c0.001-0.045,0-0.082,0-0.128c0-1.849-1.109-3.442-2.694-4.153c0.11-0.27,0.244-0.531,0.435-0.759
		c0.203-0.25,0.45-0.477,0.74-0.653C277.585,215.848,278.205,215.69,278.801,215.705L278.801,215.705L278.801,215.705z
		 M322.268,216.402c1.596,0,3.132,0.489,4.457,1.305c-4.981,0.967-8.564,5.364-8.047,10.503c-1.586-1.314-2.748-3.083-2.957-5.046
		C315.32,219.35,318.089,216.402,322.268,216.402L322.268,216.402L322.268,216.402z M268.78,218.273
		c0.363,0.026,0.687,0.124,1,0.258c0.252,0.115,0.483,0.256,0.697,0.417c-0.605,0.771-0.958,1.747-0.958,2.805
		c0,0.827,0.222,1.592,0.609,2.258c-0.263,0.164-0.54,0.3-0.848,0.372c-0.299,0.076-0.612,0.106-0.936,0.091
		c-1.708-0.123-3.006-1.6-2.891-3.306C265.572,219.458,267.073,218.159,268.78,218.273L268.78,218.273z M274.043,218.729
		c1.66,0,3.001,1.364,3.001,3.024s-1.341,3.001-3.001,3.001c-1.66,0-3.001-1.341-3.001-3.001S272.383,218.729,274.043,218.729z
		 M278.542,222.185c0.297,0.035,0.583,0.109,0.869,0.22c0.295,0.116,0.59,0.261,0.849,0.478c1.314,1.104,1.468,3.059,0.368,4.372
		c-1.097,1.313-3.055,1.491-4.369,0.392c-0.278-0.232-0.478-0.51-0.652-0.808c-0.137-0.23-0.226-0.482-0.303-0.735
		C277.051,225.597,278.363,224.052,278.542,222.185L278.542,222.185L278.542,222.185z M270.28,224.276
		c0.812,1.204,2.201,2.001,3.763,2.001c0.328,0,0.646-0.044,0.955-0.114c0.065,0.291,0.106,0.577,0.087,0.872
		c-0.02,0.321-0.068,0.64-0.196,0.956c-0.64,1.593-2.455,2.357-4.045,1.719c-1.589-0.638-2.377-2.452-1.739-4.047
		c0.131-0.319,0.309-0.598,0.523-0.843C269.817,224.602,270.042,224.428,270.28,224.276L270.28,224.276L270.28,224.276
		L270.28,224.276z M293.022,231.666c-2.788,0-4.565,0.591-4.565,1.438s1.778,1.41,4.565,1.41c0.743,0,1.588-0.43,1.588-1.41
		S293.765,231.666,293.022,231.666z M303.784,231.666c-0.739,0-1.585,0.458-1.585,1.438s0.846,1.41,1.585,1.41
		c2.788,0,4.569-0.563,4.569-1.41S306.572,231.666,303.784,231.666L303.784,231.666z"/>
	<path id="path2206" d="M385,182.334l-4.828,3.521l0.546,1.154c0,0-0.886,0.303-1.283,1.085c-0.4,0.786,0.26,1.894,0.26,1.894
		s-4.587-0.402-5.305,0.064c-0.648,0.421,0.272,3.598-0.152,6.283c-0.599,3.742-2.073,3.428-2.13,4.153
		c-0.061,0.706,0.563,1.804,0.563,1.804s-0.862,0.275-1.04,0.629c-0.3,0.583,0.201,1.647-0.157,2.35
		c-1.994,3.921-4.942,9.701-6.889,13.527c-0.271,0.536-1.005,0.734-1.373,1.455c-0.339,0.663-0.062,1.629-0.062,1.629
		s-1.296,0.081-1.742,0.956c-0.476,0.938-0.196,2.197-0.196,2.197s-0.816,0.107-1.215,0.895c-0.432,0.841,0.296,1.28,0.108,1.652
		c-2.619,5.14-5.708,11.194-7.587,14.892c-0.693,1.359-3.122,1.63-4.524,4.396c-1.367,2.678,0.584,4.652,0.584,4.652
		s-2.022,0.184-2.563,1.237c-0.551,1.079-0.113,2.713,1.349,3.455c1.462,0.748,3.058,0.145,3.608-0.933
		c0.541-1.059-0.545-2.803-0.545-2.803s2.748,0.396,4.11-2.282c1.406-2.766,0.22-4.861,0.913-6.222
		c1.885-3.697,4.969-9.752,7.587-14.892c0.189-0.372,0.962-0.052,1.394-0.895c0.399-0.785,0-1.5,0-1.5s1.2-0.523,1.675-1.456
		c0.447-0.881-0.242-1.978-0.242-1.978s0.948-0.336,1.286-1c0.362-0.722,0.096-1.421,0.365-1.956
		c1.953-3.825,4.901-9.606,6.896-13.526c0.358-0.705,1.51-0.942,1.804-1.524c0.185-0.354-0.106-1.213-0.106-1.213
		s1.268-0.13,1.803-0.591c0.548-0.475-0.569-1.494,2.109-4.172c1.918-1.924,5.02-3.054,4.979-3.827
		c-0.047-0.854-3.068-4.327-3.068-4.327s1.278-0.109,1.674-0.89c0.403-0.786,0.136-1.699,0.136-1.699l1.259-0.216L385,182.334
		L385,182.334L385,182.334L385,182.334L385,182.334z M339.621,268.459c-0.618,0.059-1.006,0.427-1.13,0.676
		c-0.191,0.368-0.224,0.877,0,1.325c0,0-1.522-0.48-2.046-0.219c-0.491,0.239,0,7.413,0,7.413s6.075-3.832,5.979-4.367
		c-0.095-0.576-1.365-1.546-1.365-1.546c0.492-0.081,0.871-0.389,1.062-0.765c0.201-0.388,0.229-1.51-1.151-2.213
		C340.451,268.496,339.994,268.422,339.621,268.459L339.621,268.459z"/>
	<path id="rect2205" d="M292.656,101.516c-1.517,0-3.752,0.043-5.064,0.914c-1.2,0.798-1.102,1.832-1.521,2.197
		c-0.989,0.857-2.686,0.827-3.502,0.827c-5.282,0-5.479,5.653-5.479,5.653s1.352-2.042,3.74-2.042c3.971,0,6.979,2.162,6.979,2.979
		c0,0.33-0.409,0.39-0.436,0.39c-2.594,0-6.509-1.493-8.586-1.565v0.826c0.026,0.019,0.045,0.041,0.086,0.064
		c-0.03-0.005-0.059-0.017-0.086-0.022v0.154c4.643,1.615,9.348,3.901,9.348,13.98c0,6.348-0.76,12.823-3.937,17.915
		c-1.123,1.806-2.726,3.348-4.653,4.718c-0.855-0.257-4.89-1.51-7.718-3.085c-4.98-2.776-7.562-5.537-13.479-5.806v-4.501
		c0-2.404,0.869-4.571,0.869-6.87c-2.495-0.668-9.418-9.136-15.806-12.895c-9.4,6.089-16.676,16.081-16.676,20.678
		c0,0,0.281,98.754,0,133.149c0,1.983-1.197,4.786-1.197,4.786c3.432-1.453,9.722-10.058,11.045-13.327v1.562
		c5.184-2.358,8.977-8.569,10.675-11.784c0.031,0.47,0.109,1.634,0.109,1.634c4.629-4.06,10.523-28.05,10.523-28.05l-0.304-5.042
		c0,0-4.077,19.586-8.719,23.613v-84.342l3.675,3.413l5.566-5.195v-3.958l-4.937,4.61v-11.936c0.744-1.127,1.237-1.967,1.61-2.632
		c0.798,1.395,3.379,5.661,6.413,8.286c0.499-2.03,3.785-3.959,3.785-3.959s1.177,3.19,2.978,3.978
		c0.633-1.115,4.415-3.584,4.415-3.584s-3.234,0.491-4.543,1.717c-1.127-0.252-1.414-4.698-1.414-4.698s-4.761,2.32-5.588,3.98
		c-0.908-0.247-2.321-3.817-2.872-5.286c0.83-0.091,2.002-0.193,3.545-0.193c1.355,0,3.093,0.642,4.914,1.499
		c1.998,0.941,4.088,2.134,5.957,2.98c2.392,1.083,6.01,1.302,7.066,1.346c-1.21,0.85-2.538,1.626-3.978,2.349
		c0,0,5.694-0.051,9.697-2.043c1.428-0.918,2.909-1.833,4.173-2.914c-0.549,1.524-1.405,3.33-2.738,4.869
		c5.876-0.498,8.802-3.852,9.632-4.979c0.389,1.01,1.082,2.627,2.172,4.024c1.091-1.397,1.808-3.015,2.198-4.024
		c0.831,1.128,3.756,4.482,9.629,4.979c-1.337-1.54-2.186-3.345-2.735-4.869c1.262,1.08,2.743,1.995,4.174,2.914
		c4.002,1.992,9.694,2.043,9.694,2.043c-1.44-0.723-2.792-1.501-4.001-2.349c1.016-0.038,4.678-0.256,7.093-1.346
		c1.866-0.847,3.957-2.04,5.956-2.98c1.819-0.856,3.554-1.499,4.911-1.499c1.544,0,2.716,0.103,3.547,0.193
		c-0.553,1.468-1.961,5.039-2.872,5.286c-0.829-1.66-5.586-3.98-5.586-3.98s-0.287,4.445-1.416,4.698
		c-1.31-1.226-4.541-1.717-4.541-1.717s3.779,2.47,4.411,3.584c1.801-0.788,2.956-3.978,2.956-3.978s3.305,1.929,3.804,3.959
		c3.036-2.625,5.619-6.89,6.419-8.286c0.382,0.687,0.897,1.562,1.606,2.632v11.936l-4.934-4.61v3.958l5.563,5.195l3.675-3.413
		v84.342c-4.644-4.027-8.715-23.613-8.715-23.613l-0.307,5.042c0,0,5.894,23.99,10.521,28.05c0,0,0.082-1.164,0.108-1.634
		c1.699,3.215,5.493,9.426,10.676,11.784v-1.562c1.324,3.27,7.613,11.875,11.048,13.327c0,0-1.195-2.803-1.195-4.786
		c-0.281-34.397,0-133.149,0-133.149c0-4.597-7.277-14.589-16.68-20.678c-6.383,3.758-13.313,12.226-15.803,12.895
		c0,2.299,0.864,4.466,0.864,6.87v4.479c-5.901,0.275-8.5,3.055-13.48,5.828c-2.842,1.584-6.922,2.842-7.738,3.085
		c-1.924-1.367-3.508-2.912-4.63-4.718c-2.709-4.34-3.85-9.671-3.85-15.089c0-2.288,2.569-4.866,2.569-6.719
		c0-2.797-0.266-4.478-0.266-4.478c0.913,0.123,2.501,1.739,2.501,1.739s-0.05-4.646-1.523-5.457c0,0,0.598-0.611,2.743-0.674
		c-0.603-1.528-3.589-3.391-3.589-3.391c0.152-0.268,0.426-0.498,0.784-0.697c0.746-0.415,1.803-0.689,2.607-0.849
		c-0.859-0.178-1.849-0.449-2.934-0.804c-2.479-0.808-5.405-1.995-8.131-3.304C298.548,101.672,294.75,101.516,292.656,101.516
		L292.656,101.516L292.656,101.516L292.656,101.516z M292.766,102.888c0.464,0.004,0.89,0.022,1.262,0.022
		c4.865,0,8.289,2.218,12.892,4.259c1.209,0.536,2.314,0.971,3.304,1.306c-0.618,0.548-1.1,1.1-1.236,1.566
		c0,0,2.061,0.381,3.001,2.108c0,0-1.961,0.224-2.28,1.371c1.096,0.083,2.185,1.468,2.189,2.805l-2.781-0.869
		c0,0,0.676,3.124,0.676,6.522c0,1.735-2.501,3.776-2.501,6.718c0,9.231,2.325,12.779,3.979,15.634
		c0.646,1.115,1.173,2.401,2.26,3.369c-4.764-2.535-8.303-5.707-8.303-8.653v-11.152h-1.24v11.152c0,2.138,0.523,3.132,0.523,3.132
		c0.744,2.361,2.257,6.009,3.198,7.479c-4.387-2.37-6.613-5.335-6.613-6.436v-15.328h-1.239v15.544l0.239,1.068
		c-0.533,0.797-1.221,1.744-1.697,2.064c-0.472-0.32-1.142-1.269-1.673-2.064l0.241-1.068v-15.544h-1.239v15.328
		c0,1.1-2.23,4.066-6.612,6.436c0.937-1.47,2.45-5.118,3.197-7.479c0,0,0.52-0.995,0.52-3.132v-11.152h-1.239v11.152
		c0,2.943-3.527,6.12-8.284,8.653c1.078-0.968,1.597-2.26,2.239-3.369c1.808-3.123,4.043-7.087,4.043-18.374
		c0-4.236-0.625-7.115-1.717-9.132c-0.332-0.665-0.779-2.437,1.762-2.437c1.315,0,4.328,2.327,4.328,2.327s-0.125-1.855-1.652-2.914
		c-0.254-0.172-0.674-0.727-0.674-1.239c0-0.383,0.658-1.332,1.174-1.565c0.352-0.16-5.176-1.122-5.176-3.63
		c0-0.522,0.328-0.871,1.477-0.871c1.506,0,3.957,1.807,6.132,1.807c1.61,0,2.244-0.394,3.891-0.394
		c2.015,0,6.219,3.815,7.654,3.675c-1.604-1.01-4.204-4.828-8.131-4.828c-1.362,0-2.599,0.306-3.87,0.306
		c-1.633,0-3.238-1.5-5.001-1.5c-1.183,0-2.502,0.065-2.695-0.239c-0.342-0.534-0.035-0.843,0.281-1.284
		c0.599-0.831,2.281-1.072,3.938-1.129C291.807,102.892,292.303,102.883,292.766,102.888L292.766,102.888L292.766,102.888
		L292.766,102.888L292.766,102.888z M243.412,119.628v0.021c0,0,8.733,8.005,11.675,9.023l0.109,2.697v7.936
		c-2.134-0.733-4.811-4.235-6.111-6.086v-1.087c0-1.023,0.603-1.771,1.045-2.175l-1.283-0.458c-0.49,0.56-1.021,1.388-1.021,2.458
		v0.63l-0.414,0.436l-0.219,0.239l-3.195,3.436L240.237,131v-1.391c0-0.938,0.721-1.983,1.327-2.695l-1.262-0.458
		c-0.636,0.825-1.304,1.938-1.304,2.979v1.131c-0.884,0.914-4.328,4.458-4.328,4.458l-2.197-4.717
		C235.111,126.655,239.383,122.566,243.412,119.628L243.412,119.628L243.412,119.628z M353.404,119.628
		c4.021,2.932,8.295,7.034,10.937,10.677c-0.468,1.007-2.192,4.717-2.192,4.717s-3.445-3.543-4.325-4.458v-1.131
		c0-1.041-0.669-2.154-1.305-2.979l-1.265,0.458c0.608,0.712,1.326,1.757,1.326,2.695V131l-3.76,5.698l-3.197-3.436l-0.22-0.239
		l-0.409-0.436v-0.63c0-1.07-0.535-1.898-1.022-2.458l-1.281,0.457c0.439,0.405,1.039,1.151,1.039,2.176v1.087
		c-1.299,1.851-3.978,5.353-6.108,6.086v-7.936l0.112-2.698c2.939-1.018,11.672-9.022,11.672-9.022L353.404,119.628L353.404,119.628
		L353.404,119.628L353.404,119.628z M230.95,132.739l2,3.633v6.544l-3.045,2.827v-9.719
		C229.905,135.093,230.297,133.97,230.95,132.739L230.95,132.739z M365.862,132.739c0.654,1.23,1.046,2.353,1.046,3.285v9.719
		l-3.047-2.827v-6.544L365.862,132.739L365.862,132.739z M238.931,133.565l3.501,5.327v4.043l-3.501,3.285V133.565L238.931,133.565z
		 M357.881,133.565v12.655l-3.501-3.285v-4.043L357.881,133.565L357.881,133.565L357.881,133.565z M237.689,134.523v11.675
		l-3.501-3.263v-4.737L237.689,134.523L237.689,134.523L237.689,134.523z M359.122,134.523l3.501,3.675v4.737l-3.501,3.262V134.523
		L359.122,134.523L359.122,134.523z M248.427,135.371c0.528,0.875,2.946,4.788,5.24,5.912c-0.813,1.151-2.94,3.961-5.24,5.198
		V135.371z M348.381,135.371v11.11c-2.302-1.237-4.429-4.047-5.243-5.198C345.433,140.159,347.854,136.247,348.381,135.371z
		 M247.189,135.936v10.262l-3.501-3.263v-3.63L247.189,135.936L247.189,135.936z M349.62,135.936l3.501,3.37v3.63l-3.501,3.263
		V135.936L349.62,135.936z M232.952,146.872v10.243l-3.046-2.849v-4.544L232.952,146.872L232.952,146.872z M363.86,146.872
		l3.047,2.85v4.543l-3.047,2.85V146.872L363.86,146.872z M234.189,146.895l2.001,1.869l1.5,1.391v3.675l-1.5,1.391l-2.001,1.871
		v-10.197V146.895L234.189,146.895z M242.431,146.895v10.197l-2-1.871l-1.5-1.414v-3.63l1.5-1.414L242.431,146.895L242.431,146.895z
		 M243.69,146.895l3.501,3.282v3.63l-1.522,1.436l-1.979,1.849V146.895L243.69,146.895z M251.931,146.895v10.219l-2.001-1.872
		l-1.5-1.413v-3.414C249.639,149.679,250.852,148.327,251.931,146.895L251.931,146.895L251.931,146.895L251.931,146.895z
		 M344.885,146.895c1.077,1.431,2.293,2.785,3.501,3.521v3.414l-1.5,1.414l-2.001,1.871V146.895L344.885,146.895L344.885,146.895z
		 M353.124,146.895v10.197l-1.979-1.849l-1.522-1.436v-3.63L353.124,146.895L353.124,146.895L353.124,146.895z M354.382,146.895
		l2.001,1.869l1.501,1.413v3.63l-1.501,1.414l-2.001,1.871V146.895L354.382,146.895L354.382,146.895z M362.628,146.895v10.197
		l-2.002-1.871l-1.5-1.391v-3.675l1.5-1.391L362.628,146.895L362.628,146.895z M239.365,158.179l3.697,3.456l3.695-3.434v84.363
		c0,0,0.258,4.181,0.435,6.911c-1.643,1.662-7.828,7.912-7.828,7.912v-99.21V158.179z M357.453,158.179v99.21
		c0,0-6.185-6.251-7.828-7.911c0.177-2.731,0.433-6.913,0.433-6.913v-84.361l3.697,3.433l3.698-3.456l0,0l0,0V158.179z
		 M237.258,158.202v96.035c0,2.714-4.951,9.038-7.35,10.48V158.223l3.652,3.413l3.698-3.433L237.258,158.202z M359.56,158.202
		l3.698,3.433l3.653-3.413v106.494c-2.399-1.442-7.352-7.768-7.352-10.48V158.202L359.56,158.202z M267.719,233.646
		c0,0-3.55,7.213-4.936,8.504c0,0,0.928,0.115,1.979,0.105c-0.647,0.934-5.583,8.041-7.132,10.723
		c-1.447,2.51-2.47,1.391-4.696,1.391c-1.846,0-6.03,2.943-6.718,4.134c-0.722,1.249-1.262,2.769-1.262,4.019
		c0,1.378,1.459,3.266,1.459,3.266c0.156-0.659,0.432-0.894,0.432-0.894s3.828,4.766,4.392,5.394c0.439,0.485,2.4,0.801,3.088,0.176
		c1.727-1.573,3.398-2.67,4.937-4.94c0.79-1.169,0.851-2.508,1.761-3.76c3.041-4.197,9.094-12.229,10.478-14.065
		c0.093,0.512,0.173,0.935,0.26,1.455c1.569-3.168,9.111-9.223,9.111-9.223l-2.085-1.365c0,0-4.549,5.3-6.025,6.283
		c0,0-0.629-2.635-1.001-3.569c0,0-1.742,1.316-2.693,1.35c0,0-0.286-1.787-0.5-2.956c-1.202,0.798-3.198,0.629-3.198,0.629
		c1.753-0.83,3.827-5.911,3.827-5.911L267.719,233.646L267.719,233.646L267.719,233.646z M329.1,233.646l-1.479,0.743
		c0,0,2.07,5.081,3.826,5.911c0,0-1.996,0.17-3.197-0.629c-0.217,1.169-0.5,2.956-0.5,2.956c-0.951-0.033-2.698-1.35-2.698-1.35
		c-0.371,0.934-1,3.569-1,3.569c-1.476-0.983-6.024-6.282-6.024-6.282l-2.085,1.364c0,0,7.545,6.055,9.109,9.223
		c0.092-0.521,0.169-0.943,0.264-1.455c1.381,1.836,7.438,9.868,10.476,14.065c0.912,1.252,0.974,2.591,1.766,3.76
		c1.536,2.271,3.204,3.367,4.934,4.94c0.69,0.626,2.647,0.31,3.085-0.175c0.565-0.628,4.395-5.395,4.395-5.395
		s0.275,0.234,0.433,0.894c0,0,1.461-1.888,1.461-3.266c0-1.25-0.54-2.77-1.264-4.019c-0.688-1.189-4.868-4.134-6.715-4.134
		c-2.23,0-3.252,1.12-4.699-1.39c-1.55-2.682-6.485-9.79-7.132-10.724c1.054,0.01,1.979-0.105,1.979-0.105
		C332.646,240.86,329.099,233.646,329.1,233.646L329.1,233.646L329.1,233.646z M267.216,241.779c0,0-0.03,2.448,0.74,3.305
		l2.698-1.844c0,0,0.177,0.889,0.413,2.108c-1.156,1.574-7.788,10.628-11.068,15.043c-0.815,1.101-1.501,3.895-1.501,3.895
		s-1.196-0.568-1.196-1.591c0-1.003,0.132-2.192,0.132-2.192s-0.892,1.019-2.437,1.019c0-1.229,2.384-2.567,2.478-4.324
		c-1.818,1.346-3.397,0.657-5.499,1.307c-2.292,0.7-2.93,1.668-3.633,1.63c-0.414-0.023-0.787-0.738-0.629-1.174
		c0.274-0.764,3.105-2.862,5.087-3.243c0.474-0.089,4.206,0.816,4.958-0.349c3.098-4.778,8.125-12.534,8.609-13.283
		C266.687,242.011,266.982,241.926,267.216,241.779L267.216,241.779L267.216,241.779L267.216,241.779z M329.599,241.779
		c0.23,0.146,0.529,0.23,0.849,0.306c0.485,0.748,5.507,8.505,8.609,13.281c0.748,1.166,4.482,0.261,4.956,0.35
		c1.981,0.382,4.814,2.48,5.086,3.243c0.157,0.435-0.213,1.15-0.63,1.174c-0.704,0.038-1.34-0.929-3.63-1.63
		c-2.103-0.648-3.684,0.039-5.502-1.306c0.092,1.756,2.479,3.094,2.479,4.324c-1.545,0-2.434-1.019-2.434-1.019
		s0.129,1.188,0.129,2.192c0,1.021-1.196,1.591-1.196,1.591s-0.686-2.794-1.501-3.896c-3.28-4.414-9.91-13.468-11.064-15.043
		c0.233-1.22,0.41-2.108,0.41-2.108l2.696,1.844C329.629,244.226,329.599,241.778,329.599,241.779L329.599,241.779L329.599,241.779
		L329.599,241.779z M288.763,243.566c0,0-14.731,33.865-27.809,39.068c0,0,5.69,2.421,12.678,6.049
		c1.017,0.529,2.069,1.095,3.13,1.674c0.878-1.062,1.805-2.238,2.717-3.457c4.178-5.593,8.265-12.07,8.265-12.07
		c0.282,1.684-1.922,6.881-5.654,13.285c-0.733,1.263-1.5,2.579-2.35,3.917c0.948,0.536,1.886,1.085,2.827,1.652
		c6.922,4.165,13.419,8.951,15.827,13.347c2.409-4.396,8.909-9.183,15.829-13.347c0.944-0.567,1.882-1.116,2.826-1.652
		c-0.85-1.338-1.612-2.653-2.349-3.917c-3.729-6.404-5.937-11.602-5.652-13.285c0,0,4.088,6.478,8.267,12.07
		c0.908,1.218,1.839,2.396,2.713,3.457c1.064-0.579,2.116-1.144,3.131-1.674c6.986-3.628,12.677-6.049,12.677-6.049
		c-13.074-5.201-27.805-39.068-27.805-39.068l-2.175,0.629c0,0,11.749,29.264,23.243,38.115c-2.618,0.786-5.674,1.918-8.829,3.265
		c-3.836-4.492-7.802-10.554-11.027-15.938c-3.479-5.817-6.327-16.027-6.327-16.027c-1.611,3.919,1.825,23.599,8.769,36.052
		c-5.742,2.986-10.845,6.22-13.29,8.868c-2.439-2.648-7.546-5.882-13.284-8.868c6.94-12.45,10.375-32.133,8.764-36.052
		c0,0-2.849,10.21-6.328,16.027c-3.222,5.384-7.187,11.445-11.023,15.938c-3.155-1.347-6.213-2.479-8.829-3.265
		c11.494-8.849,23.244-38.115,23.244-38.115L288.763,243.566L288.763,243.566L288.763,243.566z M250.28,259.83
		c0.102,0.011,0.207,0.061,0.284,0.151c0.15,0.174,0.136,0.425-0.023,0.562l-1.218,1.068c-0.16,0.136-0.414,0.105-0.566-0.068
		c-0.15-0.173-0.137-0.424,0.022-0.563l1.217-1.066C250.075,259.847,250.178,259.817,250.28,259.83L250.28,259.83L250.28,259.83z
		 M346.538,259.83c0.098-0.013,0.199,0.017,0.281,0.084l1.219,1.068c0.159,0.137,0.172,0.388,0.02,0.561
		c-0.153,0.174-0.406,0.205-0.564,0.068l-1.22-1.068c-0.159-0.137-0.173-0.388-0.023-0.562
		C346.329,259.892,346.433,259.842,346.538,259.83L346.538,259.83L346.538,259.83L346.538,259.83z M251.565,260.892
		c0.302-0.025,0.62,0.111,0.847,0.372c0.365,0.416,0.34,1.014-0.042,1.349l-2.958,2.583c-0.384,0.335-1.003,0.272-1.369-0.15
		c-0.365-0.416-0.341-1.037,0.042-1.371l2.958-2.563C251.186,260.987,251.384,260.907,251.565,260.892L251.565,260.892z
		 M345.017,260.892c0.073-0.013,0.163-0.006,0.235,0c0.183,0.016,0.379,0.096,0.523,0.22l2.955,2.563
		c0.388,0.333,0.412,0.955,0.046,1.371c-0.365,0.423-0.984,0.485-1.372,0.15l-2.955-2.583c-0.381-0.335-0.405-0.933-0.042-1.35
		C344.576,261.064,344.786,260.932,345.017,260.892L345.017,260.892L345.017,260.892z M253.241,262.893
		c0.303-0.025,0.643,0.109,0.87,0.371c0.363,0.416,0.341,1.015-0.045,1.349l-2.978,2.584c-0.384,0.335-0.983,0.271-1.349-0.151
		c-0.363-0.416-0.338-1.036,0.045-1.371l2.956-2.562C252.886,262.987,253.059,262.908,253.241,262.893L253.241,262.893
		L253.241,262.893z M343.343,262.893c0.075-0.014,0.164-0.006,0.237,0c0.181,0.016,0.354,0.095,0.499,0.22l2.962,2.562
		c0.38,0.334,0.405,0.955,0.037,1.371c-0.357,0.422-0.961,0.486-1.345,0.151l-2.98-2.584c-0.381-0.334-0.405-0.933-0.039-1.349
		C342.885,263.066,343.106,262.933,343.343,262.893L343.343,262.893L343.343,262.893z M255.132,264.849
		c0.303-0.021,0.62,0.088,0.847,0.347c0.365,0.424,0.341,1.038-0.042,1.373l-2.958,2.567c-0.384,0.335-0.983,0.266-1.346-0.157
		c-0.366-0.417-0.364-1.01,0.02-1.344l2.982-2.59C254.776,264.921,254.951,264.863,255.132,264.849L255.132,264.849z
		 M341.449,264.849c0.08-0.013,0.164-0.007,0.242,0c0.183,0.015,0.357,0.072,0.5,0.196l2.979,2.59
		c0.387,0.334,0.388,0.927,0.022,1.344c-0.365,0.423-0.963,0.492-1.349,0.157l-2.955-2.567c-0.388-0.334-0.412-0.949-0.046-1.373
		C341.015,264.999,341.227,264.882,341.449,264.849L341.449,264.849z"/>
	<path id="path2220" fill="#F5D402" d="M384.102,184.098l-2.827,2l1.439,0.74l1.432,0.716L384.102,184.098L384.102,184.098
		L384.102,184.098L384.102,184.098z M381.365,187.424c-0.514,0.034-0.965,0.309-1.197,0.759c-0.371,0.727-0.011,1.651,0.803,2.066
		c0.815,0.415,1.766,0.161,2.131-0.565c0.37-0.723,0.01-1.65-0.804-2.065C381.993,187.463,381.672,187.403,381.365,187.424
		L381.365,187.424L381.365,187.424z M376.037,190.749c-0.423,0.005-0.737,0.021-0.803,0.067c-0.303,0.194,0.106,2.778,0.021,4.979
		c-0.085,2.073-0.748,2.657-1.112,3.369c-0.336,0.657-1.54,1.436-1.54,1.436l1,0.997c0,0,0.651-1.01,1.675-3.021
		c1.204-2.368,1.168-6.664,1.518-6.892c0.313-0.197,2.827-0.826,2.827-0.826S377.313,190.735,376.037,190.749L376.037,190.749
		L376.037,190.749L376.037,190.749z M380.431,191.336c0,0-2.651,0.508-3.022,0.872c-0.363,0.351-0.204,3.935-1.613,6.696
		c-1.166,2.29-1.736,3.133-1.736,3.133l0.72,0.371l0.713,0.342c0,0,0.335-0.926,1.501-3.214c1.409-2.761,4.411-4.763,4.479-5.263
		C381.547,193.757,380.431,191.336,380.431,191.336L380.431,191.336L380.431,191.336z M381.274,191.684c0,0,0.963,2.417,0.982,2.785
		c0.019,0.42-3.471,2.914-4.675,5.282c-1.023,2.007-1.461,3.135-1.461,3.135l1.395,0.212c0,0-0.095-1.427,0.241-2.084
		c0.357-0.715,0.457-1.586,2.085-2.873c1.729-1.361,4.066-2.553,4.046-2.912C383.871,194.897,381.275,191.684,381.274,191.684
		L381.274,191.684L381.274,191.684z M373.407,203.075c-0.441,0.049-0.762,0.332-0.938,0.674c-0.263,0.521-0.12,1.215-2.214,5.328
		c-0.924,1.804-1.289,2.532-2.282,4.479c-1.012,1.982-2.479,4.851-2.479,4.851s-0.5,0.919,0.435,1.394
		c0.93,0.474,1.349-0.479,1.349-0.479s1.467-2.867,2.477-4.85c0.995-1.947,1.366-2.698,2.282-4.501
		c2.095-4.113,2.739-4.398,3.001-4.911c0.283-0.56,0.218-1.313-0.719-1.789C373.966,203.093,373.668,203.053,373.407,203.075
		L373.407,203.075L373.407,203.075L373.407,203.075z M364.381,220.232c-0.353,0.032-0.629,0.181-0.757,0.438
		c-0.264,0.504,0.185,1.257,1,1.669c0.814,0.417,1.695,0.336,1.956-0.173c0.256-0.505-0.208-1.258-1.022-1.67
		C365.151,220.288,364.734,220.2,364.381,220.232L364.381,220.232L364.381,220.232L364.381,220.232z M363.167,222.733
		c-0.586-0.029-1.097,0.174-1.309,0.589c-0.337,0.66,0.188,1.606,1.175,2.109c0.984,0.502,2.058,0.378,2.395-0.282
		c0.336-0.661-0.189-1.609-1.176-2.113C363.882,222.847,363.513,222.75,363.167,222.733L363.167,222.733z M361.51,225.841
		c-0.347,0.032-0.63,0.181-0.759,0.439c-0.257,0.51,0.188,1.256,1.001,1.675c0.814,0.411,1.698,0.335,1.956-0.174
		c0.263-0.512-0.187-1.264-1.001-1.675c-0.404-0.211-0.844-0.292-1.195-0.266H361.51L361.51,225.841z M360.797,228.517
		c-0.516,0.068-0.765,0.59-0.765,0.59s-5.287,10.403-7.153,14.066c-0.595,1.17-3.104,1.899-4.086,3.827
		c-0.989,1.938-0.289,3.753,1,4.41c1.29,0.658,3.188,0.18,4.176-1.758c0.982-1.926,0.098-4.401,0.697-5.57
		c1.863-3.657,7.153-14.065,7.153-14.065s0.518-0.912-0.416-1.388C361.173,228.506,360.969,228.493,360.797,228.517L360.797,228.517
		L360.797,228.517z M348.035,252.479c-0.599,0.017-1.129,0.296-1.373,0.779c-0.397,0.778,0.06,1.813,1.023,2.305
		s2.079,0.26,2.479-0.522c0.392-0.775-0.082-1.813-1.046-2.304C348.756,252.551,348.39,252.468,348.035,252.479L348.035,252.479
		L348.035,252.479z M339.615,269.151c-0.3,0.011-0.546,0.111-0.65,0.31c-0.202,0.395,0.218,1.021,0.938,1.388
		c0.715,0.369,1.47,0.332,1.674-0.062c0.198-0.399-0.218-1.025-0.938-1.393C340.277,269.211,339.923,269.147,339.615,269.151
		L339.615,269.151z M337.139,271.112v5.133l4.175-3.001c0,0-0.563-1-1.805-1.631C338.268,270.979,337.138,271.112,337.139,271.112
		L337.139,271.112z"/>
	<path id="path2280" d="M234.756,241.351c0,0,2.36,4.874,4.152,5.543c-0.928-0.256-3.939,0.847-3.939,0.847s5.309,4.746,9.812,5.057
		c3.818,0.26,5.673-1.643,5.673-1.643l-0.766-4.048c0,0-2.336-2.821-6.075-4.122C239.837,241.669,234.756,241.351,234.756,241.351
		L234.756,241.351L234.756,241.351z"/>
	<path id="path2282" d="M252.54,232.625c0,0-3.258,2.789-4.149,6.016c-0.893,3.231,0.582,6.904,0.582,6.904l2.737,5.103
		c0,0,3.792-2.02,5.407-5.039c1.611-3.021,1.02-7.09,1.02-7.09s-3.004,1.117-3.387,1.612
		C255.383,236.78,252.54,232.625,252.54,232.625L252.54,232.625L252.54,232.625L252.54,232.625z"/>
	<path id="path2284" d="M242.074,231.313c0,0-3.706,1.255-7.301,1.036c-3.428-0.208-6.278-3.081-6.278-3.081
		s2.841-1.927,4.243-1.667c-1.542-0.565-3.777-4.432-3.777-4.432s3.178-0.958,5.997,0.106c2.817,1.059,5.273,4.15,5.273,4.15
		L242.074,231.313L242.074,231.313L242.074,231.313z"/>
	<path id="path2286" d="M243.347,213.221c0,0,1.852,3.837,1.413,5.171c0.577-0.884,2.75-2.269,2.75-2.269s1.315,6.21,0.059,10.044
		c-1.257,3.837-5.086,5.296-5.086,5.296l-4.223-8.209c0,0-0.63-3.045,0.688-5.451C240.265,215.39,243.346,213.22,243.347,213.221
		L243.347,213.221L243.347,213.221z"/>
	<path id="path2293" d="M219.242,203.073c0,0,4.004-0.425,7.667,1.094c3.062,1.269,3.999,3.579,3.999,3.579l1.509,4.046
		c0,0-4.356,1.633-7.801,0.386c-3.442-1.254-5.974-5.389-5.974-5.389s2.406-0.908,3.322-0.566
		C220.63,205.629,219.243,203.072,219.242,203.073L219.242,203.073L219.242,203.073L219.242,203.073z"/>
	<path id="path2295" d="M231.836,195.562c0,0,1.757,2.257,1.809,4.853c0.471-1.378,2.663-2.904,2.663-2.904s2.256,5.459,1.761,9.337
		c-0.495,3.872-3.741,6.171-3.741,6.171l-4.048-7.687c0,0-1.318-3.148-0.93-5.593C229.737,197.299,231.836,195.562,231.836,195.562
		L231.836,195.562L231.836,195.562z"/>
	<path id="path2297" d="M217.969,180.867c0,0-0.726,4.186,0.51,6.596c1.104,2.151,1.805,2.622,1.805,2.622
		c-2.102-1.388-5.284-1.505-5.284-1.505s1.131,4.553,3.839,6.631c2.705,2.077,6.878,1.592,6.878,1.592s2.744-3.652,2.552-7.589
		c-0.192-3.937-3.316-8.154-3.316-8.154s-1.232,2.557-1.341,4.465C222.814,183.558,217.969,180.868,217.969,180.867L217.969,180.867
		L217.969,180.867z"/>
	<path id="path2299" fill="#097754" d="M219.2,183.416c0,0-0.106,3.058,0.903,4.792c1.012,1.735,3.273,2.428,3.273,2.428
		s0.108-3.057-0.903-4.792C221.46,184.106,219.2,183.416,219.2,183.416L219.2,183.416z"/>
	<path id="path2301" fill="#097754" d="M217.085,190.332c0,0,2.657,0.159,4.189,1.332c1.535,1.177,2.13,3.627,2.13,3.627
		s-1.762,0.18-3.297-0.997C218.575,193.117,217.085,190.332,217.085,190.332L217.085,190.332z"/>
	<path id="path2304" fill="#097754" d="M225.42,184.161c0,0-0.882,2.024-0.78,4.209c0.103,2.186,1.375,4.645,1.375,4.645
		s1.152-2.621,1.053-4.807C226.966,186.023,225.731,184.778,225.42,184.161L225.42,184.161z"/>
	<path id="path2306" fill="#097754" d="M220.948,203.848c0,0,1.306,1.821,3.312,2.814c2.009,0.993,5,1.031,5,1.031
		s-1.493-1.942-3.502-2.936C223.752,203.766,220.947,203.848,220.948,203.848L220.948,203.848L220.948,203.848z"/>
	<path id="path2308" fill="#097754" d="M221.597,208.076c0,0,0.958,1.88,2.711,2.683c1.754,0.806,5.341,0.743,5.341,0.743
		s-1.377-1.759-3.131-2.563C224.765,208.135,221.597,208.076,221.597,208.076L221.597,208.076z"/>
	<path id="path2310" fill="#097754" d="M231.693,198.063c0,0-1.06,1.751-0.958,3.684c0.105,1.929,1.372,4.036,1.372,4.036
		s0.89-2.415,0.785-4.35C232.792,199.506,231.693,198.063,231.693,198.063L231.693,198.063z"/>
	<path id="path2312" fill="#097754" d="M235.596,200.542c0,0-1.813,2.431-2.073,4.934c-0.261,2.502,1.029,5.07,1.029,5.07
		s2.191-2.195,2.452-4.697C237.265,203.346,235.596,200.542,235.596,200.542L235.596,200.542L235.596,200.542z"/>
	<path id="path2320" fill="#097754" d="M230.595,223.646c0,0,0.218,0.896,0.975,1.85c0.757,0.961,2.056,1.973,2.056,1.973
		s1.253-0.404,2.809-0.067c1.556,0.337,3.626,1.727,3.626,1.727s-2.228-3.326-4.542-4.625
		C233.206,223.212,230.595,223.646,230.595,223.646L230.595,223.646L230.595,223.646z"/>
	<path id="path2322" fill="#097754" d="M230.365,229.358c0,0,2.885-1.229,5.262-0.911c2.375,0.317,4.517,2.191,4.517,2.191
		s-3.21,1.115-5.588,0.799C232.181,231.118,230.365,229.358,230.365,229.358L230.365,229.358L230.365,229.358L230.365,229.358z"/>
	<path id="path2324" fill="#097754" d="M242.563,215.949c0,0-2.55,2.704-2.766,5.05c-0.213,2.341,2.069,4.528,2.069,4.528
		s-0.11-1.505,0.281-2.495c0.393-0.99,1.229-2.043,1.229-2.043s0.356-1.21,0.219-2.178
		C243.402,217.459,242.563,215.949,242.563,215.949L242.563,215.949z"/>
	<path id="path2326" fill="#097754" d="M246.223,219.077c0,0-2.405,2.431-3.041,5.041c-0.636,2.604,0.497,5.38,0.497,5.38
		s2.187-1.721,2.823-4.331C247.138,222.563,246.222,219.077,246.223,219.077L246.223,219.077L246.223,219.077z"/>
	<path id="path2328" fill="#097754" d="M252.242,234.783c0,0,1.089,2.278,1.367,4.177c0.278,1.905,0.021,2.563,0.021,2.563
		s-1.128,1.104-1.633,1.755c-0.649,0.837-0.744,2.37-0.744,2.37s-2.262-3.363-1.914-5.82
		C249.688,237.372,252.242,234.782,252.242,234.783L252.242,234.783L252.242,234.783z"/>
	<path id="path2330" fill="#097754" d="M257.01,240.046c0,0-2.896,1.909-4.044,3.87c-1.151,1.967-0.556,3.977-0.556,3.977
		s2.063-0.182,3.216-2.148C256.774,243.783,257.009,240.045,257.01,240.046L257.01,240.046L257.01,240.046L257.01,240.046z"/>
	<path id="path2333" fill="#097754" d="M237.983,248.121c0,0,4.174-0.111,6.724,0.514c2.55,0.625,3.479,1.995,3.479,1.995
		s-2.867,1.344-5.419,0.718C240.217,250.717,237.983,248.12,237.983,248.121L237.983,248.121L237.983,248.121z"/>
	<path id="path2335" fill="#097754" d="M237.279,243.174c0,0,1.882,2.916,4.317,3.979c3.352,1.457,7.236,0.748,7.236,0.748
		s-2.108-2.583-5.012-3.724C240.917,243.036,237.279,243.174,237.279,243.174L237.279,243.174L237.279,243.174L237.279,243.174z"/>
	<path id="path2350" d="M250.673,250.979l0.113,1.503c2.496,0.024,2.866-0.228,3.507,0.559c0.426,0.524,1.438,0.985,2.457,0.516
		c1.02-0.464,1.476-1.685,1.011-2.704c-0.467-1.02-1.413-1.243-2.325-1.063c-0.559,0.108-0.93,0.561-1.404,0.803
		C253.129,251.06,250.672,250.979,250.673,250.979L250.673,250.979L250.673,250.979z"/>
	<path id="path2348" fill="#F5D402" d="M256.917,251.242L256.917,251.242c0.254,0.557,0.008,1.215-0.545,1.467
		c-0.556,0.255-1.215,0.006-1.469-0.545c-0.001-0.003-0.005-0.012-0.007-0.016l0.007,0.015c-0.254-0.558-0.008-1.217,0.548-1.467
		c0.554-0.257,1.212-0.007,1.465,0.543c0.002,0.004,0.005,0.012,0.008,0.017l-0.007-0.016L256.917,251.242L256.917,251.242
		L256.917,251.242z"/>
	<path id="path2357" d="M250.458,249.832l1.213,0.886c-1.301,2.134-1.708,2.318-1.379,3.277c0.217,0.637,0.07,1.737-0.865,2.358
		c-0.934,0.617-2.214,0.353-2.833-0.579c-0.616-0.932-0.303-1.855,0.333-2.535c0.393-0.414,0.966-0.492,1.425-0.763
		C249.228,251.956,250.457,249.832,250.458,249.832L250.458,249.832L250.458,249.832z"/>
	<path id="path2359" fill="#F5D402" d="M247.373,255.267l0,0.002c0.337,0.51,1.027,0.647,1.536,0.312
		c0.506-0.337,0.648-1.027,0.312-1.535c-0.003-0.003-0.007-0.008-0.009-0.01l0.008,0.008c-0.336-0.505-1.027-0.649-1.535-0.313
		C247.175,254.066,247.036,254.757,247.373,255.267c0.002,0.002,0.007,0.011,0.01,0.014L247.373,255.267L247.373,255.267
		L247.373,255.267L247.373,255.267z"/>
	<path id="path2361" d="M242.005,231.991l0.11,1.502c2.496,0.024,2.869-0.221,3.507,0.563c0.426,0.524,1.44,0.98,2.458,0.517
		c1.02-0.465,1.479-1.69,1.011-2.709c-0.464-1.021-1.412-1.238-2.325-1.063c-0.561,0.115-0.929,0.56-1.404,0.809
		C244.458,232.076,242.005,231.99,242.005,231.991L242.005,231.991L242.005,231.991z"/>
	<path id="path2363" fill="#F5D402" d="M248.248,232.255v0.002c0.254,0.55,0.008,1.208-0.545,1.464
		c-0.554,0.25-1.213,0.008-1.466-0.549c-0.001-0.004-0.005-0.012-0.007-0.017c0.006,0.015,0.006,0.015,0.006,0.015
		c-0.253-0.551-0.008-1.21,0.546-1.466c0.553-0.25,1.213-0.007,1.466,0.549c0.001,0.004,0.005,0.013,0.007,0.018L248.248,232.255
		L248.248,232.255L248.248,232.255L248.248,232.255z"/>
	<path id="path2365" d="M242.512,232.523l1.062,1.072c-1.619,1.896-2.05,2.018-1.875,3.014c0.118,0.664-0.199,1.73-1.22,2.195
		c-1.019,0.463-2.242,0.009-2.707-1.011c-0.467-1.02-0.013-1.876,0.721-2.45c0.452-0.352,1.031-0.337,1.527-0.536
		C240.964,234.436,242.512,232.523,242.512,232.523L242.512,232.523L242.512,232.523L242.512,232.523z"/>
	<path id="path2367" fill="#F5D402" d="M238.617,237.418L238.617,237.418c0.253,0.551,0.913,0.801,1.469,0.544
		c0.553-0.251,0.799-0.909,0.546-1.466c-0.001-0.004-0.006-0.013-0.007-0.017c0.006,0.014,0.006,0.014,0.006,0.014
		c-0.253-0.551-0.911-0.799-1.466-0.548c-0.554,0.256-0.8,0.915-0.548,1.471c0.001,0.005,0.005,0.012,0.008,0.017L238.617,237.418
		L238.617,237.418z"/>
	<path id="path2370" d="M233.604,214.22l0.112,1.503c2.495,0.023,2.867-0.221,3.506,0.563c0.426,0.523,1.44,0.98,2.46,0.517
		c1.017-0.464,1.475-1.69,1.009-2.711c-0.466-1.02-1.412-1.236-2.326-1.058c-0.56,0.11-0.927,0.555-1.404,0.804
		C236.058,214.305,233.604,214.219,233.604,214.22L233.604,214.22L233.604,214.22z"/>
	<path id="path2374" fill="#F5D402" d="M239.85,214.484L239.85,214.484c0.254,0.55,0.008,1.209-0.549,1.465
		c-0.554,0.251-1.212,0.009-1.465-0.549c-0.002-0.003-0.006-0.012-0.007-0.017c0.006,0.015,0.006,0.015,0.006,0.015
		c-0.253-0.551-0.007-1.208,0.546-1.466c0.557-0.25,1.215-0.007,1.468,0.55c0.002,0.003,0.006,0.012,0.008,0.017L239.85,214.484
		L239.85,214.484L239.85,214.484z"/>
	<path id="path2376" d="M234.297,213.903l1.061,1.071c-1.619,1.896-2.05,2.021-1.875,3.019c0.118,0.665-0.199,1.727-1.219,2.189
		c-1.02,0.471-2.243,0.009-2.708-1.007c-0.466-1.017-0.012-1.879,0.721-2.454c0.451-0.352,1.031-0.336,1.528-0.534
		C232.75,215.813,234.297,213.902,234.297,213.903L234.297,213.903L234.297,213.903z"/>
	<path id="path2378" fill="#F5D402" d="M230.402,218.797L230.402,218.797c0.254,0.551,0.913,0.8,1.469,0.548
		c0.554-0.255,0.8-0.912,0.546-1.471c-0.002-0.003-0.006-0.012-0.008-0.016l0.006,0.015c-0.253-0.55-0.912-0.8-1.466-0.543
		c-0.554,0.25-0.801,0.908-0.549,1.465c0.002,0.005,0.006,0.013,0.007,0.017L230.402,218.797L230.402,218.797z"/>
	<path id="path2380" d="M224.656,195.457l0.11,1.502c2.496,0.021,2.869-0.227,3.507,0.561c0.427,0.525,1.441,0.981,2.458,0.518
		c1.021-0.468,1.479-1.691,1.012-2.711c-0.464-1.017-1.413-1.24-2.326-1.06c-0.559,0.112-0.928,0.557-1.403,0.802
		C227.11,195.539,224.656,195.457,224.656,195.457L224.656,195.457L224.656,195.457L224.656,195.457z"/>
	<path id="path2382" fill="#F5D402" d="M230.898,195.722L230.898,195.722c0.255,0.555,0.008,1.213-0.545,1.466
		c-0.553,0.253-1.212,0.008-1.466-0.548c-0.001-0.002-0.005-0.01-0.007-0.014l0.007,0.013c-0.253-0.556-0.007-1.214,0.546-1.468
		c0.553-0.253,1.214-0.008,1.465,0.549c0.001,0.004,0.005,0.009,0.007,0.013L230.898,195.722L230.898,195.722z"/>
	<path id="path2384" d="M225.346,195.14l1.063,1.068c-1.619,1.9-2.05,2.017-1.874,3.016c0.118,0.665-0.2,1.729-1.22,2.193
		c-1.02,0.471-2.242,0.009-2.709-1.007c-0.464-1.021-0.009-1.879,0.724-2.45c0.449-0.351,1.028-0.337,1.524-0.537
		C223.801,197.048,225.346,195.14,225.346,195.14L225.346,195.14L225.346,195.14L225.346,195.14L225.346,195.14z"/>
	<path id="path2386" fill="#F5D402" d="M221.454,200.031l0.001,0.001c0.253,0.554,0.912,0.799,1.468,0.546
		c0.554-0.253,0.799-0.911,0.546-1.465c-0.001-0.004-0.005-0.012-0.007-0.016l0.007,0.013c-0.253-0.557-0.913-0.802-1.466-0.549
		C221.446,198.814,221.2,199.474,221.454,200.031c0.001,0.003,0.005,0.012,0.007,0.013L221.454,200.031L221.454,200.031z"/>
	<path id="path2340" fill="#F5D402" d="M240.42,227.543c-0.894,0.373-2.222-3.525-3.197-5.657c-1-2.191-3.027-5.56-2.451-5.828
		c0.631-0.287,1.465,1.483,2.488,3.727c1.023,2.236,3.999,7.409,3.16,7.757L240.42,227.543L240.42,227.543L240.42,227.543z"/>
	<path id="path2342" fill="#F5D402" d="M231.232,207.036c-0.893,0.366-1.872-2.18-2.845-4.312c-1-2.191-1.974-3.739-1.396-4.003
		c0.631-0.287,1.566,1.631,2.384,3.421C230.168,203.883,232.071,206.686,231.232,207.036L231.232,207.036z"/>
	<path id="path2337" fill="#F5D402" d="M252.488,253.537c-0.701,0.182-3.765-6.23-6.243-11.656c-2.48-5.433-4.323-9.82-3.747-10.087
		c0.631-0.286,2.638,4.84,5.116,10.272C250.093,247.492,253.016,253.39,252.488,253.537L252.488,253.537L252.488,253.537z"/>
	<path id="path2193" d="M296.376,110.249c0,1.309-1.406,2.377-3.134,2.377c-1.724,0-3.13-1.069-3.13-2.378
		c0-1.309,1.406-2.376,3.13-2.376C294.97,107.872,296.376,108.939,296.376,110.249L296.376,110.249L296.376,110.249z"/>
	<path id="path2192" fill="#CC092F" d="M278.225,108.875c0,0,1.029-1.947,3.627-1.947c1.085,0,4.666-0.075,4.666-0.075
		c0.48,1.24,2.655,3.313,2.655,5.469c0,0-2.208-3.982-8.377-3.982C279.247,108.341,278.225,108.875,278.225,108.875L278.225,108.875
		L278.225,108.875z"/>
	<path id="path2194" d="M286.173,109.419c0,0-1.517-0.485-1.517-0.995c0-0.647,0.736-0.647,1.177-0.143
		C286.135,108.63,286.172,109.419,286.173,109.419L286.173,109.419L286.173,109.419z"/>
	<path id="path2196" fill="#D10429" d="M288.253,113.086c0,0-1.317,1.383-1.6,2.124c-1.301-0.495-3.567-2.829-3.567-2.829
		S285.008,113.501,288.253,113.086L288.253,113.086L288.253,113.086z"/>
	<path id="path2191" fill="#F5D402" d="M295.415,110.249c0,1.198-0.976,2.174-2.175,2.174c-1.197,0-2.172-0.976-2.172-2.175
		c0-1.196,0.976-2.176,2.172-2.176C294.438,108.072,295.415,109.052,295.415,110.249L295.415,110.249L295.415,110.249
		L295.415,110.249z"/>
	<path id="path2189" d="M294.236,110.249c0,0.55-0.445,0.996-0.996,0.996c-0.548,0-0.997-0.446-0.997-0.996
		c0-0.548,0.449-0.997,0.997-0.997C293.792,109.252,294.236,109.7,294.236,110.249z"/>
	<path id="rect2189" fill="#F5D402" d="M253.323,151.241c0,0,3.698,2.774,3.698,5.589v58.271v8.829c0,1.766,0.545,2.916,1.413,4.046
		c0.866,1.208,2.713,2.883,4.63,4.131c5.922,3.84,15.819,7.896,23.308,11.307c6.242,2.834,8.778,3.983,12.023,7.996
		c3.245-4.012,5.808-5.162,12.045-7.996c7.489-3.41,17.386-7.467,23.312-11.307c1.914-1.248,3.763-2.923,4.63-4.131
		c0.869-1.13,1.388-2.28,1.388-4.046v-8.829V156.83c0-2.814,3.698-5.589,3.698-5.589h-3.935h-2.304h-38.836h-38.83h-2.304H253.323
		L253.323,151.241L253.323,151.241L253.323,151.241z M258.063,153.374h1.5h38.834h38.836h1.502c0,0-1.091,1.307-1.091,3.456v58.271
		v8.829c0,1.463-1.521,4.892-10.285,9.261c-14.489,7.222-25.623,10.589-28.96,14.701c-3.336-4.112-14.471-7.479-28.961-14.701
		c-8.764-4.369-10.284-7.798-10.284-9.261v-8.829V156.83c0-2.148-1.087-3.456-1.087-3.456h0H258.063z"/>
</g>
</svg>
