<?xml version="1.0" encoding="utf-8"?>
<!-- Generator: Adobe Illustrator 16.2.0, SVG Export Plug-In . SVG Version: 6.00 Build 0)  -->
<!DOCTYPE svg PUBLIC "-//W3C//DTD SVG 1.1//EN" "http://www.w3.org/Graphics/SVG/1.1/DTD/svg11.dtd">
<svg version="1.1" id="Слой_1" xmlns="http://www.w3.org/2000/svg" xmlns:xlink="http://www.w3.org/1999/xlink" x="0px" y="0px"
	 width="600px" height="400px" viewBox="0 0 600 400" enable-background="new 0 0 600 400" xml:space="preserve">
<g>
	<rect fill="#EE1C25" width="600" height="400"/>
	<rect fill="#0B4EA2" width="600" height="266.666"/>
	<rect fill="#FFFFFF" width="600" height="133.333"/>
	<g transform="translate(2.2238 1) scale(.12937)">
		<path fill="#005DA4" d="M1442.884,1079.005l33.837-499.4c-263.858-125.035-569.908-125.035-833.769,0l33.837,499.4
			c15.195,224.397,167.741,415.943,383.046,480.967C1275.139,1494.948,1427.684,1303.402,1442.884,1079.005"/>
		<path fill="#FFFFFF" d="M747.171,1146.67c36.241,163.125,154.652,295.701,312.663,350.074
			c158.015-54.373,276.422-186.949,312.663-350.074l-156.332-208.447l-62.529,83.374L1059.833,834l-93.795,187.598l-62.536-83.374
			L747.171,1146.67"/>
		<g id="wave" transform="scale(5) translate(0 5.1962)">
			<path fill="#005DA4" d="M152.227,234.559c5.757,9.969,18.504,13.387,28.474,7.63l0,0c6.45-3.723,14.396-3.723,20.845,0
				c6.448,3.724,14.394,3.724,20.844,0c6.449-3.723,14.395-3.723,20.844,0c9.97,5.757,22.718,2.34,28.474-7.63l0,0v6.018
				c-5.756,9.969-18.503,13.387-28.474,7.63l0,0c-6.449-3.724-14.395-3.724-20.844,0c-6.45,3.723-14.396,3.723-20.844,0
				c-6.449-3.724-14.395-3.724-20.845,0c-9.969,5.757-22.718,2.339-28.474-7.63l0,0V234.559L152.227,234.559z"/>
		</g>
		<g transform="translate(0 17.321)">
			<g id="wave_1_" transform="scale(5) translate(0 5.1962)">
				<path fill="#005DA4" d="M152.227,245.536c5.757,9.97,18.504,13.388,28.474,7.63l0,0c6.45-3.723,14.396-3.723,20.845,0
					c6.448,3.723,14.394,3.723,20.844,0c6.449-3.723,14.395-3.723,20.844,0c9.97,5.757,22.718,2.342,28.474-7.63l0,0v6.018
					c-5.756,9.969-18.503,13.385-28.474,7.629l0,0c-6.449-3.721-14.395-3.721-20.844,0c-6.45,3.724-14.396,3.724-20.844,0
					c-6.449-3.721-14.395-3.721-20.845,0c-9.969,5.757-22.718,2.342-28.474-7.629l0,0V245.536L152.227,245.536z"/>
			</g>
		</g>
		<g id="s" transform="translate(0,-120) scale(2.25)">
			<path fill="#FFDD00" d="M471.039,360.31l3.472,11.353l11.569-2.667l-8.092,8.686l8.092,8.683l-11.569-2.664l-3.472,11.35
				l-3.476-11.35l-11.568,2.664l8.092-8.683l-8.092-8.686l11.568,2.667L471.039,360.31z"/>
		</g>
		<g transform="translate(-33.75,-45)">
			<g id="s_1_" transform="translate(0,-120) scale(2.25)">
				<path fill="#FFDD00" d="M447.377,320.8l3.472,11.356l11.569-2.671l-8.095,8.686l8.095,8.686l-11.569-2.667l-3.472,11.353
					l-3.476-11.353l-11.568,2.667l8.094-8.686l-8.094-8.686l11.568,2.671L447.377,320.8z"/>
			</g>
		</g>
		<g transform="translate(33.75,-45)">
			<g id="s_2_" transform="translate(0,-120) scale(2.25)">
				<path fill="#FFDD00" d="M494.701,320.8l3.472,11.356l11.57-2.671l-8.095,8.686l8.095,8.686l-11.57-2.667l-3.472,11.353
					l-3.476-11.353l-11.568,2.667l8.094-8.686l-8.094-8.686l11.568,2.671L494.701,320.8z"/>
			</g>
		</g>
		<path fill="#ED1C24" d="M672.205,566.326l34.599,510.648c14.142,208.575,154.018,387.447,353.029,451.452
			c199.011-64.005,338.887-242.876,353.033-451.452l34.603-510.648c9.677,4.582,19.426,9.013,29.251,13.271l-33.837,499.393
			c-15.195,224.405-167.741,415.951-383.046,480.982c-215.305-65.031-367.851-256.577-383.046-480.982l-33.84-499.393
			C652.771,575.339,662.532,570.908,672.205,566.326"/>
	</g>
</g>
</svg>
