<?xml version="1.0" encoding="utf-8"?>
<!-- Generator: Adobe Illustrator 16.2.0, SVG Export Plug-In . SVG Version: 6.00 Build 0)  -->
<!DOCTYPE svg PUBLIC "-//W3C//DTD SVG 1.1//EN" "http://www.w3.org/Graphics/SVG/1.1/DTD/svg11.dtd">
<svg version="1.1" id="Слой_1" xmlns="http://www.w3.org/2000/svg" xmlns:xlink="http://www.w3.org/1999/xlink" x="0px" y="0px"
	 width="122px" height="28px" viewBox="0 0 122 28" enable-background="new 0 0 122 28" xml:space="preserve">
<g>
	<path fill="#FF0000" d="M32,7.999c0-4.553-3.613-8-8-8H0v22.999c0,2.763,2.238,5.001,5,5.001h27V7.999z"/>
	<path fill="#FFFFFF" d="M51.243,4.998c-0.98,0-1.674,0.787-1.674,1.55v0.591c-1.531-1.31-3.516-2.134-5.664-2.134
		C39.178,4.998,35,9.006,35,14.013c0,4.602,3.977,8.985,8.905,8.985c1.986,0,4.131-0.773,5.652-2.076l0.008,0.424
		c0,0.822,0.641,1.652,1.688,1.652c1.207,0,1.748-0.952,1.748-1.725V6.642C53.007,5.952,52.259,4.998,51.243,4.998L51.243,4.998z
		 M43.894,19.669c-3.109,0-5.636-2.536-5.636-5.676c0-3.135,2.526-5.673,5.636-5.673c3.121,0,5.648,2.538,5.648,5.673
		C49.538,17.133,47.011,19.669,43.894,19.669L43.894,19.669z"/>
	<path fill="#FFFFFF" d="M119.243,4.998c-0.98,0-1.674,0.787-1.674,1.55v0.591c-1.531-1.31-3.516-2.134-5.664-2.134
		c-4.727-0.007-8.904,4.001-8.904,9.008c0,4.602,3.977,8.985,8.904,8.985c1.986,0,4.131-0.773,5.652-2.076l0.008,0.424
		c0,0.822,0.641,1.652,1.688,1.652c1.207,0,1.748-0.952,1.748-1.725V6.642C121.007,5.952,120.259,4.998,119.243,4.998L119.243,4.998
		z M111.894,19.669c-3.109,0-5.635-2.536-5.635-5.676c0-3.135,2.525-5.673,5.635-5.673c3.121,0,5.648,2.538,5.648,5.673
		C117.538,17.133,115.011,19.669,111.894,19.669L111.894,19.669z"/>
	<g>
		<path fill="#FFFFFF" d="M60.001,20.998c0,1.105-0.896,2-2,2l0,0c-1.105,0-2-0.895-2-2v-14c0-1.103,0.895-2,2-2l0,0
			c1.104,0,2,0.897,2,2V20.998z"/>
		<circle fill="#FFFFFF" cx="58.001" cy="1.998" r="2"/>
	</g>
	<path fill="#FFFFFF" d="M67.001,20.999c0,1.105-0.896,2-2,2l0,0c-1.105,0-2-0.895-2-2v-19c0-1.104,0.895-1.999,2-1.999l0,0
		c1.104,0,2,0.896,2,1.999V20.999z"/>
	<path fill="#FFFFFF" d="M121.55,20.999c0,1.105-0.896,2-2,2l0,0c-1.105,0-2-0.895-2-2v-19c0-1.104,0.895-1.999,2-1.999l0,0
		c1.104,0,2,0.896,2,1.999V20.999z"/>
	<path fill="#FFFFFF" d="M74.001,20.998c0,1.105-0.896,2-2.002,2c-1.102,0-1.998-0.895-1.998-2c0-1.104,0.896-2,1.998-2
		C73.104,18.998,74.001,19.895,74.001,20.998z"/>
	<path fill="#FFFFFF" d="M18.488,13.807v6.559c0,0.877-0.2,1.535-0.599,1.976c-0.399,0.438-0.927,0.657-1.581,0.657
		c-0.637,0-1.15-0.219-1.544-0.657c-0.396-0.44-0.591-1.099-0.591-1.976v-7.662c0-1.05-0.037-1.868-0.107-2.45
		c-0.072-0.582-0.268-1.059-0.584-1.432c-0.317-0.373-0.82-0.559-1.505-0.559c-1.372,0-2.275,0.468-2.71,1.408
		c-0.436,0.938-0.652,2.288-0.652,4.044v6.65c0,0.868-0.197,1.523-0.592,1.967c-0.395,0.444-0.913,0.666-1.559,0.666
		c-0.635,0-1.154-0.222-1.559-0.666C4.502,21.889,4.3,21.233,4.3,20.365V7.404c0-0.787,0.182-1.385,0.546-1.792
		c0.361-0.408,0.842-0.614,1.436-0.614c0.572,0,1.052,0.192,1.436,0.574C8.1,5.956,8.293,6.485,8.293,7.158v0.399
		c0.727-0.868,1.504-1.506,2.333-1.914c0.829-0.409,1.751-0.613,2.765-0.613c1.054,0,1.959,0.208,2.717,0.628
		c0.758,0.418,1.383,1.051,1.873,1.899c0.707-0.858,1.465-1.493,2.273-1.907s1.705-0.62,2.688-0.62c1.146,0,2.135,0.224,2.963,0.674
		c0.829,0.448,1.448,1.093,1.857,1.93c0.359,0.755,0.538,1.944,0.538,3.569v9.162c0,0.877-0.199,1.535-0.599,1.976
		c-0.399,0.438-0.928,0.657-1.581,0.657c-0.636,0-1.155-0.222-1.56-0.666c-0.404-0.443-0.605-1.099-0.605-1.967v-8.028
		c0-0.898-0.039-1.62-0.115-2.161c-0.078-0.54-0.285-0.996-0.622-1.362c-0.339-0.368-0.851-0.551-1.536-0.551
		c-0.553,0-1.078,0.162-1.574,0.49c-0.496,0.326-0.882,0.765-1.158,1.315C18.643,10.774,18.488,12.021,18.488,13.807z"/>
	<path fill="#FFFFFF" d="M90.188,13.808v6.559c0,0.877-0.199,1.535-0.598,1.976c-0.4,0.438-0.928,0.657-1.582,0.657
		c-0.637,0-1.15-0.219-1.543-0.657c-0.396-0.44-0.592-1.099-0.592-1.976v-7.662c0-1.05-0.037-1.868-0.107-2.45
		c-0.072-0.582-0.268-1.059-0.584-1.432s-0.82-0.559-1.504-0.559c-1.373,0-2.275,0.468-2.711,1.408
		c-0.436,0.938-0.652,2.288-0.652,4.044v6.65c0,0.868-0.197,1.523-0.592,1.967c-0.395,0.444-0.912,0.666-1.559,0.666
		c-0.635,0-1.154-0.222-1.559-0.666c-0.404-0.443-0.605-1.099-0.605-1.967V7.405c0-0.787,0.182-1.385,0.545-1.792
		c0.361-0.408,0.842-0.614,1.436-0.614c0.572,0,1.053,0.192,1.436,0.574c0.383,0.384,0.576,0.913,0.576,1.586v0.399
		c0.727-0.868,1.504-1.506,2.334-1.914c0.828-0.409,1.75-0.613,2.764-0.613c1.055,0,1.959,0.208,2.717,0.628
		c0.758,0.418,1.383,1.051,1.873,1.899c0.707-0.858,1.465-1.493,2.273-1.907s1.705-0.62,2.688-0.62c1.146,0,2.135,0.224,2.963,0.674
		c0.83,0.448,1.449,1.093,1.857,1.93c0.359,0.755,0.539,1.944,0.539,3.569v9.162c0,0.877-0.199,1.535-0.6,1.976
		c-0.398,0.438-0.928,0.657-1.58,0.657c-0.637,0-1.156-0.222-1.561-0.666c-0.404-0.443-0.605-1.099-0.605-1.967v-8.028
		c0-0.898-0.039-1.62-0.115-2.161c-0.078-0.54-0.285-0.996-0.621-1.362c-0.34-0.368-0.852-0.551-1.537-0.551
		c-0.553,0-1.078,0.162-1.574,0.49c-0.496,0.326-0.881,0.765-1.158,1.315C90.343,10.775,90.188,12.021,90.188,13.808z"/>
</g>
</svg>
