<?xml version="1.0" encoding="utf-8"?>
<!-- Generator: Adobe Illustrator 16.2.0, SVG Export Plug-In . SVG Version: 6.00 Build 0)  -->
<!DOCTYPE svg PUBLIC "-//W3C//DTD SVG 1.1//EN" "http://www.w3.org/Graphics/SVG/1.1/DTD/svg11.dtd">
<svg version="1.1" id="Слой_1" xmlns="http://www.w3.org/2000/svg" xmlns:xlink="http://www.w3.org/1999/xlink" x="0px" y="0px"
	 width="600px" height="400px" viewBox="0 0 600 400" enable-background="new 0 0 600 400" xml:space="preserve">
<rect fill="#EE1C25" width="600" height="400"/>
<rect fill="#0B4EA2" width="600" height="266.666"/>
<rect fill="#FFFFFF" width="600" height="133.333"/>
<g>
	<path fill="#FFFFFF" d="M210.837,309c-35.854-17.271-87.14-51.55-87.14-119.355c0-67.807,3.242-98.645,3.242-98.645h83.897h83.9
		c0,0,3.242,30.837,3.242,98.645C297.979,257.45,246.693,291.729,210.837,309z"/>
	<path fill="#EE1C25" d="M210.837,300c-32.893-15.845-79.944-47.293-79.944-109.5c0-62.209,2.974-90.5,2.974-90.5h76.971h76.973
		c0,0,2.976,28.291,2.976,90.5S243.733,284.155,210.837,300L210.837,300z"/>
	<path fill="#FFFFFF" d="M217.872,174.188c8.906,0.145,26.284,0.493,41.757-4.685c0,0-0.408,5.537-0.408,11.987
		s0.408,11.987,0.408,11.987c-14.193-4.75-31.72-4.849-41.757-4.721v34.359h-14.069v-34.359
		c-10.036-0.127-27.563-0.028-41.756,4.721c0,0,0.409-5.536,0.409-11.987c0-6.45-0.409-11.987-0.409-11.987
		c15.473,5.178,32.85,4.829,41.756,4.685V152.61c-8.117-0.071-19.815,0.315-33.042,4.741c0,0,0.409-5.537,0.409-11.988
		c0-6.45-0.409-11.986-0.409-11.986c13.207,4.418,24.891,4.813,33.006,4.742c-0.417-13.666-4.398-30.889-4.398-30.889
		s8.192,0.641,11.468,0.641c3.279,0,11.469-0.641,11.469-0.641s-3.979,17.225-4.397,30.888c8.116,0.07,19.799-0.323,33.006-4.742
		c0,0-0.409,5.537-0.409,11.986c0,6.451,0.409,11.988,0.409,11.988c-13.226-4.426-24.925-4.813-33.042-4.742L217.872,174.188
		L217.872,174.188L217.872,174.188z"/>
	<path fill="#0B4EA2" d="M210.834,219.396c-16.565,0-25.438,22.979-25.438,22.979s-4.923-10.896-18.438-10.896
		c-9.144,0-15.883,8.134-20.167,15.666c16.636,26.471,43.179,42.805,64.041,52.854c20.866-10.05,47.426-26.38,64.063-52.854
		c-4.283-7.532-11.022-15.666-20.167-15.666c-13.516,0-18.458,10.896-18.458,10.896S227.399,219.396,210.834,219.396
		L210.834,219.396z"/>
</g>
</svg>
