<?xml version="1.0" standalone="no"?>
<!DOCTYPE svg PUBLIC "-//W3C//DTD SVG 1.1//EN" "http://www.w3.org/Graphics/SVG/1.1/DTD/svg11.dtd" >
<svg xmlns="http://www.w3.org/2000/svg">
<metadata>Generated by IcoMoon</metadata>
<defs>
<font id="icomoon" horiz-adv-x="1024">
<font-face units-per-em="1024" ascent="960" descent="-64" />
<missing-glyph horiz-adv-x="1024" />
<glyph unicode="&#x20;" horiz-adv-x="512" d="" />
<glyph unicode="&#xe900;" glyph-name="archive" d="M768 494.4h-512v-232.8h512v232.8zM698 331.6h-372v93.2h372.4v-93.2zM1024 890c0 39.6-30.4 70-70 70h-884c-39.6 0-70-30.4-70-70v-256h93.2v-628.4c0-39.6 30.4-70 70-70h698c39.6 0 70 30.4 70 70v628.4h92.8v256zM861.2 6h-698.4v628h698v-628zM954 704h-884v186h884.4v-186z" />
<glyph unicode="&#xe901;" glyph-name="arrow-down" d="M-0.4 676.8l456.8-456.8-0.8-0.8 56-55.6 0.4 0.8 0.4-0.8 56 55.6-0.8 0.8 456.8 456.8-55.6 55.6-456.8-456.8-456.8 456.8z" />
<glyph unicode="&#xe902;" glyph-name="arrow-down@2" d="M0 653.6l410.8-410.8-0.4-0.4 101.2-101.2 0.4 0.4 0.4-0.4 101.2 101.2-0.4 0.4 410.8 410.8-101.2 101.2-410.8-410.8-410.8 410.8z" />
<glyph unicode="&#xe903;" glyph-name="arrow-left" d="M740.8 960.4l-456.8-456.8-0.8 0.8-55.6-56 0.8-0.4-0.8-0.4 55.6-56 0.8 0.8 456.8-456.8 55.6 55.6-456.8 456.8 456.8 456.8z" />
<glyph unicode="&#xe904;" glyph-name="arrow-right" d="M283.2-64.4l456.8 456.8 0.8-0.8 55.6 56-0.8 0.4 0.8 0.4-55.6 56-0.8-0.8-456.8 456.8-55.6-55.6 456.8-456.8-456.8-456.8z" />
<glyph unicode="&#xe905;" glyph-name="arrow-up" d="M1024.4 219.2l-456.8 456.8 0.8 0.8-56 55.6-0.4-0.8-0.4 0.8-56-55.6 0.8-0.8-456.8-456.8 55.6-55.6 456.8 456.8 456.8-456.8z" />
<glyph unicode="&#xe906;" glyph-name="arrow-up@2" d="M1024 242.4l-410.8 410.8 0.4 0.4-101.2 101.2-0.4-0.4-0.4 0.4-101.2-101.2 0.4-0.4-410.8-410.8 101.2-101.2 410.8 410.8 410.8-410.8z" />
<glyph unicode="&#xe907;" glyph-name="brush" d="M1000.8 942c-24 24-63.6 24-88 0l-311.6-311.6-40.8 40.8c-35.2 35.2-92.8 35.2-128.4 0l-38-38 297.2-297.2 38 38c35.2 35.2 35.2 92.8 0 128.4l-40.8 40.8 311.6 311.6c25.2 23.2 25.2 62.8 0.8 87.2zM124 480.8c-46-7.6-118.4-2-118.4-2s-29.6-143.2 46.4-250c124-174.4 359.6-292.8 359.6-292.8s80.8 63.2 124 124c59.6 83.6 112 241.2 112 241.2l-296 296c0 0-150-103.6-227.6-116.4z" />
<glyph unicode="&#xe908;" glyph-name="cancel" d="M1025.2 904.8l-55.2 55.6-456.8-456.8-1.2 0.8-0.8-0.8-457.2 456.8-55.2-55.6 456.4-456.8-456.4-456.8 55.2-55.6 457.2 456.8 0.8-0.8 1.2 0.8 456.8-456.8 55.2 55.6-456.4 456.8z" />
<glyph unicode="&#xe909;" d="M944-64h-864c-44 0-80 36-80 80v864c0 44 36 80 80 80h864c44 0 80-36 80-80v-864c0-44-36-80-80-80z" />
<glyph unicode="&#xe90a;" d="M884.4 630l-90 89.6-364-364-132 132-90-89.6 132.4-132.4h-0.4l89.6-90 0.4 0.4 0.4-0.4 89.6 90h-0.4z" />
<glyph unicode="&#xe90b;" glyph-name="cb-unchecked" d="M944-64h-864c-44 0-80 36-80 80v864c0 44 36 80 80 80h864c44 0 80-36 80-80v-864c0-44-36-80-80-80z" />
<glyph unicode="&#xe90c;" glyph-name="check-box-mark" d="M870.4 857.6l-499.2-492.8-211.2 211.2-160-160 211.2-224 147.2-153.6 665.6 665.6z" />
<glyph unicode="&#xe90d;" glyph-name="checked" horiz-adv-x="1422" d="M1393.778 868.978l-79.644 79.644-841.956-841.956-364.089 364.089-79.644-85.333 358.4-358.4 85.333-79.644 79.644 79.644z" />
<glyph unicode="&#xe90e;" glyph-name="clip" d="M945.2 460.8l-374.4-374.4c-107.2-107.2-281.6-107.2-390.8 0-107.2 107.2-107.2 281.6 0 390.8l358.4 358.4c67.6 60.4 190.8 56 253.6-6.8 65.2-65.2 48.8-167.6-9.2-234.8l-325.6-325.6-2.4 2.4c-2.4-6.8-6.8-14-14-18.8-28-28-69.6-28-97.6 0s-28 69.6 0 97.6c4.8 4.8 11.6 9.2 18.8 14l-2.4 2.4 342 339.6-49.6 48-358.4-358.4c-53.6-53.6-53.6-142 0-195.6s142-53.6 195.6 0c4.8 4.8 11.6 11.6 14 18.8l2.4-2.4 325.6 325.6c97.6 97.6 102.4 256 6.8 348.8s-248.8 93.6-348.8-6.4l-358.4-358.4c-134.8-134.8-134.8-353.6 0.4-488.4s353.6-134.8 488.4 0l374.4 374.4-48.8 49.2z" />
<glyph unicode="&#xe90f;" glyph-name="comment-contact" d="M787.2 326.4v-102.4c0-44.8-12.8-76.8-44.8-108.8s-64-44.8-108.8-44.8h-448c-44.8 0-76.8 12.8-108.8 44.8s-44.8 64-44.8 108.8v448c0 44.8 12.8 76.8 44.8 108.8s64 44.8 108.8 44.8h448c25.6 0 44.8-6.4 64-12.8 6.4-6.4 6.4-6.4 6.4-12.8s0-12.8-6.4-12.8l-25.6-25.6c-6.4-6.4-12.8-6.4-19.2-6.4s-19.2 6.4-25.6 6.4h-448c-12.8-6.4-32-12.8-51.2-32s-25.6-32-25.6-57.6v-448c0-25.6 6.4-44.8 25.6-57.6s38.4-25.6 57.6-25.6h448c25.6 0 44.8 6.4 57.6 25.6s25.6 38.4 25.6 57.6v70.4c0 6.4 0 6.4 6.4 12.8l32 32c6.4 6.4 12.8 6.4 19.2 6.4 12.8-6.4 12.8-12.8 12.8-19.2zM736 723.2l153.6-153.6-358.4-358.4h-153.6v153.6l358.4 358.4zM512 262.4l64 64-83.2 76.8-64-64v-32h51.2v-51.2h32zM742.4 646.4c-6.4 6.4-12.8 6.4-19.2 0l-185.6-192c-6.4-6.4-6.4-6.4 0-12.8s12.8-6.4 19.2 0l185.6 185.6c6.4 6.4 6.4 12.8 0 19.2zM972.8 652.8l-51.2-51.2-153.6 153.6 51.2 51.2c12.8 12.8 19.2 12.8 38.4 12.8s25.6-6.4 38.4-12.8l83.2-83.2c12.8-12.8 12.8-19.2 12.8-38.4 0-12.8-6.4-25.6-19.2-32z" />
<glyph unicode="&#xe910;" glyph-name="conacts-sends" d="M960 960h-640c-38.4 0-64-25.6-64-64v-128h64v128h640v-512h-64v-64h64c38.4 0 64 25.6 64 64v512c0 38.4-25.6 64-64 64zM768 704h-704c-38.4 0-64-25.6-64-64v-512c0-38.4 25.6-64 64-64h64l128-128 128 128h384c38.4 0 64 25.6 64 64v512c0 38.4-25.6 64-64 64zM768 128l-428.8-6.4-83.2-96-89.6 102.4h-102.4v512h704v-512z" />
<glyph unicode="&#xe911;" glyph-name="crumbs-arrow" d="M779.378 630.044c45.511-45.511 85.333-85.333 113.778-108.089s62.578-45.511 91.022-56.889v-22.756c-34.133-17.067-62.578-34.133-96.711-62.578-28.444-22.756-68.267-62.578-113.778-108.089h-34.133c34.133 68.267 62.578 119.467 96.711 153.6h-796.444v45.511h796.444c-22.756 34.133-45.511 56.889-51.2 73.956s-28.444 45.511-45.511 85.333h39.822z" />
<glyph unicode="&#xe912;" glyph-name="delete" d="M989.2 797.2h-212.8l-28.8 96.4c-11.2 36.4-51.6 66.4-89.6 66.4h-279.6c-38.4 0-78.8-30-89.6-66.8l-28.8-96.4h-225.2c-19.2 0-34.8-15.6-34.8-34.8s15.6-34.8 34.8-34.8h104.8v-721.6c0-38.4 31.2-69.6 69.6-69.6h605.2c38.4 0 69.6 31.2 69.6 69.6v721.6h104.8c19.2 0 34.8 15.6 34.8 34.8s-15.2 35.2-34.4 35.2zM355.6 873.2c2 7.2 15.2 16.8 22.8 16.8h279.6c7.6 0 20.8-9.6 22.8-16.8l22.8-76h-370.8l22.8 76zM814.4 6h-604.8v721.2h605.2v-721.2zM442 587.6h-69.6v-442h70v442zM651.6 587.6h-70v-442h70v442z" />
<glyph unicode="&#xe913;" glyph-name="d-folder" d="M1024 840c0 34-26 60-60 60h-416c0 33.6-25.6 60-60 60h-284c-34 0-60-26-60-60v-760c0-34 26-60 60-60h760c34 0 60 26 60 60v700zM204 900h280v-60h480v-120h-760v180zM964.4 140h-760.4v520h760v-520zM60 718.4h-60v-782.4h873.2v60h-813.2v722.4z" />
<glyph unicode="&#xe914;" glyph-name="double-arrow-left" d="M116.364 450.327c-2.327 11.636 0 23.273 9.309 32.582l449.164 444.509c13.964 11.636 32.582 11.636 46.545 0 11.636-11.636 11.636-32.582 0-46.545l-430.545-432.873 428.218-432.873c11.636-13.964 11.636-32.582 0-46.545-11.636-11.636-32.582-11.636-46.545 0l-449.164 449.164c-9.309 9.309-11.636 20.945-6.982 32.582zM395.636 450.327c-2.327 11.636 0 23.273 9.309 32.582l449.164 444.509c13.964 11.636 32.582 11.636 46.545 0 11.636-11.636 11.636-32.582 0-46.545l-430.545-432.873 428.218-432.873c11.636-13.964 11.636-32.582 0-46.545-11.636-11.636-32.582-11.636-46.545 0l-449.164 449.164c-9.309 9.309-11.636 20.945-6.982 32.582z" />
<glyph unicode="&#xe915;" glyph-name="double-arrow-right" d="M907.636 445.673c2.327-11.636 0-23.273-9.309-32.582l-449.164-444.509c-13.964-11.636-32.582-11.636-46.545 0-11.636 11.636-11.636 32.582 0 46.545l430.545 432.873-428.218 432.873c-11.636 13.964-11.636 32.582 0 46.545 11.636 11.636 32.582 11.636 46.545 0l449.164-449.164c9.309-9.309 11.636-20.945 6.982-32.582zM628.364 445.673c2.327-11.636 0-23.273-9.309-32.582l-449.164-444.509c-13.964-11.636-32.582-11.636-46.545 0-11.636 11.636-11.636 32.582 0 46.545l430.545 432.873-428.218 432.873c-11.636 13.964-11.636 32.582 0 46.545 11.636 11.636 32.582 11.636 46.545 0l449.164-449.164c9.309-9.309 11.636-20.945 6.982-32.582z" />
<glyph unicode="&#xe916;" glyph-name="draft" d="M500.4 308.4c-18.8 0-34.8-16.4-34.8-34.8s16.4-34.8 34.8-34.8 34.8 16.4 34.8 34.8-16.4 34.8-34.8 34.8zM640 308.4c-18.8 0-34.8-16.4-34.8-34.8s16.4-34.8 34.8-34.8 34.8 16.4 34.8 34.8-16 34.8-34.8 34.8zM232.8 238.4h162.8v70h-162.8v-70zM716.8 960h-646.8c-39.6 0-70-30.4-70-70v-884.4c0-39.6 30.4-70 70-70h884.4c39.6 0 70 30.4 70 70v698.4l-307.6 256zM721.6 864.4l221.2-184h-221.2v184zM70 6v884h582v-244.4c0-9.2 4.8-18.8 9.2-25.6 6.8-6.8 14-9.2 25.6-9.2h267.6v-605.2h-884.4zM779.6 308.4c-18.8 0-34.8-16.4-34.8-34.8s16.4-34.8 34.8-34.8 34.8 16.4 34.8 34.8-16 34.8-34.8 34.8zM232.8 401.6h582v70h-582v-70z" />
<glyph unicode="&#xe917;" glyph-name="equalize" d="M169.2 449.2c-65.2 0-118-52.8-118-118s52.8-118 118-118 118 52.8 118 118-52.8 118-118 118zM514.4 732.8c-65.2 0-118-52.8-118-118s52.8-118 118-118 118 52.8 118 118-52.8 118-118 118zM854.8 331.2c-65.2 0-118-52.8-118-118s52.8-118 118-118 118 52.8 118 118-52.8 118-118 118zM226 960h-111.2v-452h111.2v452zM456.4-64h111.2v512h-111.2v-512zM910.4 960h-111.2v-567.6h111.2v567.6zM570 960h-111.2v-170.4h111.2v170.4zM114.8-64h111.2v227.2h-111.2v-227.2zM798-61.6h111.2v111.2h-111.2v-111.2z" />
<glyph unicode="&#xe918;" glyph-name="eye" d="M512 748.8c-198.4 0-371.2-108.8-499.2-275.2-12.8-12.8-12.8-32 0-44.8 128-166.4 307.2-275.2 499.2-275.2s371.2 108.8 499.2 275.2c12.8 12.8 12.8 32 0 44.8-128 166.4-300.8 275.2-499.2 275.2zM524.8 236.8c-128-6.4-236.8 96-230.4 230.4 6.4 108.8 96 192 198.4 198.4 128 6.4 236.8-96 230.4-230.4-6.4-115.2-89.6-192-198.4-198.4zM518.4 326.4c-70.4-6.4-128 57.6-121.6 128 6.4 64 44.8 102.4 108.8 108.8 70.4 6.4 128-51.2 121.6-121.6-6.4-64-44.8-102.4-108.8-115.2z" />
<glyph unicode="&#xe919;" glyph-name="filter" d="M845.2 960h102v-1024h-102v1024zM76.8 960h102v-1024h-102v1024zM332.8 960h102v-1024h-102v1024zM588.8 960h102v-1024h-102v1024z" />
<glyph unicode="&#xe91a;" glyph-name="folder" d="M1024 820.4c0 39.6-30.4 70-70 70h-484c0 39.2-30 69.6-69.6 69.6h-330.4c-39.6 0-70-30.4-70-70v-884.4c0-39.6 30.4-70 70-70h884.4c39.6 0 70 30.4 70 70v814.8zM395.6 890v-70h558.4v-139.6h-884v209.6h325.6zM954 6h-884v604.8h884.4v-604.8z" />
<glyph unicode="&#xe91b;" glyph-name="forward" d="M70 960h884.4c39.6 0 70-30.4 70-70v-884.4c0-39.6-30.4-70-70-70h-768c-39.6 0-70 30.4-70 70v209.6c0 274.8 181.6 372.4 418.8 372.4v93.2c0 23.2 20.8 46.4 46.4 46.4 23.2 0 34.8-16.4 46.4-28l204.8-204.8c16.4-16.4 28-25.6 28-46.4s-11.6-30.4-28-46.4l-204.8-204.8c-11.6-11.6-23.2-28-46.4-28-25.6 0-46.4 23.2-46.4 46.4v93.2h-93.2c-88.4-2.4-202.4-23.2-232.8-104.8-4.8-16.4-23.2-51.2-23.2-60.4v-139.6h768v886.4h-884v-372.4c0-2.4-2.4-46.4-34.8-46.4s-35.2 44.4-35.2 46.8v372c0 39.6 30.4 70 70 70zM440 378h165.2v-107.2l176.8 176.8-176.8 176.8v-107.2h-70c-256 0-323.6-123.2-342-216.4 44 40 118.8 72.8 246.8 77.2v0z" />
<glyph unicode="&#xe91c;" glyph-name="full-screen" d="M716 613.6l238 238 2.4-168c0-18.8 9.2-32.8 28-32.8s37.2 20.8 37.2 37.2v238c0 18.8-14 30.4-32.8 32.8l-254.4 2.4c-18.8 0-32.8-6.8-32.8-25.6s20.8-37.2 37.2-37.2h165.6c0 0-177.2-196-233.2-242.4-41.6-28.4-6.4-79.6 44.8-42.4zM298.4 291.6l-238-238 2.4 168c0 18.8-14 32.8-32.8 32.8s-30-20.8-30-39.6l4.8-238c0-18.8 6.8-34.8 25.6-34.8l247.2-6.8c18.8 0 32.8 14 32.8 32.8s-14 32.8-32.8 32.8l-168 4.8c0 0 177.2 196 233.2 242.4 42 29.6 7.2 81.2-44.4 43.6zM342.8 650.8c-58.4 49.2-233.2 242.8-233.2 242.8l168 4.8c18.8 0 32.8 14 32.8 32.8s-14 32.8-32.8 32.8l-249.6-7.6c-18.8 0-25.6-18.8-25.6-34.8l-2.4-238c0-18.8 14-39.6 30.4-39.6 18.8 0 32.8 14 32.8 32.8l-2.4 168 238-238c51.2-37.6 86 14 44 44zM984.4 247.2c-18.8 0-28-16.4-28-32.8l-2.4-170.4-238 238.4c-51.2 37.2-86.4-14-44.4-44.4 58.4-48.8 233.2-242.4 233.2-242.4h-165.6c-18.8 0-37.2-20.8-37.2-37.2s16.4-25.6 32.8-25.6l254.4 4.8c18.8 0 30.4 14 32.8 32.8l2.4 240.4c-2.8 15.6-21.2 36.4-40 36.4z" />
<glyph unicode="&#xe91d;" glyph-name="grid-square" d="M160 755.2h179.2v179.2h-179.2v-179.2zM691.2 934.4v-172.8h179.2v172.8c-6.4 0-179.2 0-179.2 0zM422.4 755.2h179.2v179.2h-179.2v-179.2zM160-38.4h179.2v179.2h-179.2v-179.2zM691.2-38.4h179.2v179.2h-179.2v-179.2zM422.4-38.4h179.2v179.2h-179.2v-179.2zM160 230.4h179.2v172.8h-179.2v-172.8zM691.2 230.4h179.2v172.8h-179.2v-172.8zM422.4 230.4h179.2v172.8h-179.2v-172.8zM160 492.8h179.2v172.8h-179.2v-172.8zM691.2 492.8h179.2v172.8h-179.2v-172.8zM422.4 492.8h179.2v172.8h-179.2v-172.8z" />
<glyph unicode="&#xe91e;" glyph-name="important" d="M1008.8 352.4l-153.6 272.4 153.6 267.6c18.8 67.6-46.4 67.6-46.4 67.6h-954.4v-1024h70v349.2h884.4c0 0 76.8 9.2 46.4 67.2zM78 354.8v535.2l861.2 2.4-151.2-242c-4.8-9.2-4.8-42 0-51.2l156-244.4h-866z" />
<glyph unicode="&#xe91f;" glyph-name="important-solid" d="M962.4 285.2h-884.4v-349.2h-70v1024h954c0 0 65.2 0 46.4-67.6l-153.6-267.6 153.6-272.4c30.8-58-46-67.2-46-67.2v0z" />
<glyph unicode="&#xe920;" glyph-name="inbox" d="M884.4 727.2h-744.8v-70h744.8v70zM954 960h-884c-39.6 0-70-30.4-70-70v-884.4c0-39.6 30.4-70 70-70h884.4c39.6 0 70 30.4 70 70v884.4c-0.4 39.6-30.8 70-70.4 70zM954 6h-884v302.4h221.2l51.2-121.2c9.2-23.2 39.6-42 65.2-42h209.6c25.6 0 56 18.8 65.2 42l51.2 121.2h221.2v-302.4zM954 376h-279.2l-34.8-118.8c-6.8-25.6-32.4-44.4-58-44.4h-139.6c-25.6 0-51.2 20.8-58 44.4l-35.2 118.8-279.2 2.4v512h884.4v-514.4h-0.4zM884.4 587.6h-744.8v-70h744.8v70z" />
<glyph unicode="&#xe921;" glyph-name="label-message" horiz-adv-x="1139" d="M1113.6 518.4l-268.8 371.2c-25.6 38.4-83.2 70.4-134.4 70.4h-627.2c-44.8 0-83.2-38.4-83.2-83.2v-851.2c0-51.2 38.4-89.6 83.2-89.6h627.2c44.8 0 108.8 32 134.4 70.4l268.8 371.2c32 38.4 32 102.4 0 140.8zM742.4 332.8c-64 0-115.2 51.2-115.2 115.2s51.2 115.2 115.2 115.2 108.8-51.2 108.8-115.2-51.2-115.2-108.8-115.2z" />
<glyph unicode="&#xe922;" glyph-name="lens" d="M737.6 271.2c62.8 72 100 167.6 100 270 0.4 230.4-188.4 418.8-418.8 418.8s-418.8-188.4-418.8-418.8 188.4-418.8 418.8-418.8c102.4 0 198 37.2 270 100l286.4-286.4 48.8 48.8-286.4 286.4zM418.8 192c-193.2 0-349.2 156-349.2 349.2s156 349.2 349.2 349.2 349.2-156 349.2-349.2-156-349.2-349.2-349.2z" />
<glyph unicode="&#xe923;" glyph-name="menu" d="M34.8 226.8c-18.8 0-34.8-16.4-34.8-34.8s16.4-34.8 34.8-34.8h954c18.8 0 34.8 16.4 34.8 34.8s-16.4 34.8-34.8 34.8h-954zM34.8 482.8c-18.8 0-34.8-16.4-34.8-34.8s16.4-34.8 34.8-34.8h954c18.8 0 34.8 16.4 34.8 34.8s-16.4 34.8-34.8 34.8h-954zM34.8 738.8c-18.4 0-34.8-16-34.8-34.8s16.4-34.8 34.8-34.8h954c18.8 0 34.8 16.4 34.8 34.8 0 18.8-16.4 34.8-34.8 34.8h-954z" />
<glyph unicode="&#xe924;" glyph-name="more" d="M139.6 587.6c-76.8 0-139.6-62.8-139.6-139.6s62.8-139.6 139.6-139.6 139.6 62.8 139.6 139.6-62.8 139.6-139.6 139.6zM139.6 378c-39.6 0-70 30.4-70 70s30.4 70 70 70 70-30.4 70-70-30.4-70-70-70zM884.4 587.6c-76.8 0-139.6-62.8-139.6-139.6s62.8-139.6 139.6-139.6 139.6 62.8 139.6 139.6-62.8 139.6-139.6 139.6zM884.4 378c-39.6 0-70 30.4-70 70s30.4 70 70 70 70-30.4 70-70-30.4-70-70-70zM512 587.6c-76.8 0-139.6-62.8-139.6-139.6s62.8-139.6 139.6-139.6 139.6 62.8 139.6 139.6-62.8 139.6-139.6 139.6zM512 378c-39.6 0-70 30.4-70 70s30.4 70 70 70 70-30.4 70-70-30.4-70-70-70z" />
<glyph unicode="&#xe925;" glyph-name="outbox" d="M358.4 590l121.2 100v-265.2c0-62.8 65.2-58 65.2 0v262.8l121.2-100c14-11.6 34.8-11.6 46.4 0s14 32.4 0 44.4l-172.4 153.6c-14 11.6-34.8 11.6-46.4 0l-181.6-151.6c-14-11.6-14-32.4 0-44.4 14-11.2 34.8-13.6 46.4 0.4zM954 960h-884c-39.6 0-70-30.4-70-70v-884.4c0-39.6 30.4-70 70-70h884.4c39.6 0 70 30.4 70 70v884.4c-0.4 39.6-30.8 70-70.4 70zM954 6h-884v302.4h221.2l51.2-121.2c9.2-23.2 39.6-42 65.2-42h209.6c25.6 0 56 18.8 65.2 42l51.2 121.2h221.2v-302.4zM954 376h-279.2l-34.8-118.8c-6.8-25.6-32.4-44.4-58-44.4h-139.6c-25.6 0-51.2 20.8-58 44.4l-35.2 118.8-279.2 2.4v512h884.4v-514.4h-0.4z" />
<glyph unicode="&#xe926;" glyph-name="pin" d="M651.2 33.6c2.4 6.8 4.8 14 4.8 23.2 0 144 155.6 432 260 480.8 6.8 2.4 11.6 4.8 16.4 9.2l37.2-37.2c9.2-9.2 23.2-9.2 30 0l16.4 16.4c9.2 9.2 9.2 23.2 0 30l-397.2 397.2c-9.2 9.2-23.2 9.2-30 0l-16.4-16.4c-9.2-9.2-9.2-23.2 0-30l37.2-37.2c-4.8-4.8-6.8-11.6-9.2-16.4-48.8-104.4-339.2-262.4-480.8-262.4-6.8 0-16.4-2.4-23.2-4.8-14-6.8-25.6-18.4-32.4-32.4s-6.8-30 0-46.4c2.4-6.8 6.8-14 14-18.4l192.4-192.8-269.2-360 360 271.6 192.8-192.8c4.8-4.8 11.6-9.2 18.4-14 6.8-2.4 14-4.8 23.2-4.8 6.8 0 16.4 2.4 23.2 4.8 16.4 4.8 25.6 16.4 32.4 32.8v0zM133.6 525.6c127.6 2.4 471.2 185.6 524.8 294.8l227.6-227.6c-111.6-53.6-292.4-397.2-294.8-524.8l-457.6 457.6z" />
<glyph unicode="&#xe927;" glyph-name="remove-thick" d="M672 448l345.6 345.6c6.4 6.4 6.4 19.2 0 32l-128 128c-6.4 6.4-6.4 6.4-12.8 6.4s-12.8 0-12.8-6.4l-352-345.6-345.6 345.6c-12.8 6.4-25.6 6.4-32 0l-128-128c-6.4-6.4-6.4-19.2 0-32l345.6-345.6-345.6-345.6c-6.4-6.4-6.4-19.2 0-32l128-128c6.4-6.4 6.4-6.4 12.8-6.4s12.8 0 12.8 6.4l352 345.6 345.6-345.6c6.4-6.4 6.4-6.4 12.8-6.4s12.8 0 12.8 6.4l128 128c6.4 6.4 6.4 19.2 0 32l-339.2 345.6z" />
<glyph unicode="&#xe928;" glyph-name="reply" d="M954 960h-884c-39.6 0-70-30.4-70-70v-884.4c0-39.6 30.4-70 70-70h768c39.6 0 70 30.4 70 70v209.6c0 274.8-181.6 372.4-418.8 372.4v93.2c0 23.2-20.8 46.4-46.4 46.4-23.2 0-34.8-16.4-46.4-28l-204.8-204.8c-16.4-16.4-28-23.2-28-46.4s11.6-30.4 28-46.4l204.8-204.8c11.6-11.6 23.2-28 46.4-28 25.6 0 46.4 23.2 46.4 46.4v93.2h93.2c88.4-2.4 202.4-23.2 232.8-104.8 4.8-16.4 23.2-51.2 23.2-60.4v-139.6h-768v886.4h884.4v-372.4c0-2.4 2.4-46.4 34.8-46.4s34.8 44.4 34.8 46.4v372.4c-0.4 39.6-30.8 70-70.4 70zM584 378h-165.2v-107.2l-176.8 177.2 176.8 176.8v-107.2h70c256 0 323.6-123.2 342-216.4-44 39.6-118.8 72.4-246.8 76.8z" />
<glyph unicode="&#xe929;" glyph-name="reply-all" d="M1024 518v372c0 39.6-30.4 70-70 70h-884c-39.6 0-70-30.4-70-70v-884.4c0-39.6 30.4-70 70-70h768c39.6 0 65.2 28 67.6 70l2.4 228c-11.6 260.8-256 353.6-256 353.6v93.6c0 23.2-20.8 46.4-46.4 46.4-23.2 0-34.8-16.4-46.4-23.2l-209.6-209.6c-11.6-16.4-23.2-25.6-23.2-46.4s11.6-30.4 23.2-46.4l209.6-209.6c11.6-6.8 23.2-23.2 46.4-23.2 25.6 0 46.4 23.2 46.4 46.4v93.2c88.4-2.4 156-23.2 186-93.2 2.4-9.2 0-53.6 0-70v-139.6h-768v884.4h884.4v-372.4c0 0 0-46.4 37.2-44.4 32.4 0.4 32.4 44.8 32.4 44.8zM654 378l-72 2.4v-114l-179.2 181.6 179.2 179.2v-88.4l44.4-16.4c2.4 0 130.4-51.2 186-181.6-51.2 28-109.6 35.2-158.4 37.2v0zM418.8 727.2c-23.2 0-34.8-16.4-46.4-23.2l-209.6-209.6c-11.6-16.4-23.2-25.6-23.2-46.4s11.6-30.4 23.2-46.4l209.6-209.6c11.6-6.8 23.2-23.2 46.4-23.2 25.6 0 56 23.2 37.2 56l-228 223.2 223.6 218.8c20.8 28-7.2 60.4-32.8 60.4v0z" />
<glyph unicode="&#xe92a;" glyph-name="select-arrow" d="M1011.2 684.8l-51.2 51.2c-6.4 6.4-12.8 12.8-25.6 12.8-6.4 0-19.2-6.4-25.6-12.8l-396.8-403.2-403.2 403.2c-6.4 6.4-12.8 12.8-25.6 12.8s-12.8-6.4-19.2-12.8l-51.2-51.2c-6.4-6.4-12.8-12.8-12.8-25.6 0-6.4 6.4-12.8 12.8-19.2l480-480c6.4-6.4 12.8-12.8 25.6-12.8 6.4 0 19.2 6.4 25.6 12.8l467.2 480c6.4 6.4 12.8 12.8 12.8 19.2 0 12.8-6.4 19.2-12.8 25.6z" />
<glyph unicode="&#xe92b;" glyph-name="send" horiz-adv-x="1296" d="M213.332 75.6h498.668v-70h-498.668v70zM0 501.6h498.668v-70h-498.668v70zM114.668 288.8h498.668v-70h-498.668v70zM1226 890h-884c-39.6 0-70-32.4-70-69.6v-257.732h70v118.132l426-246.8c6.8-4.8 16.4-4.8 23.2-4.8 6.8-2.4 16.4 0 23.2 4.8l412 237.2v-595.6h-437.068v-70h437.068c39.6 0 70 32.4 70 70v744.8c-0.4 39.6-30.8 69.6-70.4 69.6zM1226.4 752.8h-0.4l-435.2-251.2-448.8 260.4v58.4h884.4v-67.6z" />
<glyph unicode="&#xe92c;" glyph-name="sent" d="M495.6 448l4.8 4.8 2.4-2.4 14 16.4 342 286.4-44.4 53.6-314-262.8-193.2 162.4-44.4-53.6 211.6-179.2 21.2-25.6zM954 960h-884c-39.6 0-70-30.4-70-70v-884.4c0-39.6 30.4-70 70-70h884.4c39.6 0 70 30.4 70 70v884.4c-0.4 39.6-30.8 70-70.4 70zM954 6h-884v302.4h221.2l51.2-121.2c9.2-23.2 39.6-42 65.2-42h209.6c25.6 0 56 18.8 65.2 42l51.2 121.2h221.2v-302.4zM954 376h-279.2l-34.8-118.8c-6.8-25.6-32.4-44.4-58-44.4h-139.6c-25.6 0-51.2 20.8-58 44.4l-35.2 118.8-279.2 2.4v512h884.4v-514.4h-0.4z" />
<glyph unicode="&#xe92d;" glyph-name="settings" d="M323.2 865.6l90.8-104.4 31.6 6c22.8 4.4 44.4 6.4 66 6.4 23.2 0 45.2-2 65.2-6.4l32-6.8 91.2 104.8 78.4-45.2-34.4-100.4-10.4-30.8 21.6-24.4c29.6-33.6 51.6-71.6 65.6-113.6l10.4-31.2 32-6.4 104.4-20.4v-90l-136.8-26.8-10.4-31.2c-13.6-41.6-35.6-80-65.6-113.6l-21.6-24.4 10.4-30.8 34.4-100.4-78-45.2-90.8 104.4-31.6-6c-22.8-4.4-44.4-6.4-66-6.4-23.2 0-45.2 2-65.2 6.4l-32 6.8-91.2-104.8-78 45.2 34.4 100.4 10.4 30.8-21.6 24.4c-29.6 33.6-51.6 71.6-65.6 113.6l-10.4 31.2-32 6.4-104.4 20v90l136.4 26.8 10.4 31.2c13.6 41.6 35.6 80 65.6 113.6l21.6 24.4-10.4 30.8-34.8 100.4 78.4 45.6zM512 187.2c144 0 260.8 116.8 260.8 260.8s-116.8 260.8-260.8 260.8-260.8-116.8-260.8-260.8 116.8-260.8 260.8-260.8zM688.8 937.2l-100-114.8c-24.8 5.2-50.4 7.6-76.8 7.6s-52-2.8-76.8-7.6l-100 114.8-158.4-91.6 49.2-144c-34-38.4-60.4-83.2-76.8-133.2l-149.2-29.2v-182.4l149.6-29.2c16.4-49.6 42.8-94.8 76.8-133.2l-49.2-144 158-91.2 100 114.8c24.8-5.2 50.4-7.6 76.8-7.6s52 2.8 76.8 7.6l100-114.8 158 91.2-49.2 144c34 38.4 60.4 83.2 76.8 133.2l149.6 29.2v182.4l-149.6 29.2c-16.4 49.6-42.8 94.8-76.8 133.2l49.2 144-158 91.6zM512 243.2c-112.8 0-204.8 92-204.8 204.8s92 204.8 204.8 204.8 204.8-92 204.8-204.8-92-204.8-204.8-204.8v0z" />
<glyph unicode="&#xe92e;" glyph-name="spam" d="M488.8 850.4c39.6-288.4 167.6-323.6 225.6-323.6 62.8 0 123.2 34.8 174.4 102.4 67.6-95.6 86-235.2 42-360.8-60.4-167.6-204.8-262.8-400.4-262.8h-20.8c-248.8 9.2-358.4 142-404.8 256-34.8 86-39.6 176.8-30.4 248.8 48.8-65.2 109.2-123.2 167.6-123.2 37.2 0 83.6 23.2 95.6 88.4 2.4 16.4 4.8 34.8 6.8 56 11.6 100.4 28 235.2 144.4 318.8zM549.2 960c-270-98-260.4-358.4-279.2-474.8-2.4-20.8-11.6-30.4-25.6-30.4-46.4 0-139.6 116.4-176.8 209.6-137.2-144.4-100-709.6 439.6-728.4h23.2c521.2 0 616.8 588.8 346.8 807.6-46.4-93.2-107.2-146.4-162.8-146.4-81.2-0.4-153.6 109.2-165.2 362.8v0z" />
<glyph unicode="&#xe92f;" glyph-name="tag" d="M950 463.6v0l-290 398.8c-9.6 13.2-38.4 27.6-54.4 27.6h-535.6c0 0 0 0 0 0v-884c0-0.4 0 0 0 0h535.6c16 0 44.8 14.4 54.4 27.6l290 398.8c4.8 6.8 4.8 24.4 0 31.2v0zM1006.4 504.4c22.8-31.2 22.8-82 0-113.2l-290-398.8c-22.8-31.2-72.4-56.4-110.8-56.4h-535.6c-38.4 0-69.6 31.2-69.6 70v884c0 38.8 31.2 70 69.6 70h535.6c38.4 0 88-25.2 110.8-56.4l290-399.2zM489.2 448c0-38.4 31.2-70 70-70 38.4 0 70 31.2 70 70s-31.2 70-70 70c-38.8 0-70-31.6-70-70zM419.2 448c0 77.2 62.4 139.6 139.6 139.6s139.6-62.4 139.6-139.6-62.4-139.6-139.6-139.6-139.6 62.4-139.6 139.6z" />
<glyph unicode="&#xe930;" glyph-name="tag-solid" d="M1006.4 504.4l-290 399.2c-22.8 31.2-72.4 56.4-110.8 56.4h-535.6c-38.4 0-69.6-31.2-69.6-70v-884c0-38.8 31.2-70 69.6-70h535.6c38.4 0 88 25.2 110.8 56.4l290 398.8c22.8 31.2 22.8 82 0 113.2zM558.8 308.4c-77.2 0-139.6 62.4-139.6 139.6s62.4 139.6 139.6 139.6c77.2 0 139.6-62.4 139.6-139.6s-62.4-139.6-139.6-139.6z" />
<glyph unicode="&#xe931;" glyph-name="unread" d="M954 890h-884c-39.6 0-70-32.4-70-69.6v-744.8c0-39.6 30.4-70 70-70h884.4c39.6 0 70 32.4 70 70v744.8c-0.4 39.6-30.8 69.6-70.4 69.6zM954 75.6h-884v605.2l426-246.8c6.8-4.8 16.4-4.8 23.2-4.8 6.8-2.4 16.4 0 23.2 4.8l412 237.2v-595.6zM954 752.8l-435.2-251.2-448.8 260.4v58.4h884.4v-67.6h-0.4z" />
<glyph unicode="&#xe932;" glyph-name="write" d="M954 480.4v-474.8h-884v884.4h498l69.6 70h-568c-39.2 0-69.6-30.4-69.6-70v-884.4c0-39.6 30.4-70 70-70h884.4c39.6 0 70 30.4 70 70v544.8l-70.4-70zM314 238.4l14-14 162.8 32.4 528.4 526.4c0 0-16.4 51.2-32.4 67.6l-48.8 48.8c-14 14-67.6 32.4-67.6 32.4l-526-528.4-30.4-165.2zM409.6 368.8l477.2 479.6c0 0 2.4 0 2.4-2.4l44.4-44.4c0 0 0-2.4 2.4-2.4l-477.6-479.2-60.4-11.6 11.6 60.4z" />
<glyph unicode="&#xe933;" glyph-name="download" d="M0 64h1024v-128h-1024v128zM512 128l320 320h-192v512h-256v-512h-192z" />
<glyph unicode="&#xe934;" glyph-name="incoming-desk" d="M512 256l256 320h-192v384h-128v-384h-192l256-320zM704 960v-256h192v-640h-768v640h192v256h-320v-1024h1024v1024h-320z" />
<glyph unicode="&#xe935;" glyph-name="spam-desk" d="M875.6 744c-45.6-91.2-108-148-164.8-148-79.6 0-153.6 108-164.8 364-267.2-96.8-256-358.4-278.8-472 0-22.8-11.2-34-22.8-34-45.6 0-142.4 113.6-176.4 210.4-136.4-142.4-102.4-711.2 438-728 5.6 0 17.2 0 22.8 0 523.2-0.4 620 591.2 346.8 807.6zM886.8 283.2c-51.2-148-182-233.2-358.4-233.2-5.6 0-11.2 0-17.2 0-227.6 5.6-324.4 125.2-364 227.6-17.2 40-28.4 79.6-34 119.6 40-34 79.6-56.8 125.2-56.8 56.8 0 125.2 40 136.4 125.2 0 17.2 5.6 34 5.6 56.8 17.2 91.2 34 176.4 79.6 238.8 56.8-244.8 193.6-278.8 256-278.8 56.8 0 113.6 22.8 164.8 74 34.4-80 40.4-182.4 6-273.2z" />
<glyph unicode="&#xe936;" glyph-name="draft-desk" d="M128 960v-1024h768v704l-320 320h-448zM256 832h256v-256h256v-512h-512v768z" />
<glyph unicode="&#xe937;" glyph-name="bin-desk" d="M682.8 562h-113.6v-398h113.6v398zM785.2 789.6l-45.6 170.8h-455.2l-45.6-170.8h-238.8v-113.6h113.6v-682.8c0-34 22.8-56.8 56.8-56.8h682.8c34 0 56.8 22.8 56.8 56.8v682.8h114v113.6h-238.8zM369.6 846.8h278.8l17.2-56.8h-307.2l11.2 56.8zM796.4 50h-568.8v626h568.8v-626zM455.2 562h-114v-398h113.6l0.4 398z" />
<glyph unicode="&#xe938;" glyph-name="sent-desk" d="M1024 448l-418.4-412.8-90.8 90.8 327.2 321.6-327.2 321.6 90.8 90.8 418.4-412zM672.8 448l-418-412.8-90.8 90.8 261.6 257.2h-425.6v128.8h425.6l-262 257.6 90.8 90.8 418.4-412.4z" />
<glyph unicode="&#xe939;" glyph-name="unread-solid-desk" d="M921.6 857.6h-819.2c-56.4 0-102.4-46-102.4-102.4v-614.4c0-56.4 46-102.4 102.4-102.4h818.8c56.4 0 102.4 46.4 102.4 102.4v614.4c0.4 56.4-45.6 102.4-102 102.4v0zM921.6 652.8l-409.6-256-409.6 256v102.4l409.6-256 409.6 256v-102.4z" />
<glyph unicode="&#xe93a;" glyph-name="important-desk" d="M1024 128h-1024v640h1024l-260-318.4z" />
<glyph unicode="&#xe93b;" glyph-name="attach-desk" d="M914 277.6l-389.2 389.2c-27.2 28-60.4 42.4-100 42.4-36.8 0-67.6-12.8-93.2-38-25.6-25.6-38.4-56.4-38.4-93.2 0-39.2 14-72.8 42.4-100l274.8-274.8c4.4-4.4 9.2-6.8 14.8-6.8 7.2 0 17.6 6.8 31.6 20.8s20.8 24.4 20.8 31.6c0 5.2-2.4 10.4-6.8 14.8l-274.8 274.8c-11.2 12-16.8 25.2-16.8 39.6 0 12.8 4.4 23.6 12.8 32s19.2 12.8 32 12.8c15.2 0 28.4-5.2 40.4-16l389.2-389.2c28-28 42.4-60.4 42.4-97.2 0-28.8-9.2-52.4-28-71.2s-42.4-28-71.2-28c-36.8 0-69.2 14-97.2 42.4l-520 520.4c-34 34-50.8 74.4-50.8 121.2 0 47.2 16.4 87.6 48.8 121.2 32.8 33.6 72.4 50.4 120 50.4 45.6 0 86-17.2 121.2-51.6l406-406.8c4.4-4.4 9.6-6.8 15.6-6.8 7.2 0 17.6 6.8 31.2 20.4s20.4 24 20.4 31.2c0 5.2-2.4 10.4-6.8 14.8l-405.2 406.4c-51.6 50.4-112.4 75.6-183.2 75.6s-131.2-24.8-180.4-74.4c-48.8-49.6-73.6-110-73.6-180.8 0-69.6 25.2-130.4 75.6-181.6l520.8-520c44.8-44.8 97.2-67.2 157.6-67.2 52.4 0 96 17.6 131.2 52.8s52.8 79.2 52.8 131.2c0.4 61.6-22 114-66.8 157.6v0z" />
<glyph unicode="&#xe93c;" glyph-name="archive2" d="M739.6 448.4h-455.2v-113.6h455.2v113.6zM967.2 960.4h-910.4c-34 0-56.8-22.8-56.8-56.8v-341.2h56.8v-568.8c0-34 22.8-56.8 56.8-56.8h796.4c34 0 56.8 28.4 56.8 56.8v568.4h57.2v341.6c0 34-22.8 56.8-56.8 56.8zM853.2 50h-682.4v512h682.8l-0.4-512zM910.4 676h-796.8v170.8h796.4l0.4-170.8z" />
<glyph unicode="&#xe93d;" glyph-name="bin-solid" d="M372 752.4c6 25.2 17.2 72 27.6 79.6l227.2 1.2c10.8-8.8 22-56 28.4-81.6 3.6-14.8 7.6-30.8 12.4-47.2h-308.4c5.2 16.8 9.2 33.6 12.8 48v0zM805.2 704c-9.6 10.8-20 52-26 77.6-16.8 70.8-42.8 178.4-150.8 178.4h-229.2c-109.6 0-136.4-111.2-152-178-6-24.8-16.8-70.4-26-78h-157.2v-128h128v-511.2c0-71.2 56.8-128.8 128-128.8h383.2c71.2 0 128.8 57.6 128.8 128.8v511.2h128v128h-154.8z" />
<glyph unicode="&#xe93e;" glyph-name="folder2" d="M967.2 903.2h-398.4c0 34-28.4 56.8-56.8 56.8h-455.2c-28.4 0-56.8-22.8-56.8-56.8v-910.4c0-34 22.8-56.8 56.8-56.8h910.4c28.4 0 56.8 22.8 56.8 56.8v853.6c0 34-22.8 56.8-56.8 56.8zM910.4 49.6h-796.8v512h796.4l0.4-512zM910.4 675.6h-796.8v170.8h341.2v-56.8h455.2l0.4-114z" />
<glyph unicode="&#xe93f;" glyph-name="folder-star" d="M967.2 903.2h-398.4c0 34-28.4 56.8-56.8 56.8h-455.2c-28.4 0-56.8-22.8-56.8-56.8v-910.4c0-34 22.8-56.8 56.8-56.8h910.4c28.4 0 56.8 22.8 56.8 56.8v853.6c0 34-22.8 56.8-56.8 56.8zM910.4 49.6h-796.8v512h796.4v-512h0.4zM910.4 675.6h-796.8v170.8h341.2v-56.8h455.2v-114h0.4zM420.8 163.6l91.2 51.2 91.2-51.2-17.2 102.4 74 74-102.4 17.2-45.6 90.8-45.6-91.2-102.4-16.8 74-74-17.2-102.4z" />
<glyph unicode="&#xe940;" glyph-name="forward2" d="M68.4 351.6c62.4 96.8 204.8 244.8 398.4 244.8v90.8c5.6 22.8 28.4 45.6 51.2 45.6s34-17.2 45.6-28.4l204.8-210.4c17.2-17.2 28.4-22.8 28.4-45.6s-11.2-28.4-28.4-45.6l-204.8-210.4c-11.2-11.2-22.8-28.4-45.6-28.4-28.4 0-45.6 22.8-45.6 45.6v96.8h-91.2c-91.2-5.6-250.4-79.6-267.2-142.4v-113.6h796.4v796.4h-796.8v-227.6h-113.6v284.4c0 34 22.8 56.8 56.8 56.8h910.4c28.4 0 56.8-22.8 56.8-56.8v-910.4c0-28.4-22.8-56.8-56.8-56.8h-910.4c-28.4 0-56.8 28.4-56.8 56.8 0 0 0 164.8 0 216 0 40 45.6 108.4 68.4 142.4z" />
<glyph unicode="&#xe941;" glyph-name="full-screen2" d="M409.6 345.6c-22 22-66 22-87.6 0l-190-190v102.4c0 36.4-29.2 66-66 66v0c-36.8-7.6-66-29.6-66-66v-256c0-36.4 29.2-66 66-66h256c36.4 0 66 29.2 66 66v0c0 36.4-29.2 66-66 66h-102.4l190 190c22 21.6 22 58.4 0 87.6v0zM958 316.4v0c-36.4 0-66-29.2-66-66v-95.2l-190 190c-22 22-66 22-87.6 0v0c-22-22-22-66 0-87.6l190-190h-102.4c-36.4 0-66-29.2-66-66v0c0-36.4 29.2-66 66-66h256c36.4 0 66 29.2 66 66v256c0 36.8-29.2 58.8-66 58.8zM219.6 828.4h102.4c36.4 0 66 29.2 66 66v0c-7.6 36.4-29.6 65.6-66 65.6h-256c-36.8 0-66-29.2-66-66v-256c0-36.4 29.2-66 66-66v0c36.4 0 66 29.2 66 66v102.4l190-190c22-22 66-22 87.6 0v0c22 22 22 66 0 87.6l-190 190.4zM958 960h-256c-36.4 0-66-29.2-66-66v0c0-36.4 29.2-66 66-66h102.4l-190-182.8c-22-22-22-66 0-87.6v0c22-22 66-22 87.6 0l190 182.8v-102.4c0-36.4 29.2-66 66-66v0c36.4 0 66 29.2 66 66v256c0 36.8-29.2 66-66 66z" />
<glyph unicode="&#xe942;" glyph-name="pin2" d="M666.4 744l148-148c-108-91.2-210.4-278.8-250.4-432.4l-330 330c148 39.6 341.2 142 432.4 250.4zM603.6 960c-5.6 0-11.2 0-17.2-5.6l-17.2-17.2c-11.2-11.2-11.2-22.8 0-28.4l40-40c-5.6-5.6-5.6-11.2-11.2-17.2-51.2-102-341.2-261.2-483.6-261.2-5.6 0-17.2 0-22.8-5.6-11.2-5.6-22.8-17.2-28.4-34-5.6-11.2-5.6-28.4 0-45.6 0-5.6 5.6-11.2 11.2-17.2l193.6-193.6-267.2-358.4 358.4 273.2 193.6-193.6c5.6-5.6 11.2-11.2 17.2-11.2 5.6 0 11.2-5.6 22.8-5.6 5.6 0 17.2 0 22.8 5.6 17.2 5.6 28.4 17.2 34 34 0 5.6 5.6 11.2 5.6 22.8 0 142.4 153.6 432.4 261.6 483.6 5.6 0 11.2 5.6 17.2 11.2l40-40c0-11.2 5.6-17.2 11.2-17.2s11.2 0 17.2 5.6l17.2 17.2c5.6 11.2 5.6 28.4 0 34l-398.8 398.8c-5.6 5.6-11.2 5.6-17.2 5.6v0z" />
<glyph unicode="&#xe943;" glyph-name="read" d="M995.6 692.8l-443.6 256c-11.2 0-22.8 11.2-34 11.2-5.6 0-22.8-11.2-28.4-11.2l-449.6-262c-22.8-11.2-40-45.2-40-68v-625.6c0-34 22.8-56.8 56.8-56.8h910.4c28.4 0 56.8 28.4 56.8 56.8v625.6c0 28.4-5.6 62.4-28.4 74zM517.6 834.8l386.8-216-386.8-227.6-386.8 216 386.8 227.6zM910.4 38.4h-796.8v432.4l341.2-182c17.2-5.6 45.6-11.2 56.8-11.2s40 0 56.8 11.2l341.2 182 0.8-432.4z" />
<glyph unicode="&#xe944;" glyph-name="redirect" d="M967.2 903.2c-17.2 0-910.4 0-910.4 0-28.4 0-56.8-22.8-56.8-56.8 0-17.2 0-608.8 0-796.4 0-34 22.8-56.8 56.8-56.8h910.4c34 0 56.8 22.8 56.8 56.8v796.4c0 34-22.8 56.8-56.8 56.8zM836.4 516.4l74 45.6v-455.2h-796.8v454.8l102.4-62.4 40 96.8-142.4 79.6v113.6h796.4v-113.6l-119.6-62.4 46-96.8zM568.8 658.4c-17.2 11.2-62.4 22.8-79.6 5.6-17.2-11.2-17.2-56.8 0-74 0 0 40-45.6 79.6-85.2h-284.4v-113.6h284.4l-91.2-85.2c-17.2-11.2-11.2-56.8 5.6-68.4 17.2-11.2 56.8-17.2 74-5.6l159.2 159.2c17.2 11.2 17.2 91.2 0 108l-147.6 159.2z" />
<glyph unicode="&#xe945;" glyph-name="reply2" d="M1024 209.6c0-51.2 0-216 0-216 0-28.4-28.4-56.8-56.8-56.8h-910.4c-34 0-56.8 28.4-56.8 56.8v910c0 34 28.4 56.8 56.8 56.8h910.4c34 0 56.8-22.8 56.8-56.8v-284.4h-113.6v227.6h-796.8v-796.4h796.4v113.6c-17.2 62.4-176.4 136.4-267.2 142.4h-90.8v-96.8c0-22.8-17.2-45.6-45.6-45.6-22.8 0-34 17.2-45.6 28.4l-204.8 210.4c-17.2 17.2-28.4 22.8-28.4 45.6s11.2 28.4 28.4 45.6l204.8 210.4c11.2 11.2 22.8 28.4 45.6 28.4s45.6-22.8 51.2-45.6v-91.2c193.6 0 335.6-148 398.4-244.8 22.4-33.6 68-102 68-141.6z" />
<glyph unicode="&#xe946;" glyph-name="spam-solid" d="M710.8 596c-80 0-153.6 108-165.2 364-267.2-96.8-256-358.4-278.4-472 0-22.8-11.6-34-22.8-34-45.6 0-142.4 114-176.4 210.4-136.8-142.4-102.8-711.2 438-728.4h22.8c523.2 0 620 591.6 347.2 808-46-91.2-108.4-148-165.2-148v0z" />
<glyph unicode="&#xe947;" glyph-name="tag2" d="M512 619.2c-96.8 0-170.8-79.6-170.8-170.8s74-170.8 170.8-170.8 170.8 74 170.8 170.8-74 170.8-170.8 170.8zM512 391.6c-34 0-56.8 22.8-56.8 56.8 0 28.4 22.8 56.8 56.8 56.8s56.8-22.8 56.8-56.8-22.8-56.8-56.8-56.8zM978.4 642l-420.8 307.2c-11.2 5.6-28.4 11.2-45.6 11.2s-34-5.6-45.6-11.2l-420.8-307.2c-22.8-17.2-45.6-57.2-45.6-91.2v-557.6c0-28.4 22.8-56.8 56.8-56.8h910.4c28.4 0 56.8 22.8 56.8 56.8v557.6c0 34-22.8 74-45.6 91.2zM910.4 50h-796.8v506.4l398.4 284.4 398.4-284.4v-506.4z" />
</font>
</defs>
</svg>
