<?xml version="1.0" encoding="utf-8"?>
<!-- Generator: Adobe Illustrator 16.2.0, SVG Export Plug-In . SVG Version: 6.00 Build 0)  -->
<!DOCTYPE svg PUBLIC "-//W3C//DTD SVG 1.1//EN" "http://www.w3.org/Graphics/SVG/1.1/DTD/svg11.dtd">
<svg version="1.1" id="Слой_1" xmlns="http://www.w3.org/2000/svg" xmlns:xlink="http://www.w3.org/1999/xlink" x="0px" y="0px"
	 width="98px" height="28px" viewBox="0 0 98 28" enable-background="new 0 0 98 28" xml:space="preserve">
<g>
	<path fill="#FF0000" d="M31.999,8c0-4.553-3.612-8-7.999-8H0v23c0,2.762,2.238,5,5,5h26.999V8z"/>
	<path fill="#333333" d="M51.241,5c-0.979,0-1.674,0.787-1.674,1.549v0.592c-1.53-1.311-3.515-2.135-5.663-2.135
		C39.178,5,35,9.008,35,14.014C35,18.615,38.977,23,43.904,23c1.986,0,4.13-0.773,5.651-2.076l0.009,0.424
		c0,0.822,0.641,1.652,1.687,1.652c1.208,0,1.748-0.953,1.748-1.725V6.643C53.005,5.953,52.257,5,51.241,5L51.241,5z M43.893,19.67
		c-3.109,0-5.635-2.535-5.635-5.676c0-3.135,2.525-5.672,5.635-5.672c3.121,0,5.647,2.537,5.647,5.672
		C49.537,17.135,47.009,19.67,43.893,19.67L43.893,19.67z"/>
	<g>
		<path fill="#333333" d="M59.999,21c0,1.105-0.896,2-2,2l0,0c-1.104,0-2-0.895-2-2V7c0-1.104,0.896-2,2-2l0,0c1.104,0,2,0.896,2,2
			V21z"/>
		<circle fill="#333333" cx="57.999" cy="2" r="2"/>
	</g>
	<g>
		<path fill="#333333" d="M98,21c0,1.105-0.896,2-2,2l0,0c-1.104,0-2-0.895-2-2V7c0-1.104,0.896-2,2-2l0,0c1.104,0,2,0.896,2,2V21z"
			/>
		<circle fill="#333333" cx="96" cy="2" r="2"/>
	</g>
	<path fill="#333333" d="M66.999,21c0,1.105-0.896,2-2,2l0,0c-1.104,0-2-0.895-2-2V2c0-1.104,0.896-2,2-2l0,0c1.104,0,2,0.896,2,2
		V21z"/>
	<circle fill="#333333" cx="72" cy="21" r="2"/>
	<path fill="#FFFFFF" d="M18.488,13.809v6.559c0,0.877-0.201,1.535-0.6,1.975S16.962,23,16.308,23c-0.636,0-1.149-0.219-1.544-0.658
		s-0.59-1.098-0.59-1.975v-7.662c0-1.051-0.037-1.869-0.108-2.451s-0.267-1.059-0.583-1.432c-0.318-0.373-0.82-0.559-1.506-0.559
		c-1.371,0-2.275,0.469-2.709,1.408c-0.436,0.939-0.652,2.289-0.652,4.045v6.65c0,0.867-0.198,1.523-0.592,1.967
		C7.629,22.777,7.109,23,6.465,23c-0.635,0-1.154-0.223-1.559-0.666c-0.405-0.443-0.607-1.1-0.607-1.967V7.406
		c0-0.787,0.182-1.385,0.546-1.793C5.207,5.205,5.687,5,6.281,5c0.572,0,1.051,0.191,1.436,0.574C8.1,5.957,8.292,6.486,8.292,7.16
		v0.398c0.727-0.867,1.505-1.506,2.333-1.914c0.83-0.408,1.752-0.613,2.766-0.613c1.053,0,1.959,0.209,2.717,0.629
		c0.758,0.418,1.383,1.051,1.873,1.898c0.707-0.857,1.464-1.492,2.273-1.906c0.809-0.414,1.704-0.621,2.688-0.621
		c1.146,0,2.134,0.225,2.963,0.674c0.828,0.449,1.447,1.094,1.857,1.93c0.358,0.756,0.537,1.945,0.537,3.57v9.162
		c0,0.877-0.199,1.535-0.598,1.975C27.301,22.781,26.773,23,26.119,23c-0.636,0-1.154-0.223-1.559-0.666
		c-0.405-0.443-0.606-1.1-0.606-1.967v-8.029c0-0.898-0.038-1.619-0.114-2.16c-0.078-0.541-0.285-0.996-0.623-1.363
		s-0.85-0.551-1.535-0.551c-0.553,0-1.078,0.162-1.574,0.49c-0.496,0.326-0.883,0.766-1.159,1.316
		C18.642,10.775,18.488,12.021,18.488,13.809z"/>
	<path fill="#333333" d="M91,17.211c0,1.221-0.294,2.268-0.881,3.139c-0.589,0.869-1.456,1.529-2.604,1.979
		C86.366,22.775,84.97,23,83.325,23c-1.571,0-2.918-0.244-4.04-0.729c-1.121-0.488-1.949-1.096-2.483-1.826
		C76.268,19.717,76,18.984,76,18.248c0-0.486,0.171-0.902,0.514-1.248c0.342-0.346,0.773-0.52,1.298-0.52
		c0.458,0,0.812,0.115,1.057,0.342c0.247,0.227,0.481,0.545,0.706,0.957c0.448,0.789,0.984,1.377,1.61,1.766
		c0.625,0.391,1.477,0.584,2.557,0.584c0.875,0,1.594-0.197,2.154-0.592c0.562-0.393,0.842-0.846,0.842-1.354
		c0-0.777-0.291-1.346-0.874-1.703c-0.581-0.357-1.541-0.697-2.876-1.021c-1.506-0.377-2.732-0.775-3.677-1.191
		c-0.946-0.416-1.703-0.965-2.269-1.646c-0.566-0.68-0.849-1.518-0.849-2.514c0-0.887,0.262-1.723,0.785-2.514
		c0.523-0.787,1.295-1.418,2.314-1.889C80.313,5.234,81.545,5,82.987,5c1.133,0,2.15,0.119,3.054,0.357
		c0.902,0.236,1.654,0.557,2.259,0.955c0.604,0.4,1.063,0.844,1.378,1.332c0.315,0.484,0.473,0.961,0.473,1.426
		c0,0.508-0.169,0.924-0.504,1.248c-0.337,0.324-0.814,0.488-1.435,0.488c-0.45,0-0.832-0.131-1.146-0.391s-0.676-0.648-1.082-1.168
		c-0.331-0.432-0.721-0.777-1.169-1.037c-0.449-0.26-1.058-0.389-1.827-0.389c-0.791,0-1.448,0.17-1.971,0.51
		c-0.523,0.342-0.786,0.766-0.786,1.273c0,0.465,0.193,0.846,0.577,1.143c0.385,0.297,0.902,0.543,1.555,0.738
		c0.651,0.195,1.55,0.434,2.692,0.713c1.356,0.336,2.465,0.736,3.325,1.201s1.512,1.014,1.955,1.645C90.778,15.68,91,16.4,91,17.211
		z"/>
</g>
</svg>
