<?xml version="1.0" encoding="utf-8"?>
<!-- Generator: Adobe Illustrator 16.2.0, SVG Export Plug-In . SVG Version: 6.00 Build 0)  -->
<!DOCTYPE svg PUBLIC "-//W3C//DTD SVG 1.1//EN" "http://www.w3.org/Graphics/SVG/1.1/DTD/svg11.dtd">
<svg version="1.1" id="Слой_1" xmlns="http://www.w3.org/2000/svg" xmlns:xlink="http://www.w3.org/1999/xlink" x="0px" y="0px"
	 width="110px" height="28px" viewBox="0 0 110 28" enable-background="new 0 0 110 28" xml:space="preserve">
<g>
	<path fill="#FFFFFF" d="M51.242,4.999c-0.98,0-1.674,0.787-1.674,1.55V7.14c-1.531-1.31-3.515-2.134-5.664-2.134
		C39.178,4.999,35,9.007,35,14.014c0,4.602,3.977,8.985,8.904,8.985c1.986,0,4.131-0.773,5.652-2.076l0.008,0.424
		c0,0.822,0.641,1.652,1.688,1.652c1.207,0,1.748-0.952,1.748-1.725V6.643C53.006,5.953,52.258,4.999,51.242,4.999L51.242,4.999z
		 M43.893,19.67c-3.109,0-5.635-2.536-5.635-5.676c0-3.135,2.525-5.673,5.635-5.673c3.121,0,5.648,2.538,5.648,5.673
		C49.537,17.134,47.01,19.67,43.893,19.67L43.893,19.67z"/>
	<g>
		<path fill="#FFFFFF" d="M60,20.999c0,1.105-0.896,2-2,2l0,0c-1.105,0-2-0.895-2-2v-14c0-1.103,0.895-2,2-2l0,0
			c1.104,0,2,0.897,2,2V20.999z"/>
		<circle fill="#FFFFFF" cx="58" cy="1.999" r="2"/>
	</g>
	<path fill="#FFFFFF" d="M67,20.999c0,1.105-0.896,2-2,2l0,0c-1.105,0-2-0.895-2-2v-19c0-1.104,0.895-2,2-2l0,0c1.104,0,2,0.896,2,2
		V20.999z"/>
	<circle fill="#FFFFFF" cx="71.999" cy="20.999" r="2.001"/>
	<path fill="#FFFFFF" d="M32,28H5c-2.762,0-5-2.238-5-5.001V0h24c4.387,0,8,3.448,8,8V28z M18.949,10.069
		c0.276-0.551,0.662-0.989,1.158-1.315c0.496-0.328,1.021-0.49,1.574-0.49c0.686,0,1.197,0.183,1.536,0.551
		c0.337,0.366,0.544,0.822,0.622,1.362c0.076,0.541,0.115,1.263,0.115,2.161v8.028c0,0.868,0.201,1.523,0.605,1.967
		c0.404,0.444,0.924,0.666,1.56,0.666c0.653,0,1.182-0.219,1.581-0.657c0.399-0.44,0.599-1.099,0.599-1.976v-9.162
		c0-1.625-0.179-2.814-0.538-3.569c-0.409-0.837-1.028-1.481-1.857-1.93c-0.828-0.45-1.816-0.674-2.963-0.674
		c-0.982,0-1.879,0.206-2.688,0.62S18.688,6.7,17.98,7.559c-0.49-0.849-1.115-1.481-1.873-1.899
		c-0.758-0.42-1.663-0.628-2.717-0.628c-1.014,0-1.936,0.204-2.765,0.613C9.797,6.053,9.02,6.69,8.293,7.559V7.159
		c0-0.673-0.193-1.202-0.576-1.586C7.333,5.191,6.854,4.999,6.281,4.999c-0.594,0-1.074,0.206-1.436,0.614
		C4.481,6.021,4.3,6.618,4.3,7.405v12.961c0,0.868,0.202,1.523,0.606,1.967c0.404,0.444,0.924,0.666,1.559,0.666
		c0.646,0,1.164-0.222,1.559-0.666c0.395-0.443,0.592-1.099,0.592-1.967v-6.65c0-1.756,0.217-3.105,0.652-4.044
		c0.435-0.94,1.338-1.408,2.71-1.408c0.685,0,1.188,0.186,1.505,0.559c0.316,0.373,0.512,0.85,0.584,1.432
		c0.07,0.582,0.107,1.4,0.107,2.45v7.662c0,0.877,0.195,1.535,0.591,1.976c0.394,0.438,0.907,0.657,1.544,0.657
		c0.654,0,1.182-0.219,1.581-0.657c0.398-0.44,0.599-1.099,0.599-1.976v-6.559C18.488,12.021,18.643,10.775,18.949,10.069z"/>
	<path fill="#FFFFFF" d="M91.277,17.21c0,1.222-0.299,2.269-0.893,3.139c-0.596,0.87-1.473,1.529-2.635,1.979
		c-1.162,0.447-2.576,0.672-4.24,0.672c-1.59,0-2.951-0.243-4.088-0.729c-1.135-0.487-1.973-1.095-2.512-1.825
		c-0.541-0.729-0.813-1.462-0.813-2.197c0-0.486,0.174-0.903,0.52-1.249s0.783-0.519,1.314-0.519c0.463,0,0.82,0.114,1.068,0.341
		c0.25,0.227,0.488,0.546,0.715,0.957c0.453,0.789,0.996,1.378,1.629,1.767c0.633,0.39,1.494,0.584,2.588,0.584
		c0.885,0,1.613-0.197,2.18-0.592c0.568-0.394,0.852-0.846,0.852-1.354c0-0.777-0.295-1.345-0.885-1.702
		c-0.588-0.357-1.559-0.697-2.91-1.021c-1.523-0.378-2.764-0.776-3.721-1.191c-0.957-0.417-1.723-0.966-2.295-1.646
		s-0.859-1.519-0.859-2.514c0-0.887,0.266-1.724,0.795-2.514c0.529-0.788,1.311-1.418,2.342-1.889
		c1.033-0.471,2.279-0.706,3.738-0.706c1.146,0,2.176,0.12,3.09,0.357s1.676,0.558,2.287,0.956c0.609,0.4,1.074,0.844,1.395,1.331
		c0.318,0.485,0.479,0.962,0.479,1.427c0,0.508-0.172,0.924-0.512,1.248s-0.824,0.487-1.451,0.487c-0.455,0-0.842-0.131-1.16-0.391
		c-0.318-0.259-0.684-0.648-1.094-1.167c-0.336-0.432-0.73-0.777-1.184-1.037c-0.455-0.26-1.07-0.39-1.85-0.39
		c-0.799,0-1.465,0.17-1.994,0.511s-0.795,0.766-0.795,1.272c0,0.465,0.195,0.846,0.584,1.144c0.389,0.297,0.914,0.543,1.574,0.738
		c0.658,0.194,1.566,0.433,2.723,0.713c1.373,0.336,2.494,0.735,3.365,1.201c0.871,0.464,1.529,1.013,1.979,1.645
		C91.053,15.679,91.277,16.399,91.277,17.21z"/>
	<path fill="#FFFFFF" d="M104.869,20.982l-3.889-6.389l-2.387,2.259v3.501c0,0.85-0.223,1.503-0.67,1.96
		c-0.445,0.457-0.959,0.686-1.541,0.686c-0.678,0-1.209-0.226-1.598-0.677c-0.387-0.452-0.58-1.119-0.58-2.001V3
		c0-0.978,0.188-1.724,0.564-2.233C95.146,0.255,95.684,0,96.383,0c0.678,0,1.217,0.232,1.613,0.694
		c0.398,0.463,0.598,1.145,0.598,2.05v9.221l4.953-5.195c0.613-0.646,1.082-1.087,1.404-1.323c0.322-0.237,0.715-0.355,1.178-0.355
		c0.549,0,1.006,0.175,1.371,0.525c0.365,0.349,0.549,0.787,0.549,1.314c0,0.645-0.598,1.505-1.791,2.581l-2.34,2.146l4.518,7.099
		c0.334,0.527,0.572,0.929,0.719,1.203c0.145,0.272,0.217,0.534,0.217,0.781c0,0.7-0.191,1.251-0.572,1.654
		c-0.383,0.402-0.885,0.604-1.508,0.604c-0.539,0-0.953-0.145-1.242-0.435C105.758,22.273,105.365,21.747,104.869,20.982z"/>
</g>
</svg>
