<?xml version="1.0" encoding="utf-8"?>
<!-- Generator: Adobe Illustrator 21.0.2, SVG Export Plug-In . SVG Version: 6.00 Build 0)  -->
<svg version="1.1" id="Layer_1" xmlns="http://www.w3.org/2000/svg" xmlns:xlink="http://www.w3.org/1999/xlink" x="0px" y="0px"
	 viewBox="0 0 42 42" style="enable-background:new 0 0 42 42;" xml:space="preserve">
<style type="text/css">
	.st0{fill:#FFFFFF;}
</style>
<path class="st0" d="M21.4,0C9.8-0.2,0.2,9,0,20.6c-0.1,6.6,2.8,12.5,7.5,16.4c0.3-0.3,0.6-0.5,1-0.7l6.3-3.4
	c0.8-0.4,1.3-1.3,1.3-2.2v-2.6c0,0-1.8-2.2-2.5-5.3c-0.6-0.4-1-1-1-1.8v-2.8c0-0.6,0.3-1.2,0.7-1.6v-4.1c0,0-0.8-6.3,7.7-6.3
	c8.6,0,7.7,6.3,7.7,6.3v4.1c0.4,0.4,0.7,0.9,0.7,1.6v2.8c0,0.9-0.6,1.7-1.5,2c-0.5,1.5-1.2,2.9-2.1,4.2c-0.2,0.3-0.4,0.6-0.6,0.8
	v2.6c0,1,0.5,1.9,1.4,2.3l6.7,3.4c0.4,0.2,0.8,0.5,1.1,0.7c4.5-3.8,7.4-9.4,7.6-15.8C42.2,9.8,33,0.2,21.4,0L21.4,0z M21.4,0"/>
</svg>
