<?xml version="1.0" encoding="utf-8"?>
<!-- Generator: Adobe Illustrator 19.2.1, SVG Export Plug-In . SVG Version: 6.00 Build 0)  -->
<svg version="1.1" id="Layer_1" xmlns="http://www.w3.org/2000/svg" xmlns:xlink="http://www.w3.org/1999/xlink" x="0px" y="0px"
	 viewBox="0 0 256 256" style="enable-background:new 0 0 256 256;" xml:space="preserve">
<style type="text/css">
	.st0{fill:#F9CA32;}
	.st1{fill:#E0B52A;}
	.st2{fill:#DC412A;}
</style>
<title>Unknown-20</title>
<desc>Created with Sketch.</desc>
<g id="Page-1_1_">
	<g id="passport-home-copy" transform="translate(-153.000000, -872.000000)">
		<g id="Group-9" transform="translate(139.000000, 109.000000)">
			<g id="Group-16">
				<g id="Group-8" transform="translate(0.000000, 18.000000)">
					<g id="Group-11" transform="translate(14.000000, 743.000000)">
						<g id="Unknown-20" transform="translate(0.000000, 1.000000)">
							<g id="Page-1" transform="translate(0.000000, 1.000000)">
								<polygon id="Fill-1" class="st0" points="0,48 256,48 256,16 0,16 								"/>
								<polygon id="Fill-2" class="st0" points="0,144 256,144 256,112 0,112 								"/>
								<polygon id="Fill-3" class="st0" points="0,240 256,240 256,208 0,208 								"/>
								<g id="Group-10" transform="translate(2.000000, 0.000000)">
									<path id="Fill-4" class="st1" d="M190,32c0,17.7-14.3,32-32,32s-32-14.3-32-32s14.3-32,32-32S190,14.3,190,32"/>
									<path id="Fill-6" class="st2" d="M94,128c0,17.7-14.3,32-32,32s-32-14.3-32-32s14.3-32,32-32S94,110.3,94,128"/>
									<path id="Fill-8" class="st1" d="M222,224c0,17.7-14.3,32-32,32s-32-14.3-32-32s14.3-32,32-32S222,206.3,222,224"/>
								</g>
							</g>
						</g>
					</g>
				</g>
			</g>
		</g>
	</g>
</g>
</svg>
