<?xml version="1.0" encoding="utf-8"?>
<!-- Generator: Adobe Illustrator 16.2.0, SVG Export Plug-In . SVG Version: 6.00 Build 0)  -->
<!DOCTYPE svg PUBLIC "-//W3C//DTD SVG 1.1//EN" "http://www.w3.org/Graphics/SVG/1.1/DTD/svg11.dtd">
<svg version="1.1" id="Слой_1" xmlns="http://www.w3.org/2000/svg" xmlns:xlink="http://www.w3.org/1999/xlink" x="0px" y="0px"
	 width="109px" height="28px" viewBox="0 0 109 28" enable-background="new 0 0 109 28" xml:space="preserve">
<g>
	<path fill="#FFFFFF" d="M51.242,5c-0.979,0-1.674,0.786-1.674,1.549v0.59c-1.531-1.31-3.515-2.133-5.664-2.133
		C39.179,5,35,9.008,35,14.013C35,18.615,38.978,23,43.904,23c1.987,0,4.131-0.773,5.652-2.076l0.009,0.424
		c0,0.821,0.641,1.652,1.687,1.652C52.46,23,53,22.047,53,21.275V6.642C53.006,5.952,52.258,5,51.242,5L51.242,5z M43.893,19.67
		c-3.108,0-5.634-2.537-5.634-5.676c0-3.135,2.525-5.673,5.634-5.673c3.122,0,5.648,2.539,5.648,5.673
		C49.538,17.133,47.01,19.67,43.893,19.67L43.893,19.67z"/>
	<path fill="#FFFFFF" d="M91,17.551c0,0.552-0.158,1.141-0.474,1.768c-0.315,0.628-0.796,1.225-1.441,1.793
		c-0.646,0.566-1.46,1.023-2.441,1.369C85.66,22.826,84.555,23,83.325,23c-2.615,0-4.657-0.797-6.124-2.393
		C75.733,19.014,75,16.876,75,14.195c0-1.816,0.335-3.422,1.008-4.816c0.672-1.395,1.644-2.473,2.914-3.235
		C80.194,5.381,81.713,5,83.48,5c1.095,0,2.101,0.168,3.016,0.503c0.915,0.335,1.689,0.768,2.326,1.297
		c0.636,0.53,1.12,1.095,1.457,1.695c0.335,0.6,0.503,1.16,0.503,1.678c0,0.53-0.188,0.979-0.565,1.346
		c-0.378,0.368-0.835,0.551-1.372,0.551c-0.352,0-0.643-0.094-0.876-0.284c-0.232-0.189-0.494-0.495-0.783-0.917
		c-0.517-0.821-1.057-1.438-1.619-1.849c-0.564-0.41-1.279-0.616-2.147-0.616c-1.251,0-2.259,0.511-3.023,1.533
		c-0.766,1.021-1.147,2.419-1.147,4.192c0,0.833,0.098,1.597,0.294,2.294s0.481,1.293,0.854,1.784
		c0.372,0.492,0.821,0.865,1.349,1.119c0.527,0.255,1.106,0.381,1.736,0.381c0.847,0,1.574-0.205,2.178-0.616
		c0.605-0.41,1.141-1.037,1.605-1.881c0.258-0.497,0.537-0.887,0.837-1.168c0.299-0.28,0.667-0.422,1.102-0.422
		c0.516,0,0.944,0.206,1.286,0.617C90.829,16.648,91,17.086,91,17.551z"/>
	<path fill="#FFFFFF" d="M106.249,9.903l-8.284,9.484h8.864c0.719,0,1.259,0.173,1.623,0.518c0.365,0.345,0.548,0.788,0.548,1.331
		c0,0.521-0.181,0.945-0.538,1.272c-0.359,0.328-0.904,0.492-1.633,0.492H94.568c-0.862,0-1.506-0.191-1.931-0.577
		C92.212,22.039,92,21.514,92,20.846c0-0.396,0.149-0.795,0.447-1.196s0.917-1.14,1.856-2.214c0.993-1.131,1.896-2.154,2.708-3.07
		c0.812-0.917,1.566-1.773,2.263-2.571c0.695-0.797,1.272-1.473,1.731-2.027c0.457-0.554,0.825-1.029,1.102-1.425H95.38
		c-0.928,0-1.63-0.084-2.104-0.254c-0.475-0.169-0.712-0.616-0.712-1.34c0-0.532,0.179-0.956,0.538-1.272
		C93.46,5.159,93.972,5,94.635,5h10.389c0.962,0,1.699,0.144,2.211,0.433c0.515,0.289,0.771,0.806,0.771,1.552
		c0,0.249-0.049,0.506-0.147,0.772c-0.101,0.266-0.211,0.484-0.332,0.653c-0.122,0.169-0.288,0.376-0.498,0.619
		C106.817,9.272,106.559,9.563,106.249,9.903z"/>
	<g>
		<path fill="#FFFFFF" d="M60,21c0,1.104-0.896,2-2,2l0,0c-1.104,0-2-0.896-2-2V7c0-1.104,0.896-2,2-2l0,0c1.104,0,2,0.896,2,2V21z"
			/>
		<circle fill="#FFFFFF" cx="58" cy="2" r="2"/>
	</g>
	<path fill="#FFFFFF" d="M67,21c0,1.104-0.896,2-2,2l0,0c-1.104,0-2-0.896-2-2V2c0-1.104,0.896-2,2-2l0,0c1.104,0,2,0.896,2,2V21z"
		/>
	<circle fill="#FFFFFF" cx="72" cy="21" r="2"/>
	<path fill="#FF0000" d="M32,8c0-4.553-3.613-8-8-8H0v23c0,2.762,2.238,5,5,5h27V8z"/>
	<path fill="#FFFFFF" d="M18.488,13.808v6.558c0,0.879-0.199,1.537-0.599,1.977C17.49,22.78,16.963,23,16.309,23
		c-0.636,0-1.15-0.22-1.544-0.658c-0.395-0.439-0.591-1.098-0.591-1.977v-7.661c0-1.051-0.037-1.869-0.107-2.451
		c-0.072-0.582-0.268-1.059-0.584-1.432c-0.317-0.372-0.819-0.559-1.504-0.559c-1.373,0-2.276,0.47-2.711,1.409
		c-0.436,0.939-0.652,2.288-0.652,4.043v6.65c0,0.869-0.197,1.524-0.592,1.969C7.629,22.777,7.11,23,6.465,23
		c-0.635,0-1.154-0.223-1.559-0.666c-0.404-0.444-0.605-1.1-0.605-1.969V7.405c0-0.786,0.181-1.383,0.545-1.792
		C5.208,5.205,5.688,5,6.281,5c0.572,0,1.052,0.191,1.436,0.574S8.293,6.486,8.293,7.16v0.398C9.02,6.69,9.797,6.052,10.627,5.644
		c0.828-0.408,1.75-0.613,2.764-0.613c1.054,0,1.959,0.209,2.718,0.628c0.757,0.419,1.382,1.052,1.873,1.899
		c0.706-0.858,1.464-1.493,2.272-1.907c0.809-0.414,1.705-0.62,2.688-0.62c1.146,0,2.135,0.225,2.963,0.674
		c0.83,0.449,1.449,1.093,1.858,1.93c0.358,0.756,0.538,1.945,0.538,3.569v9.162c0,0.879-0.2,1.537-0.6,1.977
		C27.303,22.78,26.774,23,26.12,23c-0.636,0-1.155-0.223-1.559-0.666c-0.405-0.444-0.606-1.1-0.606-1.969v-8.028
		c0-0.898-0.039-1.618-0.115-2.16c-0.077-0.541-0.284-0.996-0.622-1.363c-0.338-0.367-0.851-0.551-1.536-0.551
		c-0.553,0-1.077,0.164-1.573,0.49c-0.497,0.327-0.883,0.766-1.159,1.317C18.643,10.775,18.488,12.021,18.488,13.808z"/>
</g>
</svg>
