<?xml version="1.0" encoding="utf-8"?>
<!-- Generator: Adobe Illustrator 16.2.0, SVG Export Plug-In . SVG Version: 6.00 Build 0)  -->
<!DOCTYPE svg PUBLIC "-//W3C//DTD SVG 1.1//EN" "http://www.w3.org/Graphics/SVG/1.1/DTD/svg11.dtd">
<svg version="1.1" id="Слой_1" xmlns="http://www.w3.org/2000/svg" xmlns:xlink="http://www.w3.org/1999/xlink" x="0px" y="0px"
	 width="100px" height="28px" viewBox="0 0 100 28" enable-background="new 0 0 100 28" xml:space="preserve">
<g>
	<path fill="#FF0000" d="M32,8c0-4.553-3.613-8-8-8H0v22.999C0,25.762,2.238,28,5,28h27V8z"/>
	<path fill="#333333" d="M51.242,4.999c-0.98,0-1.674,0.787-1.674,1.55V7.14c-1.531-1.31-3.515-2.134-5.664-2.134
		C39.178,4.999,35,9.007,35,14.014c0,4.602,3.977,8.985,8.904,8.985c1.986,0,4.131-0.773,5.652-2.076l0.008,0.424
		c0,0.822,0.641,1.652,1.688,1.652c1.207,0,1.748-0.952,1.748-1.725V6.643C53.006,5.953,52.258,4.999,51.242,4.999L51.242,4.999z
		 M43.893,19.67c-3.109,0-5.635-2.536-5.635-5.676c0-3.135,2.525-5.673,5.635-5.673c3.121,0,5.648,2.538,5.648,5.673
		C49.537,17.134,47.01,19.67,43.893,19.67L43.893,19.67z"/>
	<g>
		<path fill="#333333" d="M60,20.999c0,1.105-0.896,2-2,2l0,0c-1.105,0-2-0.895-2-2v-14c0-1.103,0.895-2,2-2l0,0
			c1.104,0,2,0.897,2,2V20.999z"/>
		<circle fill="#333333" cx="58" cy="1.999" r="2"/>
	</g>
	<path fill="#333333" d="M67,20.999c0,1.105-0.896,2-2,2l0,0c-1.105,0-2-0.895-2-2v-19C63,0.896,63.895,0,65,0l0,0
		c1.104,0,2,0.896,2,1.999V20.999z"/>
	<path fill="#333333" d="M91.242,4.999c-0.98,0-1.674,0.787-1.674,1.55V7.14c-1.531-1.31-3.515-2.134-5.664-2.134
		C79.178,4.999,75,9.007,75,14.014c0,4.602,3.977,8.985,8.904,8.985c1.986,0,4.131-0.773,5.652-2.076l0.008,0.424
		c0,0.822,0.641,1.652,1.688,1.652c1.207,0,1.748-0.952,1.748-1.725V6.643C93.006,5.953,92.258,4.999,91.242,4.999L91.242,4.999z
		 M83.893,19.67c-3.109,0-5.635-2.536-5.635-5.676c0-3.135,2.525-5.673,5.635-5.673c3.121,0,5.648,2.538,5.648,5.673
		C89.537,17.134,87.01,19.67,83.893,19.67L83.893,19.67z"/>
	<path fill="#333333" d="M100,20.999c0,1.105-0.896,2-2,2l0,0c-1.105,0-2-0.895-2-2v-19C96,0.896,96.895,0,98,0l0,0
		c1.104,0,2,0.896,2,1.999V20.999z"/>
	<circle fill="#333333" cx="71.999" cy="20.999" r="2.001"/>
	<path fill="#FFFFFF" d="M18.488,13.808v6.559c0,0.877-0.2,1.535-0.599,1.976c-0.399,0.438-0.927,0.657-1.581,0.657
		c-0.637,0-1.15-0.219-1.544-0.657c-0.396-0.44-0.591-1.099-0.591-1.976v-7.662c0-1.05-0.037-1.868-0.107-2.45
		c-0.072-0.582-0.268-1.059-0.584-1.432c-0.317-0.373-0.82-0.559-1.505-0.559c-1.372,0-2.275,0.468-2.71,1.408
		c-0.436,0.938-0.652,2.288-0.652,4.044v6.65c0,0.868-0.197,1.523-0.592,1.967c-0.395,0.444-0.913,0.666-1.559,0.666
		c-0.635,0-1.154-0.222-1.559-0.666C4.502,21.89,4.3,21.234,4.3,20.366V7.405c0-0.787,0.182-1.385,0.546-1.792
		c0.361-0.408,0.842-0.614,1.436-0.614c0.572,0,1.052,0.192,1.436,0.574C8.1,5.957,8.293,6.486,8.293,7.159v0.399
		C9.02,6.69,9.797,6.053,10.626,5.645c0.829-0.409,1.751-0.613,2.765-0.613c1.054,0,1.959,0.208,2.717,0.628
		c0.758,0.418,1.383,1.051,1.873,1.899c0.707-0.858,1.465-1.493,2.273-1.907s1.705-0.62,2.688-0.62c1.146,0,2.135,0.224,2.963,0.674
		c0.829,0.448,1.448,1.093,1.857,1.93C28.121,8.39,28.3,9.579,28.3,11.204v9.162c0,0.877-0.199,1.535-0.599,1.976
		c-0.399,0.438-0.928,0.657-1.581,0.657c-0.636,0-1.155-0.222-1.56-0.666c-0.404-0.443-0.605-1.099-0.605-1.967v-8.028
		c0-0.898-0.039-1.62-0.115-2.161c-0.078-0.54-0.285-0.996-0.622-1.362c-0.339-0.368-0.851-0.551-1.536-0.551
		c-0.553,0-1.078,0.162-1.574,0.49c-0.496,0.326-0.882,0.765-1.158,1.315C18.643,10.775,18.488,12.021,18.488,13.808z"/>
</g>
</svg>
