<?xml version="1.0" encoding="utf-8"?>
<!-- Generator: Adobe Illustrator 16.2.0, SVG Export Plug-In . SVG Version: 6.00 Build 0)  -->
<!DOCTYPE svg PUBLIC "-//W3C//DTD SVG 1.1//EN" "http://www.w3.org/Graphics/SVG/1.1/DTD/svg11.dtd">
<svg version="1.1" id="Слой_1" xmlns="http://www.w3.org/2000/svg" xmlns:xlink="http://www.w3.org/1999/xlink" x="0px" y="0px"
	 width="110px" height="28px" viewBox="0 0 110 28" enable-background="new 0 0 110 28" xml:space="preserve">
<g>
	<path fill="#FF0000" d="M32,8c0-4.553-3.613-8-8-8H0v23c0,2.762,2.238,5,5,5h27V8z"/>
	<path fill="#FFFFFF" d="M51.242,5c-0.98,0-1.674,0.787-1.674,1.55V7.14c-1.531-1.31-3.515-2.134-5.664-2.134
		C39.178,5,35,9.007,35,14.014C35,18.615,38.977,23,43.904,23c1.986,0,4.131-0.773,5.652-2.076l0.008,0.424
		c0,0.822,0.641,1.652,1.688,1.652C52.459,23,53,22.047,53,21.275V6.643C53.006,5.954,52.258,5,51.242,5L51.242,5z M43.893,19.67
		c-3.109,0-5.635-2.535-5.635-5.675c0-3.135,2.525-5.673,5.635-5.673c3.121,0,5.648,2.538,5.648,5.673
		C49.537,17.135,47.01,19.67,43.893,19.67L43.893,19.67z"/>
	<g>
		<path fill="#FFFFFF" d="M60,21c0,1.105-0.896,2-2,2l0,0c-1.105,0-2-0.895-2-2V7c0-1.103,0.895-2,2-2l0,0c1.104,0,2,0.897,2,2V21z"
			/>
		<circle fill="#FFFFFF" cx="58" cy="2" r="2"/>
	</g>
	<path fill="#FFFFFF" d="M67,21c0,1.105-0.896,2-2,2l0,0c-1.105,0-2-0.895-2-2V2c0-1.104,0.895-2,2-2l0,0c1.104,0,2,0.896,2,2V21z"
		/>
	<circle fill="#FFFFFF" cx="71.999" cy="21" r="2.001"/>
	<path fill="#FFFFFF" d="M18.488,13.808v6.559c0,0.877-0.2,1.535-0.599,1.975C17.49,22.781,16.963,23,16.309,23
		c-0.637,0-1.15-0.219-1.544-0.658c-0.396-0.439-0.591-1.098-0.591-1.975v-7.663c0-1.05-0.037-1.868-0.107-2.45
		c-0.072-0.582-0.268-1.059-0.584-1.432c-0.317-0.373-0.82-0.559-1.505-0.559c-1.372,0-2.275,0.468-2.71,1.408
		c-0.436,0.938-0.652,2.288-0.652,4.044v6.651c0,0.867-0.197,1.523-0.592,1.967S7.11,23,6.465,23c-0.635,0-1.154-0.223-1.559-0.666
		S4.3,21.234,4.3,20.367V7.406c0-0.787,0.182-1.385,0.546-1.792C5.207,5.206,5.688,5,6.281,5c0.572,0,1.052,0.192,1.436,0.574
		C8.1,5.958,8.293,6.487,8.293,7.16v0.399c0.727-0.868,1.504-1.506,2.333-1.914c0.829-0.409,1.751-0.613,2.765-0.613
		c1.054,0,1.959,0.208,2.717,0.628c0.758,0.418,1.383,1.051,1.873,1.899c0.707-0.858,1.465-1.493,2.273-1.907s1.705-0.62,2.688-0.62
		c1.146,0,2.135,0.224,2.963,0.674c0.829,0.448,1.448,1.093,1.857,1.93C28.121,8.39,28.3,9.58,28.3,11.205v9.163
		c0,0.877-0.199,1.535-0.599,1.975S26.773,23,26.12,23c-0.636,0-1.155-0.223-1.56-0.666s-0.605-1.1-0.605-1.967v-8.029
		c0-0.898-0.039-1.62-0.115-2.161c-0.078-0.54-0.285-0.996-0.622-1.362c-0.339-0.368-0.851-0.551-1.536-0.551
		c-0.553,0-1.078,0.162-1.574,0.49c-0.496,0.326-0.882,0.765-1.158,1.315C18.643,10.776,18.488,12.022,18.488,13.808z"/>
	<path fill="#FFFFFF" d="M91.277,17.211c0,1.221-0.299,2.268-0.893,3.139c-0.596,0.869-1.473,1.529-2.635,1.979
		C86.588,22.775,85.174,23,83.51,23c-1.59,0-2.951-0.244-4.088-0.729c-1.135-0.488-1.973-1.096-2.512-1.826
		c-0.541-0.729-0.813-1.461-0.813-2.197c0-0.486,0.174-0.902,0.52-1.248s0.783-0.52,1.314-0.52c0.463,0,0.82,0.115,1.068,0.342
		c0.25,0.227,0.488,0.545,0.715,0.957c0.453,0.789,0.996,1.377,1.629,1.766c0.633,0.391,1.494,0.584,2.588,0.584
		c0.885,0,1.613-0.197,2.18-0.592c0.568-0.393,0.852-0.846,0.852-1.354c0-0.777-0.295-1.346-0.885-1.703
		c-0.588-0.357-1.559-0.697-2.91-1.021c-1.523-0.377-2.764-0.776-3.721-1.191c-0.957-0.417-1.723-0.966-2.295-1.646
		s-0.859-1.519-0.859-2.514c0-0.887,0.266-1.724,0.795-2.514c0.529-0.788,1.311-1.418,2.342-1.889C80.463,5.235,81.709,5,83.168,5
		c1.146,0,2.176,0.12,3.09,0.357s1.676,0.558,2.287,0.956c0.609,0.4,1.074,0.844,1.395,1.331c0.318,0.485,0.479,0.962,0.479,1.427
		c0,0.508-0.172,0.924-0.512,1.248s-0.824,0.487-1.451,0.487c-0.455,0-0.842-0.131-1.16-0.391c-0.318-0.259-0.684-0.648-1.094-1.167
		c-0.336-0.432-0.73-0.777-1.184-1.037c-0.455-0.26-1.07-0.39-1.85-0.39c-0.799,0-1.465,0.17-1.994,0.511s-0.795,0.766-0.795,1.272
		c0,0.465,0.195,0.846,0.584,1.144c0.389,0.297,0.914,0.543,1.574,0.738c0.658,0.194,1.566,0.433,2.723,0.713
		c1.373,0.336,2.494,0.735,3.365,1.201c0.871,0.464,1.529,1.013,1.979,1.644C91.053,15.68,91.277,16.4,91.277,17.211z"/>
	<path fill="#FFFFFF" d="M104.869,20.982l-3.889-6.388l-2.387,2.259v3.5c0,0.85-0.223,1.504-0.67,1.961
		C97.479,22.771,96.965,23,96.383,23c-0.678,0-1.209-0.227-1.598-0.678c-0.387-0.451-0.58-1.119-0.58-2V3
		c0-0.978,0.188-1.724,0.564-2.233C95.146,0.256,95.684,0,96.383,0c0.678,0,1.217,0.232,1.613,0.694
		c0.398,0.463,0.598,1.145,0.598,2.05v9.221l4.953-5.195c0.613-0.646,1.082-1.087,1.404-1.323c0.322-0.237,0.715-0.355,1.178-0.355
		c0.549,0,1.006,0.175,1.371,0.525c0.365,0.349,0.549,0.787,0.549,1.314c0,0.645-0.598,1.505-1.791,2.581l-2.34,2.146l4.518,7.098
		c0.334,0.527,0.572,0.93,0.719,1.203c0.145,0.273,0.217,0.535,0.217,0.781c0,0.701-0.191,1.252-0.572,1.654
		c-0.383,0.402-0.885,0.605-1.508,0.605c-0.539,0-0.953-0.145-1.242-0.436C105.758,22.273,105.365,21.748,104.869,20.982z"/>
</g>
</svg>
