<?xml version="1.0" encoding="utf-8"?>
<!-- Generator: Adobe Illustrator 16.2.0, SVG Export Plug-In . SVG Version: 6.00 Build 0)  -->
<!DOCTYPE svg PUBLIC "-//W3C//DTD SVG 1.1//EN" "http://www.w3.org/Graphics/SVG/1.1/DTD/svg11.dtd">
<svg version="1.1" id="Слой_1" xmlns="http://www.w3.org/2000/svg" xmlns:xlink="http://www.w3.org/1999/xlink" x="0px" y="0px"
	 width="110px" height="28px" viewBox="0 0 110 28" enable-background="new 0 0 110 28" xml:space="preserve">
<g>
	<path fill="#FF0000" d="M32,8c0-4.553-3.612-8-8-8H0v23C0,25.762,2.239,28,5,28h27V8z"/>
	<path fill="#333333" d="M51.242,4.999c-0.979,0-1.674,0.787-1.674,1.55V7.14c-1.53-1.31-3.514-2.134-5.664-2.134
		C39.178,4.999,35,9.007,35,14.014c0,4.602,3.977,8.985,8.904,8.985c1.987,0,4.13-0.773,5.652-2.076l0.009,0.424
		c0,0.822,0.641,1.652,1.687,1.652c1.208,0,1.748-0.952,1.748-1.725V6.643C53.005,5.953,52.257,4.999,51.242,4.999L51.242,4.999z
		 M43.893,19.67c-3.109,0-5.635-2.536-5.635-5.676c0-3.135,2.525-5.673,5.635-5.673c3.121,0,5.647,2.538,5.647,5.673
		C49.538,17.134,47.009,19.67,43.893,19.67L43.893,19.67z"/>
	<g>
		<path fill="#333333" d="M60,20.999c0,1.105-0.896,2-2,2l0,0c-1.105,0-2-0.895-2-2v-14c0-1.103,0.895-2,2-2l0,0
			c1.104,0,2,0.897,2,2V20.999z"/>
		<circle fill="#333333" cx="58" cy="1.999" r="2"/>
	</g>
	<path fill="#333333" d="M67,20.999c0,1.105-0.896,2-2,2l0,0c-1.105,0-2-0.895-2-2v-19c0-1.104,0.895-2,2-2l0,0c1.104,0,2,0.896,2,2
		V20.999z"/>
	<circle fill="#333333" cx="71.999" cy="20.999" r="2.001"/>
	<path fill="#FFFFFF" d="M18.488,13.808v6.559c0,0.877-0.2,1.535-0.599,1.976c-0.399,0.438-0.927,0.657-1.582,0.657
		c-0.636,0-1.15-0.219-1.543-0.657c-0.395-0.44-0.591-1.099-0.591-1.976v-7.662c0-1.05-0.037-1.868-0.108-2.45
		c-0.072-0.582-0.267-1.059-0.583-1.432c-0.317-0.373-0.82-0.559-1.505-0.559c-1.372,0-2.275,0.468-2.71,1.408
		c-0.436,0.938-0.652,2.288-0.652,4.044v6.65c0,0.868-0.198,1.523-0.591,1.967c-0.395,0.444-0.914,0.666-1.559,0.666
		c-0.635,0-1.155-0.222-1.559-0.666C4.501,21.89,4.3,21.234,4.3,20.366V7.405c0-0.787,0.182-1.385,0.545-1.792
		c0.362-0.408,0.842-0.614,1.436-0.614c0.573,0,1.052,0.192,1.436,0.574C8.1,5.957,8.292,6.486,8.292,7.159v0.399
		c0.727-0.868,1.504-1.506,2.333-1.914c0.83-0.409,1.751-0.613,2.765-0.613c1.054,0,1.959,0.208,2.717,0.628
		c0.757,0.418,1.382,1.051,1.873,1.899c0.707-0.858,1.464-1.493,2.273-1.907c0.809-0.414,1.705-0.62,2.688-0.62
		c1.146,0,2.134,0.224,2.963,0.674c0.829,0.448,1.448,1.093,1.858,1.93C28.121,8.39,28.3,9.579,28.3,11.204v9.162
		c0,0.877-0.199,1.535-0.599,1.976c-0.399,0.438-0.928,0.657-1.581,0.657c-0.636,0-1.155-0.222-1.559-0.666
		c-0.405-0.443-0.606-1.099-0.606-1.967v-8.028c0-0.898-0.038-1.62-0.115-2.161c-0.078-0.54-0.285-0.996-0.622-1.362
		c-0.338-0.368-0.851-0.551-1.536-0.551c-0.553,0-1.078,0.162-1.574,0.49c-0.497,0.326-0.882,0.765-1.159,1.315
		C18.642,10.775,18.488,12.021,18.488,13.808z"/>
	<path fill="#333333" d="M91.277,17.21c0,1.222-0.299,2.269-0.893,3.139c-0.596,0.87-1.473,1.529-2.635,1.979
		c-1.162,0.447-2.576,0.672-4.24,0.672c-1.59,0-2.951-0.243-4.088-0.729c-1.135-0.487-1.973-1.095-2.512-1.825
		c-0.541-0.729-0.813-1.462-0.813-2.197c0-0.486,0.174-0.903,0.52-1.249s0.783-0.519,1.314-0.519c0.463,0,0.82,0.114,1.068,0.341
		c0.25,0.227,0.488,0.546,0.715,0.957c0.453,0.789,0.996,1.378,1.629,1.767c0.633,0.39,1.494,0.584,2.588,0.584
		c0.885,0,1.613-0.197,2.18-0.592c0.568-0.394,0.852-0.846,0.852-1.354c0-0.777-0.295-1.345-0.885-1.702
		c-0.588-0.357-1.559-0.697-2.91-1.021c-1.523-0.378-2.764-0.776-3.721-1.191c-0.957-0.417-1.723-0.966-2.295-1.646
		s-0.859-1.519-0.859-2.514c0-0.887,0.266-1.724,0.795-2.514c0.529-0.788,1.311-1.418,2.342-1.889
		c1.033-0.471,2.279-0.706,3.738-0.706c1.146,0,2.176,0.12,3.09,0.357s1.676,0.558,2.287,0.956c0.609,0.4,1.074,0.844,1.395,1.331
		c0.318,0.485,0.479,0.962,0.479,1.427c0,0.508-0.172,0.924-0.512,1.248s-0.824,0.487-1.451,0.487c-0.455,0-0.842-0.131-1.16-0.391
		c-0.318-0.259-0.684-0.648-1.094-1.167c-0.336-0.432-0.73-0.777-1.184-1.037c-0.455-0.26-1.07-0.39-1.85-0.39
		c-0.799,0-1.465,0.17-1.994,0.511s-0.795,0.766-0.795,1.272c0,0.465,0.195,0.846,0.584,1.144c0.389,0.297,0.914,0.543,1.574,0.738
		c0.658,0.194,1.566,0.433,2.723,0.713c1.373,0.336,2.494,0.735,3.365,1.201c0.871,0.464,1.529,1.013,1.979,1.645
		C91.053,15.679,91.277,16.399,91.277,17.21z"/>
	<path fill="#333333" d="M104.869,20.982l-3.889-6.389l-2.387,2.259v3.501c0,0.85-0.223,1.503-0.67,1.96
		c-0.445,0.457-0.959,0.686-1.541,0.686c-0.678,0-1.209-0.226-1.598-0.677c-0.387-0.452-0.58-1.119-0.58-2.001V3
		c0-0.978,0.188-1.724,0.564-2.233C95.146,0.255,95.684,0,96.383,0c0.678,0,1.217,0.232,1.613,0.694
		c0.398,0.463,0.598,1.145,0.598,2.05v9.221l4.953-5.195c0.613-0.646,1.082-1.087,1.404-1.323c0.322-0.237,0.715-0.355,1.178-0.355
		c0.549,0,1.006,0.175,1.371,0.525c0.365,0.349,0.549,0.787,0.549,1.314c0,0.645-0.598,1.505-1.791,2.581l-2.34,2.146l4.518,7.099
		c0.334,0.527,0.572,0.929,0.719,1.203c0.145,0.272,0.217,0.534,0.217,0.781c0,0.7-0.191,1.251-0.572,1.654
		c-0.383,0.402-0.885,0.604-1.508,0.604c-0.539,0-0.953-0.145-1.242-0.435C105.758,22.273,105.365,21.747,104.869,20.982z"/>
</g>
</svg>
