<?xml version="1.0" encoding="utf-8"?>
<!-- Generator: Adobe Illustrator 16.2.0, SVG Export Plug-In . SVG Version: 6.00 Build 0)  -->
<!DOCTYPE svg PUBLIC "-//W3C//DTD SVG 1.1//EN" "http://www.w3.org/Graphics/SVG/1.1/DTD/svg11.dtd">
<svg version="1.1" id="Слой_1" xmlns="http://www.w3.org/2000/svg" xmlns:xlink="http://www.w3.org/1999/xlink" x="0px" y="0px"
	 width="109px" height="28px" viewBox="0 0 109 28" enable-background="new 0 0 109 28" xml:space="preserve">
<g>
	<path fill="#FFFFFF" d="M51.242,5c-0.979,0-1.674,0.786-1.674,1.549v0.59c-1.531-1.31-3.515-2.133-5.664-2.133
		C39.179,5,35,9.008,35,14.013C35,18.615,38.978,23,43.905,23c1.987,0,4.13-0.773,5.652-2.076l0.009,0.424
		c0,0.821,0.641,1.652,1.687,1.652C52.46,23,53,22.047,53,21.275V6.642C53.006,5.952,52.258,5,51.242,5L51.242,5z M43.893,19.67
		c-3.109,0-5.634-2.537-5.634-5.676c0-3.135,2.525-5.673,5.634-5.673c3.122,0,5.648,2.539,5.648,5.673
		C49.538,17.133,47.01,19.67,43.893,19.67L43.893,19.67z"/>
	<path fill="#FFFFFF" d="M91,17.551c0,0.552-0.158,1.141-0.473,1.768c-0.316,0.628-0.797,1.225-1.441,1.793
		c-0.646,0.566-1.461,1.023-2.441,1.369C85.66,22.826,84.555,23,83.326,23c-2.615,0-4.658-0.797-6.125-2.393
		C75.734,19.014,75,16.876,75,14.195c0-1.816,0.336-3.422,1.008-4.816s1.645-2.473,2.914-3.235C80.195,5.381,81.713,5,83.48,5
		c1.096,0,2.102,0.168,3.016,0.503c0.916,0.335,1.689,0.768,2.326,1.297c0.637,0.53,1.121,1.095,1.457,1.695s0.504,1.16,0.504,1.678
		c0,0.53-0.189,0.979-0.566,1.346s-0.834,0.551-1.371,0.551c-0.352,0-0.643-0.094-0.877-0.284c-0.232-0.189-0.494-0.495-0.783-0.917
		c-0.516-0.821-1.057-1.438-1.619-1.849c-0.564-0.41-1.279-0.616-2.146-0.616c-1.252,0-2.26,0.511-3.023,1.533
		c-0.766,1.021-1.148,2.419-1.148,4.192c0,0.833,0.098,1.597,0.295,2.294c0.195,0.697,0.48,1.293,0.854,1.784
		c0.371,0.492,0.82,0.865,1.348,1.119c0.527,0.255,1.107,0.381,1.736,0.381c0.848,0,1.574-0.205,2.178-0.616
		c0.605-0.41,1.141-1.037,1.605-1.881c0.258-0.497,0.537-0.887,0.838-1.168c0.299-0.28,0.666-0.422,1.102-0.422
		c0.516,0,0.943,0.206,1.285,0.617C90.83,16.648,91,17.086,91,17.551z"/>
	<path fill="#FFFFFF" d="M106.25,9.903l-8.285,9.484h8.865c0.719,0,1.258,0.173,1.623,0.518S109,20.692,109,21.235
		c0,0.521-0.18,0.945-0.537,1.272C108.104,22.836,107.559,23,106.83,23H94.568c-0.861,0-1.506-0.191-1.93-0.577
		C92.213,22.039,92,21.514,92,20.846c0-0.396,0.15-0.795,0.447-1.196c0.299-0.401,0.918-1.14,1.857-2.214
		c0.992-1.131,1.896-2.154,2.707-3.07c0.813-0.917,1.566-1.773,2.264-2.571c0.695-0.797,1.271-1.473,1.73-2.027
		c0.457-0.554,0.826-1.029,1.102-1.425h-6.727c-0.928,0-1.631-0.084-2.105-0.254c-0.475-0.169-0.711-0.616-0.711-1.34
		c0-0.532,0.178-0.956,0.537-1.272C93.461,5.159,93.973,5,94.635,5h10.389c0.963,0,1.699,0.144,2.211,0.433
		c0.516,0.289,0.771,0.806,0.771,1.552c0,0.249-0.049,0.506-0.148,0.772c-0.1,0.266-0.211,0.484-0.332,0.653
		s-0.287,0.376-0.498,0.619C106.818,9.272,106.559,9.563,106.25,9.903z"/>
	<g>
		<path fill="#FFFFFF" d="M60,21c0,1.104-0.895,2-2,2l0,0c-1.104,0-2-0.896-2-2V7c0-1.104,0.896-2,2-2l0,0c1.105,0,2,0.896,2,2V21z"
			/>
		<circle fill="#FFFFFF" cx="58" cy="2" r="2"/>
	</g>
	<path fill="#FFFFFF" d="M67,21c0,1.104-0.895,2-2,2l0,0c-1.104,0-2-0.896-2-2V2c0-1.104,0.896-2,2-2l0,0c1.105,0,2,0.896,2,2V21z"
		/>
	<circle fill="#FFFFFF" cx="72" cy="21" r="2"/>
	<path fill="#FFFFFF" d="M18.488,13.808v6.558c0,0.879-0.2,1.537-0.599,1.977C17.49,22.78,16.962,23,16.308,23
		c-0.635,0-1.15-0.22-1.543-0.658c-0.395-0.439-0.591-1.098-0.591-1.977v-7.661c0-1.051-0.037-1.869-0.108-2.451
		c-0.072-0.582-0.267-1.059-0.583-1.432c-0.317-0.372-0.819-0.559-1.504-0.559c-1.373,0-2.276,0.47-2.71,1.409
		c-0.436,0.939-0.652,2.288-0.652,4.043v6.65c0,0.869-0.198,1.524-0.591,1.969C7.629,22.777,7.11,23,6.465,23
		c-0.635,0-1.154-0.223-1.559-0.666C4.502,21.89,4.3,21.234,4.3,20.365V7.405c0-0.786,0.181-1.383,0.545-1.792
		C5.208,5.205,5.687,5,6.281,5c0.573,0,1.052,0.191,1.436,0.574S8.292,6.486,8.292,7.16v0.398c0.727-0.868,1.505-1.506,2.334-1.915
		c0.829-0.408,1.75-0.613,2.764-0.613c1.054,0,1.959,0.209,2.718,0.628c0.757,0.419,1.382,1.052,1.873,1.899
		c0.707-0.858,1.464-1.493,2.273-1.907c0.808-0.414,1.704-0.62,2.687-0.62c1.146,0,2.134,0.225,2.963,0.674
		c0.829,0.449,1.448,1.093,1.858,1.93C28.121,8.391,28.3,9.58,28.3,11.204v9.162c0,0.879-0.2,1.537-0.599,1.977
		C27.302,22.78,26.774,23,26.12,23c-0.636,0-1.155-0.223-1.559-0.666c-0.405-0.444-0.607-1.1-0.607-1.969v-8.028
		c0-0.898-0.038-1.618-0.115-2.16c-0.077-0.541-0.284-0.996-0.622-1.363c-0.338-0.367-0.85-0.551-1.536-0.551
		c-0.553,0-1.078,0.164-1.574,0.49c-0.497,0.327-0.883,0.766-1.159,1.317C18.642,10.775,18.488,12.021,18.488,13.808z M32,8
		c0-4.553-3.613-8-8-8H0v23c0,2.762,2.239,5,5,5h27V8z"/>
</g>
</svg>
