<?xml version="1.0" standalone="no"?>
<!DOCTYPE svg PUBLIC "-//W3C//DTD SVG 1.1//EN" "http://www.w3.org/Graphics/SVG/1.1/DTD/svg11.dtd" >
<svg xmlns="http://www.w3.org/2000/svg">
<metadata>Generated by IcoMoon</metadata>
<defs>
<font id="icons-font" horiz-adv-x="1024">
<font-face units-per-em="1024" ascent="960" descent="-64" />
<missing-glyph horiz-adv-x="1024" />
<glyph unicode="&#x20;" horiz-adv-x="512" d="" />
<glyph unicode="&#xe900;" glyph-name="account" d="M512 486.4c-128 0-236.8 108.8-236.8 236.8s108.8 236.8 236.8 236.8 236.8-108.8 236.8-236.8-108.8-236.8-236.8-236.8zM512 864c-76.8 0-140.8-64-140.8-140.8s64-140.8 140.8-140.8 140.8 64 140.8 140.8-64 140.8-140.8 140.8zM921.6-64h-819.2v185.6c0 230.4 192 300.8 294.4 307.2v0h192c262.4 0 326.4-204.8 326.4-307.2v-185.6zM198.4 32h627.2v89.6c0 19.2-6.4 211.2-230.4 211.2h-192c-25.6 0-204.8-19.2-204.8-211.2v-89.6z" />
<glyph unicode="&#xe901;" glyph-name="add-attachment" d="M396.8-6.4v684.8c0 0-6.4 108.8 70.4 192 57.6 57.6 147.2 89.6 256 89.6 96 0 172.8-32 224-89.6 83.2-89.6 76.8-211.2 76.8-217.6v-512c0-6.4 0-83.2-64-147.2-44.8-38.4-102.4-57.6-172.8-57.6-51.2 0-96 19.2-128 57.6-64 76.8-57.6 192-57.6 204.8v435.2h96v-441.6c0-25.6 0-102.4 32-140.8 12.8-12.8 32-25.6 57.6-25.6 44.8 0 83.2 6.4 102.4 32 32 32 32 76.8 32 76.8v518.4c0 6.4 6.4 89.6-51.2 153.6-32 38.4-83.2 57.6-153.6 57.6-76.8 0-140.8-19.2-179.2-57.6-44.8-51.2-44.8-121.6-44.8-121.6v-691.2h-96zM256 486.4h-89.6v89.6h-70.4v-89.6h-96v-76.8h96v-89.6h70.4v89.6h89.6z" />
<glyph unicode="&#xe902;" glyph-name="add-contact" d="M409.6 486.4c128 0 236.8 108.8 236.8 236.8s-102.4 236.8-236.8 236.8-236.8-108.8-236.8-236.8c0-128 108.8-236.8 236.8-236.8zM409.6 864c76.8 0 140.8-64 140.8-140.8s-64-140.8-140.8-140.8-140.8 64-140.8 140.8c0 76.8 64 140.8 140.8 140.8zM486.4 428.8h-192c-102.4-6.4-294.4-76.8-294.4-307.2v-185.6h819.2v185.6c0 108.8-70.4 307.2-332.8 307.2zM723.2 32h-627.2v89.6c0 192 179.2 211.2 204.8 211.2h185.6c224 0 230.4-192 230.4-211.2v-89.6zM921.6 595.2v108.8h-96v-108.8h-102.4v-96h102.4v-102.4h96v102.4h102.4v96z" />
<glyph unicode="&#xe903;" glyph-name="add-group" d="M947.2 556.8v76.8h-76.8v-76.8h-76.8v-76.8h76.8v-76.8h76.8v76.8h76.8v76.8zM563.2 467.2c102.4 0 185.6 83.2 185.6 185.6s-83.2 185.6-185.6 185.6c-96 0-179.2-83.2-179.2-185.6s83.2-185.6 179.2-185.6zM473.6 652.8c0 51.2 38.4 96 89.6 96s96-44.8 96-96-44.8-96-96-96c-51.2 0-89.6 44.8-89.6 96zM627.2 441.6h-153.6c-83.2-6.4-217.6-64-217.6-236.8v-147.2h627.2v147.2c-6.4 83.2-57.6 236.8-256 236.8zM339.2 147.2v57.6c0 134.4 128 147.2 140.8 147.2h140.8c160 0 166.4-134.4 166.4-147.2v-57.6h-448zM217.6 364.8c70.4 0 134.4 57.6 134.4 134.4s-64 134.4-134.4 134.4-134.4-64-134.4-134.4 57.6-134.4 134.4-134.4zM172.8 499.2c0 25.6 19.2 44.8 44.8 44.8 19.2 0 38.4-19.2 38.4-44.8s-19.2-44.8-44.8-44.8c-19.2 0-38.4 19.2-38.4 44.8zM166.4 243.2h64v6.4c0 38.4 12.8 57.6 25.6 70.4l12.8 12.8h-102.4c-64-6.4-166.4-51.2-166.4-166.4v-108.8h230.4v12.8c0 25.6 0 51.2 0 76.8v6.4h-134.4v19.2c0 51.2 57.6 64 70.4 70.4z" />
<glyph unicode="&#xe904;" glyph-name="add" d="M512 960c-281.6 0-512-230.4-512-512s230.4-512 512-512 512 230.4 512 512c0 281.6-230.4 512-512 512zM512 32c-230.4 0-416 185.6-416 416s185.6 416 416 416 416-185.6 416-416c0-230.4-185.6-416-416-416zM556.8 614.4h-96v-115.2h-115.2v-96h115.2v-121.6h96v121.6h115.2v96h-115.2z" />
<glyph unicode="&#xe905;" glyph-name="affix" d="M595.2-64l-486.4 492.8c0 0-83.2 70.4-89.6 185.6 0 83.2 38.4 166.4 115.2 243.2 70.4 70.4 147.2 102.4 224 102.4 121.6-6.4 204.8-96 211.2-102.4l371.2-364.8c6.4-6.4 64-64 64-147.2 0-57.6-25.6-115.2-83.2-166.4-38.4-32-83.2-51.2-128-51.2-102.4 6.4-185.6 96-192 102.4l-307.2 326.4 70.4 70.4 313.6-320c19.2-19.2 76.8-70.4 121.6-76.8 19.2 0 38.4 6.4 57.6 25.6 32 32 51.2 64 51.2 96 0 44.8-32 76.8-32 76.8l-377.6 358.4c0 6.4-64 70.4-140.8 70.4-51.2 6.4-102.4-19.2-153.6-64-57.6-64-89.6-121.6-83.2-172.8 0-70.4 57.6-115.2 57.6-115.2l492.8-499.2-76.8-70.4z" />
<glyph unicode="&#xe906;" glyph-name="align-c" d="M888.089 385.232v-62.595h-752.178v62.595h752.178zM10.721 197.101h1002.904v-62.595h-1002.904v62.595zM135.911 9.316h752.178v-62.595h-752.178v62.595zM10.721 573.363h1002.904v-62.595h-1002.904v62.595zM888.089 761.494v-62.595h-752.178v62.595h752.178zM1013.279 949.279v-62.595h-1002.559v62.595h1002.559z" />
<glyph unicode="&#xe907;" glyph-name="align-l" d="M762.899 322.637h-752.178v62.595h752.178v-62.595zM762.899 698.553h-752.178v62.941h752.178v-62.941zM10.721 9.316h752.178v-62.595h-752.178v62.595zM10.721 573.363h1002.904v-62.595h-1002.904v62.595zM1013.279 949.279v-62.595h-1002.559v62.595h1002.559zM10.721 197.101h1002.904v-62.595h-1002.904v62.595z" />
<glyph unicode="&#xe908;" glyph-name="align-r" d="M261.447 9.316h751.832v-62.595h-751.832v62.595zM261.447 385.232h751.832v-62.595h-751.832v62.595zM10.721 197.101h1002.904v-62.595h-1002.904v62.595zM1013.279 949.279v-62.595h-1002.559v62.595h1002.559zM10.721 573.363h1002.904v-62.595h-1002.904v62.595zM261.447 761.494h751.832v-62.595h-751.832v62.595z" />
<glyph unicode="&#xe909;" glyph-name="archive" d="M1024-64h-1024v838.4h1024v-838.4zM96 32h832v646.4h-832v-646.4zM396.8 582.4h236.8v-96h-236.8v96zM0 960h1024v-96h-1024v96z" />
<glyph unicode="&#xe90a;" glyph-name="arrow-down" d="M512 198.4l-512 435.2 57.6 64 454.4-384 454.4 384 57.6-64z" />
<glyph unicode="&#xe90b;" glyph-name="arrow-left" d="M262.4 448l435.2 512 64-57.6-384-454.4 384-454.4-64-57.6z" />
<glyph unicode="&#xe90c;" glyph-name="arrow-right" d="M761.6 448l-435.2-512-64 57.6 384 454.4-384 454.4 64 57.6z" />
<glyph unicode="&#xe90d;" glyph-name="arrow-up-2" d="M505.6 960v0 0 0l-384-384 64-64 275.2 268.8v-844.8h96v844.8c121.6-115.2 256-249.6 268.8-268.8l38.4 32 44.8 19.2c-6.4 12.8-12.8 19.2-352 352l-51.2 44.8z" />
<glyph unicode="&#xe90e;" glyph-name="arrow-up" d="M512 697.6l512-435.2-57.6-64-454.4 384-454.4-384-57.6 64z" />
<glyph unicode="&#xe90f;" glyph-name="arrow-bottom" d="M0 704h1024l-512-512z" />
<glyph unicode="&#xe910;" glyph-name="arrow-top" d="M1024 192h-1024l512 512z" />
<glyph unicode="&#xe911;" glyph-name="arrow-zero" d="M73.143 374.857h877.714l-438.857-438.857zM950.857 521.143h-877.714l438.857 438.857z" />
<glyph unicode="&#xe912;" glyph-name="back" d="M512-64c-281.6 0-512 230.4-512 512s230.4 512 512 512 512-230.4 512-512c0-281.6-230.4-512-512-512zM512 870.4c-230.4 0-422.4-192-422.4-422.4s185.6-422.4 422.4-422.4 422.4 185.6 422.4 422.4c0 230.4-192 422.4-422.4 422.4zM345.6 435.2c51.2 57.6 102.4 115.2 160 172.8 6.4-12.8 19.2-19.2 32-32-44.8-44.8-89.6-89.6-134.4-140.8 44.8-44.8 83.2-89.6 128-140.8-12.8-12.8-19.2-19.2-32-32-51.2 64-102.4 121.6-153.6 172.8zM460.8 435.2c51.2 57.6 108.8 115.2 160 172.8 12.8-12.8 19.2-19.2 32-32-44.8-44.8-83.2-96-128-140.8 44.8-44.8 83.2-89.6 128-140.8-12.8-12.8-19.2-19.2-32-32-51.2 64-108.8 121.6-160 172.8z" />
<glyph unicode="&#xe913;" glyph-name="background" d="M0 960v-1024h1024v1024h-1024zM934.4 25.6h-844.8v57.6l211.2 211.2 153.6-153.6 313.6 300.8 160-160v-256zM774.4 569.6l-313.6-300.8-153.6 153.6-217.6-211.2v659.2h838.4v-460.8l-153.6 160zM627.2 620.8c0-81.296-65.904-147.2-147.2-147.2s-147.2 65.904-147.2 147.2c0 81.296 65.904 147.2 147.2 147.2s147.2-65.904 147.2-147.2z" />
<glyph unicode="&#xe914;" glyph-name="ban" d="M512 960c-281.6 0-512-230.4-512-512s230.4-512 512-512 512 230.4 512 512-230.4 512-512 512zM96 448c0 96 32 185.6 89.6 256l582.4-582.4c-70.4-57.6-160-89.6-256-89.6-230.4 0-416 185.6-416 416zM838.4 192l-582.4 582.4c70.4 57.6 160 89.6 256 89.6 230.4 0 416-185.6 416-416 0-96-32-185.6-89.6-256z" />
<glyph unicode="&#xe915;" glyph-name="basket" d="M1011.2 774.4h-998.4v-96h108.8v-742.4h774.4v742.4h108.8v96zM806.4 32h-588.8v646.4h588.8v-646.4zM230.4 960h556.8v-96h-556.8v96zM371.2 569.6h96v-403.2h-96v403.2zM556.8 569.6h96v-403.2h-96v403.2z" />
<glyph unicode="&#xe916;" glyph-name="bold-en" d="M123.115-55.354h395.629c122.769 0 217.181 24.9 282.888 74.699 66.053 50.491 98.907 124.498 98.907 222.714 0 52.566-14.179 98.907-42.191 139.369-28.358 40.462-71.587 67.091-130.723 80.578 47.033 19.021 81.961 47.033 104.44 84.382s33.891 79.887 33.891 127.957c0 91.991-34.929 160.811-105.132 207.152-69.857 46.341-167.381 69.512-292.226 69.512h-345.483v-1006.363zM357.587 531.172v240.005h111.357c55.333 0 96.486-9.683 123.115-29.395s40.116-50.837 40.116-93.72c0-37.695-13.142-66.399-39.425-86.111s-66.053-29.741-118.965-30.779h-116.199zM357.587 376.586h174.298c48.070 0 82.653-11.067 104.095-33.545s32.162-55.333 32.162-99.253c0-40.462-12.45-70.549-37.35-90.261s-62.249-29.395-112.049-29.395h-161.156v252.455z" />
<glyph unicode="&#xe917;" glyph-name="bold" d="M1019.158 69.49c-53.258 0-98.215 0-151.473 0-82.999 105.824-158.736 211.993-234.472 317.817-22.479-22.479-38.041-45.649-60.52-75.737 0-83.345 0-158.736 0-242.080v0c-38.041 0-83.345 0-121.386 0v0c0 83.345 0 166.344 0 242.080-22.479 22.479-38.041 53.258-60.52 75.737-83.345-105.824-159.081-211.993-234.472-317.817-53.258 0-98.215 0-151.473 0 0 7.608 294.992 393.554 302.6 401.162l-280.122 355.858c53.258 0 98.215 0 151.473 0 7.262-7.608 264.905-348.25 272.513-355.858 0 113.778 0 234.472 0 355.858v0c38.041 0 83.345 0 121.386 0v0c0-113.778 0-234.472 0-355.858 7.262 7.608 264.905 348.25 272.513 355.858 53.258 0 98.215 0 151.473 0l-280.122-355.858c0-7.608 302.6-401.162 302.6-401.162z" />
<glyph unicode="&#xe918;" glyph-name="calendar" d="M761.6 896v64h-96v-64h-307.2v64h-96v-64h-230.4v-960h960v960h-230.4zM262.4 800v-121.6h96v121.6h307.2v-121.6h96v121.6h134.4v-211.2h-768v211.2h134.4zM128 32v460.8h768v-460.8h-768zM262.4 294.4h96v-96h-96v96zM665.6 294.4h96v-96h-96v96zM467.2 294.4h96v-96h-96v96z" />
<glyph unicode="&#xe919;" glyph-name="chat" d="M268.8-32l-121.6 160h-147.2v608h825.6v-608h-435.2l-121.6-160zM96 230.4h96l76.8-102.4 70.4 96h390.4v409.6h-633.6v-403.2zM198.4 928v-192h96v96h633.6v-409.6h-102.4v-96h198.4v601.6z" />
<glyph unicode="&#xe91a;" glyph-name="check-bg" d="M512 960c-281.6 0-512-230.4-512-512s230.4-512 512-512 512 230.4 512 512c0 281.6-230.4 512-512 512zM262.4 428.8c19.2 19.2 32 44.8 51.2 64 51.2-38.4 96-76.8 147.2-115.2 76.8 83.2 153.6 172.8 230.4 256 19.2-19.2 38.4-38.4 64-57.6-96-102.4-192-211.2-281.6-313.6-70.4 57.6-140.8 108.8-211.2 166.4z" />
<glyph unicode="&#xe91b;" glyph-name="check-box-mark" d="M416 307.2c-96 76.8-192 153.6-294.4 224-32-44.8-64-83.2-102.4-128 140.8-108.8 275.2-217.6 416-320 185.6 211.2 377.6 416 563.2 627.2-44.8 38.4-83.2 70.4-121.6 108.8-153.6-172.8-307.2-345.6-460.8-512z" />
<glyph unicode="&#xe91c;" glyph-name="check" d="M460.8 377.6c-51.2 38.4-96 76.8-147.2 115.2-19.2-19.2-32-44.8-51.2-64 70.4-57.6 140.8-108.8 211.2-160 96 102.4 192 211.2 281.6 313.6-19.2 19.2-38.4 38.4-64 57.6-76.8-89.6-153.6-172.8-230.4-262.4zM512 960c-281.6 0-512-230.4-512-512s230.4-512 512-512 512 230.4 512 512c0 281.6-230.4 512-512 512zM512 38.4c-230.4 0-409.6 185.6-409.6 409.6 0 230.4 185.6 409.6 409.6 409.6s409.6-185.6 409.6-409.6c0-230.4-179.2-409.6-409.6-409.6z" />
<glyph unicode="&#xe91d;" glyph-name="clear" d="M428.8 563.2c0 0-115.2-217.6-339.2-403.2 0 0 70.4-70.4 179.2-115.2 0 0 51.2 38.4 96 140.8 0 0-12.8-76.8-44.8-166.4 0 0 147.2-70.4 313.6-76.8 0 0 51.2 57.6 76.8 147.2 0 0-6.4-102.4-19.2-153.6h160c0 0 102.4 102.4 64 499.2l-486.4 128zM480 659.2l428.8-115.2c0 0 6.4 128-128 172.8l57.6 224-70.4 19.2-64-224c0 0-160 64-224-76.8z" />
<glyph unicode="&#xe91e;" glyph-name="close" d="M1024 889.6l-70.4 70.4-441.6-441.6-441.6 441.6-70.4-70.4 441.6-441.6-441.6-441.6 70.4-70.4 441.6 441.6 441.6-441.6 70.4 70.4-441.6 441.6z" />
<glyph unicode="&#xe91f;" glyph-name="collection-of-mail" d="M512 416l-256 294.4h140.8v249.6h230.4v-249.6h140.8l-256-294.4zM396.8 640l115.2-128 115.2 128h-64v249.6h-102.4v-249.6h-64zM1024-64h-1024v428.8h390.4l6.4-44.8c0-12.8 12.8-121.6 115.2-121.6 6.4 0 51.2 0 83.2 25.6 19.2 19.2 32 51.2 32 89.6v44.8h396.8v-422.4zM96 25.6h838.4v243.2h-217.6c-6.4-44.8-32-83.2-64-115.2-57.6-51.2-134.4-51.2-147.2-51.2 0 0 0 0 0 0-121.6 0-179.2 89.6-198.4 160h-211.2v-236.8z" />
<glyph unicode="&#xe920;" glyph-name="comment" d="M1024-64h-1024v1024h1024v-1024zM96 32h832v832h-832v-832zM704 716.8l-416-409.6-44.8-128 128 51.2 409.6 403.2z" />
<glyph unicode="&#xe921;" glyph-name="compose-max" d="M163.474 675.474l130.926 126.903 98.743 95.451-384 53.029 54.857-370.834 99.474 95.451zM163.474 675.474l151.406-145.92 131.291 126.537-151.406 146.286-131.291-126.903zM577.829 239.909l151.406-145.92-98.743-95.451 384.366-53.029-54.857 370.834-99.109-95.451-151.406 145.189-131.657-126.171z" />
<glyph unicode="&#xe922;" glyph-name="compose-minimize-down" d="M9.143-56.686h1005.714v266.971h-1005.714v-266.971z" />
<glyph unicode="&#xe923;" glyph-name="compose-minimize-up" d="M5.486 660.48h1013.029v295.863h-1013.029v-295.863z" />
<glyph unicode="&#xe924;" glyph-name="compose-minimize" d="M948.663 312.686l-372.663 53.394 53.76-372.297 95.817 95.817 145.92-145.92 127.269 126.903-146.651 146.651 96.549 95.451zM171.52 679.131l-146.286 146.651 127.269 126.903 145.92-145.92 95.817 95.817 53.76-372.297-372.663 53.029 96.183 95.817z" />
<glyph unicode="&#xe925;" glyph-name="consolidate" d="M1024 601.6l-345.6 345.6-25.6 12.8-275.2-275.2-64 64-211.2-211.2 224-217.6-326.4-326.4 51.2-57.6 332.8 332.8 217.6-224 211.2 211.2-70.4 70.4 281.6 275.2zM608 160l-390.4 384 96 96 70.4-64 147.2 147.2 249.6-249.6-147.2-153.6 70.4-64-96-96zM588.8 774.4l76.8 70.4 249.6-249.6-70.4-76.8-256 256z" />
<glyph unicode="&#xe926;" glyph-name="contact-settings" d="M812.8-64h-710.4v160h96v-64h614.4c70.4 0 76.8 64 76.8 83.2v672c0 64-76.8 76.8-83.2 76.8h-601.6v-76.8h-102.4v172.8h704c64-6.4 172.8-51.2 172.8-172.8v-672c0-6.4 0-83.2-51.2-134.4-25.6-25.6-70.4-44.8-115.2-44.8zM102.4 512h96v-140.8h-96v140.8zM44.8 691.2h211.2v-96h-211.2v96zM44.8 300.8h211.2v-96h-211.2v96zM697.6 358.4c6.4-12.8 19.2-32 25.6-44.8-12.8-12.8-32-32-44.8-44.8-12.8 6.4-32 19.2-44.8 25.6-12.8-6.4-25.6-12.8-38.4-19.2-6.4-19.2-12.8-32-12.8-51.2-19.2 0-38.4 0-64 0-6.4 19.2-12.8 32-12.8 51.2-12.8 6.4-25.6 12.8-38.4 19.2-12.8-6.4-32-19.2-44.8-25.6-12.8 12.8-32 32-44.8 44.8 6.4 12.8 19.2 32 25.6 44.8-19.2 12.8-25.6 25.6-32 44.8-19.2 0-38.4 6.4-51.2 12.8 0 19.2 0 38.4 0 64 19.2 6.4 32 12.8 51.2 12.8 6.4 12.8 12.8 32 19.2 44.8-12.8 12.8-19.2 32-25.6 44.8 12.8 12.8 32 32 44.8 44.8 12.8-6.4 32-19.2 44.8-25.6 12.8 6.4 25.6 12.8 38.4 19.2 6.4 12.8 12.8 32 19.2 51.2 19.2 0 38.4 0 64 0 0-19.2 6.4-38.4 12.8-51.2 12.8-6.4 25.6-12.8 38.4-19.2 12.8 6.4 32 19.2 44.8 25.6 12.8-12.8 32-32 44.8-44.8-6.4-12.8-19.2-32-25.6-44.8 12.8-12.8 12.8-25.6 19.2-44.8 19.2-6.4 32-12.8 51.2-12.8 0-19.2 0-38.4 0-64-19.2-6.4-38.4-12.8-51.2-12.8-6.4-19.2-6.4-32-12.8-44.8zM544 524.8c-44.8 0-83.2-32-83.2-76.8s32-76.8 76.8-76.8c44.8 0 76.8 32 76.8 76.8 6.4 44.8-32 76.8-70.4 76.8z" />
<glyph unicode="&#xe927;" glyph-name="contacts" d="M806.4 960h-704v-172.8h96v76.8h601.6c6.4 0 83.2-12.8 83.2-76.8v-672c0-19.2-6.4-83.2-76.8-83.2h-608v64h-96v-160h710.4c51.2 0 89.6 19.2 121.6 44.8 51.2 51.2 51.2 128 51.2 134.4v672c-6.4 121.6-115.2 166.4-179.2 172.8zM102.4 512h96v-140.8h-96v140.8zM44.8 691.2h211.2v-96h-211.2v96zM44.8 300.8h211.2v-96h-211.2v96zM640 576c0-53.019-42.981-96-96-96s-96 42.981-96 96c0 53.019 42.981 96 96 96s96-42.981 96-96zM352 300.8c0-70.4 0-70.4 0-70.4h371.2v83.2c0 0-12.8 121.6-147.2 121.6-70.4 0-89.6 0-96 0 6.4 0-128-19.2-128-134.4z" />
<glyph unicode="&#xe928;" glyph-name="delete" d="M1011.2 774.4h-998.4v-96h108.8v-742.4h774.4v742.4h108.8v96zM806.4 32h-588.8v646.4h588.8v-646.4zM230.4 960h556.8v-96h-556.8v96zM352 243.2l64-64 108.8 108.8 102.4-108.8 70.4 64-108.8 108.8 115.2 115.2-70.4 64-108.8-115.2-115.2 115.2-64-64 108.8-115.2z" />
<glyph unicode="&#xe929;" glyph-name="download-image" d="M0 889.6v-889.6h1024v889.6h-1024zM96 793.6h832v-499.2l-249.6 121.6-224-160-358.4 192v345.6zM96 339.2l268.8-147.2-128-96h-140.8v243.2zM403.2 102.4l288 211.2 243.2-115.2v-96h-531.2zM531.2 544c0 76.8-64 140.8-140.8 140.8s-140.8-64-140.8-140.8c0-76.8 64-140.8 140.8-140.8s140.8 64 140.8 140.8zM345.6 544c0 25.6 19.2 44.8 44.8 44.8s44.8-19.2 44.8-44.8c0-25.6-19.2-44.8-44.8-44.8s-44.8 19.2-44.8 44.8z" />
<glyph unicode="&#xe92a;" glyph-name="draft" d="M1017.6-64h-1011.2v1024h761.6l243.2-268.8v-755.2zM102.4 32h812.8v620.8l-192 211.2h-620.8v-832zM288 672h230.4v-96h-230.4v96zM288 473.6h467.2v-96h-467.2v96zM288 281.6h467.2v-96h-467.2v96z" />
<glyph unicode="&#xe92b;" glyph-name="edit-pen" d="M614.4 960l-448-780.8 25.6-243.2 224 102.4 448 780.8-249.6 140.8zM646.4 825.6l83.2-44.8-70.4-121.6-76.8 51.2 64 115.2zM345.6 108.8l-70.4-32-6.4 83.2 281.6 492.8 83.2-44.8-288-499.2z" />
<glyph unicode="&#xe92c;" glyph-name="elevation" d="M1024 448c0-282.77-229.23-512-512-512s-512 229.23-512 512c0 282.77 229.23 512 512 512s512-229.23 512-512z" />
<glyph unicode="&#xe92d;" glyph-name="email" d="M684.8 812.8h-684.8v-723.2h1024v723.2h-339.2zM409.6 716.8h435.2l-332.8-262.4-332.8 262.4h230.4zM928 179.2h-832v486.4l416-326.4 416 326.4v-486.4z" />
<glyph unicode="&#xe92e;" glyph-name="enter" d="M313.6 825.6v-185.6h89.6v115.2l390.4 89.6v-793.6l-390.4 83.2v121.6h-89.6v-198.4l569.6-121.6v1024zM460.8 294.4l64-64 204.8 217.6-204.8 217.6-64-64 102.4-108.8h-422.4v-89.6h422.4z" />
<glyph unicode="&#xe92f;" glyph-name="filter" d="M1024 499.2h-70.4v416h-96v-416h-70.4v-236.8h70.4v-281.6h96v281.6h70.4zM166.4 915.2h-96v-614.4h-70.4v-236.8h70.4v-83.2h96v83.2h70.4v236.8h-70.4zM563.2 915.2h-102.4v-89.6h-64v-236.8h64v-608h102.4v608h70.4v236.8h-70.4z" />
<glyph unicode="&#xe930;" glyph-name="flagged-red" d="M0 960h1024l-307.2-518.4 300.8-505.6h-1017.6z" />
<glyph unicode="&#xe931;" glyph-name="flagged_bg" d="M992 960h-768v-729.6h761.6l-211.2 358.4zM32 960h96v-1024h-96v1024z" />
<glyph unicode="&#xe932;" glyph-name="flagged" d="M985.6 230.4h-761.6v729.6h761.6l-217.6-371.2 217.6-358.4zM320 326.4h492.8l-153.6 262.4 160 268.8h-499.2v-531.2zM32 960h96v-1024h-96v1024z" />
<glyph unicode="&#xe933;" glyph-name="folders" d="M857.6 627.2v172.8h-448l-108.8 134.4h-300.8v-800h166.4v-172.8h857.6v665.6h-166.4zM83.2 211.2v640h179.2l108.8-134.4h409.6v-505.6h-697.6zM940.8 38.4h-691.2v96h608v416h89.6v-512z" />
<glyph unicode="&#xe934;" glyph-name="font-color" d="M10.721 113.756h1002.904v-167.381h-1002.904v167.381zM1013.971 949.279v-167.381h-417.762v-584.797h-167.381v584.797h-418.107v167.381h1003.25z" />
<glyph unicode="&#xe935;" glyph-name="font-family" d="M981.463-54.663l-385.945 1005.325h-142.482l-410.499-1005.325h150.781l100.636 251.418h452.344l92.336-251.418h142.827zM696.154 355.837h-343.754l100.636 284.617c33.545 83.691 58.445 150.781 75.391 201.273 8.3-58.445 33.545-125.536 50.145-192.973l117.582-292.917z" />
<glyph unicode="&#xe936;" glyph-name="font-size" d="M765.32 701.32h-316.779v-633.213h-126.573v633.213h-316.434v126.573h759.787v-126.573zM638.746 511.46h379.72v-126.573h-126.573v-316.779h-126.573v316.779h-126.573v126.573z" />
<glyph unicode="&#xe937;" glyph-name="forwarded" d="M490.040 385.924c-242.080 0-439.895-281.851-477.936-413.612-2.075 5.879-3.112 12.104-3.112 17.983 0 0 0 761.17 589.293 761.17v114.469c6.571 29.050 35.275 57.753 64.324 57.753s43.229-21.441 57.753-35.62l258.334-265.597c21.441-22.133 35.62-29.050 35.62-57.753 0-29.050-14.179-35.966-35.62-57.753l-258.334-265.597c-14.179-14.179-29.050-35.62-57.753-35.62-35.966 0-57.753 29.050-57.753 57.753v122.424h-114.815z" />
<glyph unicode="&#xe938;" glyph-name="hide-password" d="M1004.8 473.6c-76.8 96-153.6 172.8-236.8 224l32 38.4-76.8 64-44.8-51.2c-51.2 12.8-108.8 25.6-172.8 19.2-281.6-6.4-480-288-486.4-300.8l-19.2-25.6 19.2-25.6c70.4-89.6 147.2-160 224-204.8l-38.4-44.8 76.8-64 51.2 57.6c57.6-19.2 121.6-32 179.2-32 6.4 0 12.8 0 19.2 0 281.6 12.8 460.8 281.6 467.2 294.4l25.6 25.6-19.2 25.6zM115.2 448c51.2 64 204.8 230.4 396.8 230.4 38.4 0 76.8-6.4 115.2-19.2l-44.8-44.8c-25.6 6.4-44.8 12.8-70.4 12.8-102.4 0-179.2-83.2-179.2-179.2 0-38.4 12.8-70.4 32-96l-57.6-70.4c-70.4 38.4-134.4 89.6-192 166.4zM601.6 448c0-51.2-38.4-89.6-89.6-89.6-6.4 0-12.8 0-19.2 0l102.4 121.6c6.4-6.4 6.4-19.2 6.4-32zM422.4 448c0 51.2 38.4 89.6 89.6 89.6 0 0 0 0 0 0l-89.6-108.8c0 6.4 0 12.8 0 19.2zM531.2 217.6c-44.8 0-96 6.4-140.8 19.2l44.8 51.2c25.6-12.8 51.2-19.2 76.8-19.2 102.4 0 179.2 83.2 179.2 179.2 0 38.4-12.8 76.8-38.4 108.8l57.6 70.4c70.4-38.4 134.4-102.4 198.4-179.2-44.8-64-185.6-224-377.6-230.4z" />
<glyph unicode="&#xe939;" glyph-name="home" d="M512 960l-422.4-422.4v-601.6h844.8v601.6l-422.4 422.4zM467.2 25.6v192h102.4v-192h-102.4zM844.8 25.6h-185.6v281.6h-281.6v-281.6h-198.4v473.6l332.8 332.8 332.8-332.8v-473.6z" />
<glyph unicode="&#xe93a;" glyph-name="inbox" d="M684.8 659.2l70.4 76.8h-140.8v224h-211.2v-224h-128l70.4-76.8h-345.6v-723.2h1017.6v19.2h6.4v704h-339.2zM467.2 672v224h89.6v-224h57.6l-102.4-108.8-96 108.8h51.2zM428.8 569.6l83.2-102.4 83.2 96h243.2l-326.4-256-332.8 262.4h249.6zM928 32h-832v486.4l416-332.8 416 326.4v-480z" />
<glyph unicode="&#xe93b;" glyph-name="italic-en" d="M725.549 946.513h-227.901l-199.198-997.025h227.901l199.198 997.025z" />
<glyph unicode="&#xe93c;" glyph-name="italic" d="M492.461 477.568c9.683-19.712 325.079-503.181 335.108-522.894-39.425 0-137.986 0-187.094 0-10.029 19.712-256.605 423.986-256.605 434.016-20.058-19.712-98.561-88.532-108.59-98.561 0-19.712-68.82-325.079-68.82-335.108-39.425 0-148.015 0-187.094 0 0 10.029 207.152 976.276 216.835 986.305 39.77 0 138.332 0 187.785 0 0 0-98.561-433.67-98.561-443.699 19.712 19.712 463.411 433.67 473.094 443.699 49.454 0 148.015 0 207.152 0-0.346-0.346-503.527-463.757-513.21-463.757z" />
<glyph unicode="&#xe93d;" glyph-name="link" d="M477.59 285.979l69.512 69.857c50.837-69.512 44.612-170.84-19.021-234.472l-126.573-126.573c-31.47-31.47-82.307-50.491-126.573-50.491s-88.878 12.796-126.573 50.491l-88.878 88.878c-69.857 69.857-69.857 190.206 0 260.063l126.573 126.573c31.47 31.47 82.307 50.491 126.573 50.491 38.041 0 76.082-12.796 95.103-25.246l-69.857-69.857c-6.225 6.225-19.021 6.225-31.47 6.225-25.591 0-44.612-6.225-63.633-25.246l-126.573-126.573c-19.021-19.366-25.246-38.041-25.246-63.633s6.225-44.612 25.246-63.633l88.878-88.532c19.021-19.021 38.041-25.246 63.633-25.246s44.612 6.225 63.633 25.246l126.573 126.573c19.021 19.366 25.246 38.387 25.246 63.633-0.346 6.225-0.346 19.021-6.571 31.47v0zM958.984 551.922l-126.573-126.573c-31.47-31.47-82.307-50.491-126.573-50.491-38.041 0-76.082 6.225-107.553 31.47l82.307 63.633c6.225-6.225 19.021-6.225 31.47-6.225 25.591 0 44.612 6.225 63.633 25.246l126.573 126.573c19.021 19.366 25.246 38.387 25.246 63.633 0 25.591-6.225 44.612-25.246 63.633l-88.878 88.878c-19.366 19.021-38.041 25.246-63.633 25.246s-44.612-6.225-63.633-25.246l-126.573-126.573c-19.021-19.366-25.246-38.387-25.246-63.633 0-12.796 0-25.246 12.796-31.47l-69.512-69.512c-50.837 69.512-44.612 170.84 19.021 234.472l126.573 126.228c31.47 31.47 82.307 50.491 126.573 50.491s88.878-12.796 126.573-50.491l88.878-88.878c69.857-76.082 69.857-190.206-6.225-260.409zM331.65 229.263l-31.47 31.47 386.637 386.637 31.47-31.47-386.637-386.637z" />
<glyph unicode="&#xe93e;" glyph-name="location" d="M902.4 691.2v0c-70.4 185.6-262.4 294.4-460.8 262.4s-345.6-204.8-352-403.2c0-108.8 32-192 96-268.8 70.4-76.8 140.8-153.6 211.2-236.8l83.2-89.6c0-6.4 12.8-19.2 32-19.2v0c19.2 0 32 12.8 38.4 19.2l76.8 89.6c64 76.8 134.4 153.6 198.4 224 108.8 128 134.4 268.8 76.8 422.4zM230.4 371.2c-70.4 115.2-70.4 230.4 0 345.6 64 102.4 160 160 281.6 160 6.4 0 19.2 0 32 0 140.8-6.4 268.8-121.6 294.4-268.8 19.2-108.8-6.4-204.8-83.2-288-57.6-64-115.2-128-172.8-198.4l-70.4-76.8-38.4 44.8c-51.2 57.6-102.4 115.2-147.2 166.4-6.4 6.4-19.2 19.2-25.6 25.6-25.6 32-51.2 57.6-70.4 89.6zM512 364.8c0 0 6.4 0 0 0 108.8 0 192 83.2 198.4 192 6.4 115.2-83.2 204.8-192 211.2-51.2 0-102.4-19.2-140.8-51.2-38.4-38.4-64-83.2-64-134.4 0-57.6 19.2-108.8 51.2-147.2 38.4-44.8 89.6-64 147.2-70.4zM396.8 569.6c0 32 12.8 57.6 32 83.2 25.6 19.2 51.2 32 83.2 32 0 0 0 0 0 0 64 0 115.2-51.2 115.2-115.2s-51.2-115.2-108.8-115.2c-32 0-64 12.8-83.2 32-25.6 19.2-38.4 51.2-38.4 83.2z" />
<glyph unicode="&#xe93f;" glyph-name="login-top-open" d="M674.635 935.906c-12.047 6.024-30.118-6.024-36.141-18.071s0-36.141 18.071-36.141c180.706-60.235 307.2-228.894 307.2-427.671 0-246.965-204.8-451.765-451.765-451.765s-451.765 198.776-451.765 445.741c0 198.776 126.494 367.435 307.2 427.671 18.071 6.024 24.094 24.094 18.071 42.165s-24.094 18.071-36.141 12.047c-204.8-66.259-349.365-259.012-349.365-481.882 0-283.106 228.894-512 512-512s512 228.894 512 512c0 228.894-144.565 415.624-349.365 487.906zM319.247 460.047c-12.047-12.047-12.047-30.118 0-42.165l168.659-168.659c0 0 6.024 0 6.024-6.024 0 0 6.024 0 6.024-6.024 6.024 0 6.024 0 12.047 0s6.024 0 12.047 0c0 0 0 0 6.024 0 0 0 6.024 0 6.024 6.024l168.659 174.682c12.047 12.047 12.047 30.118 0 42.165s-30.118 12.047-42.165 0l-120.471-120.471v590.306c0 18.071-12.047 30.118-30.118 30.118s-30.118-12.047-30.118-30.118v-590.306l-120.471 120.471c-12.047 12.047-30.118 12.047-42.165 0z" />
<glyph unicode="&#xe940;" glyph-name="login-top" d="M512 960c-228.894 0-415.624-144.565-487.906-349.365 0-12.047 6.024-30.118 18.071-36.141s36.141 0 36.141 18.071c60.235 180.706 228.894 307.2 427.671 307.2 252.988 0 457.788-204.8 457.788-451.765s-204.8-451.765-451.765-451.765c-198.776 0-367.435 126.494-427.671 307.2-6.024 18.071-24.094 24.094-42.165 18.071s-18.071-18.071-18.071-36.141c66.259-204.8 259.012-349.365 481.882-349.365 283.106 0 512 228.894 512 512 6.024 283.106-222.871 512-505.976 512zM620.424 417.882l-120.471-120.471c-12.047-12.047-12.047-30.118 0-42.165s30.118-12.047 42.165 0l168.659 168.659c0 0 0 0 0 6.024 0 0 0 6.024 6.024 6.024 0 0 0 0 0 6.024s0 12.047 0 18.071c0 0 0 6.024-6.024 6.024v6.024l-168.659 168.659c-12.047 12.047-30.118 12.047-42.165 0s-12.047-30.118 0-42.165l120.471-120.471h-590.306c-18.071 0-30.118-12.047-30.118-30.118s12.047-30.118 30.118-30.118h590.306z" />
<glyph unicode="&#xe941;" glyph-name="map-icon-arrow" d="M903.529 839.529l-783.059-361.412h421.647v-421.647z" />
<glyph unicode="&#xe942;" glyph-name="marker-mobile-bg" d="M524.8 960h-524.8v-1024h524.8c492.8 0 499.2 505.6 499.2 505.6 0 512-492.8 518.4-499.2 518.4zM512 588.8c76.8 0 140.8-64 140.8-140.8s-64-140.8-140.8-140.8-140.8 64-140.8 140.8c0 76.8 64 140.8 140.8 140.8z" />
<glyph unicode="&#xe943;" glyph-name="marker-mobile" d="M0-64v1024h524.8c6.4 0 499.2-6.4 499.2-518.4 0-6.4-6.4-505.6-499.2-505.6h-524.8zM96 857.6v-825.6h428.8c396.8 0 403.2 390.4 403.2 409.6 0 409.6-384 416-403.2 416h-428.8zM326.4 448c0 102.4 83.2 185.6 185.6 185.6s185.6-83.2 185.6-185.6-83.2-185.6-185.6-185.6-185.6 83.2-185.6 185.6zM601.6 448c0 51.2-38.4 89.6-89.6 89.6s-89.6-38.4-89.6-89.6 38.4-89.6 89.6-89.6 89.6 38.4 89.6 89.6z" />
<glyph unicode="&#xe944;" glyph-name="marker" d="M1024-64h-1024v524.8c0 6.4 6.4 499.2 518.4 499.2 0 0 505.6-6.4 505.6-499.2v-524.8zM102.4 32h825.6v428.8c0 396.8-390.4 403.2-409.6 403.2-409.6 0-416-384-416-403.2v-428.8zM512 262.4c-102.4 0-185.6 83.2-185.6 185.6s83.2 185.6 185.6 185.6 185.6-83.2 185.6-185.6-83.2-185.6-185.6-185.6zM512 537.6c-51.2 0-89.6-38.4-89.6-89.6s38.4-89.6 89.6-89.6 89.6 38.4 89.6 89.6-38.4 89.6-89.6 89.6z" />
<glyph unicode="&#xe945;" glyph-name="markers" d="M448 710.4c-76.8 0-140.8-64-140.8-140.8s64-140.8 140.8-140.8c76.8 0 140.8 64 140.8 140.8s-64 140.8-140.8 140.8zM448 492.8c-38.4 0-70.4 32-70.4 70.4s32 70.4 70.4 70.4c38.4 0 70.4-32 70.4-70.4s-32-70.4-70.4-70.4zM883.2 697.6c0 0-6.4 0 0 0-19.2 19.2-51.2 38.4-76.8 51.2-108.8 204.8-364.8 211.2-371.2 211.2-416 0-422.4-416-422.4-422.4v-441.6h160v-160h838.4v441.6c0 160-57.6 256-128 320zM96 172.8v364.8c0 12.8 6.4 339.2 339.2 339.2 12.8 0 332.8-6.4 332.8-339.2v-364.8h-672zM928 19.2h-672v76.8h601.6v441.6c0 25.6 0 51.2-6.4 76.8 0-6.4 6.4-6.4 6.4-6.4 44.8-51.2 76.8-121.6 76.8-230.4v-358.4z" />
<glyph unicode="&#xe946;" glyph-name="menu-button" d="M0 832h1024v-128h-1024v128zM0 192h1024v-128h-1024v128zM0 512h1024v-128h-1024v128z" />
<glyph unicode="&#xe947;" glyph-name="menu" d="M0 755.2h1024v-96h-1024v96zM0 492.8h1024v-96h-1024v96zM0 236.8h1024v-96h-1024v96z" />
<glyph unicode="&#xe948;" glyph-name="mobile-menu" d="M512 710.4c-70.4 0-121.6 57.6-121.6 128s51.2 121.6 121.6 121.6c70.4 0 121.6-57.6 121.6-121.6s-51.2-128-121.6-128zM512 896c-32 0-57.6-25.6-57.6-57.6s25.6-64 57.6-64 57.6 25.6 57.6 57.6-25.6 64-57.6 64zM512 326.4c-70.4 0-121.6 51.2-121.6 121.6s57.6 121.6 121.6 121.6c70.4 0 121.6-57.6 121.6-121.6 0-70.4-51.2-121.6-121.6-121.6zM512 505.6c-32 0-57.6-25.6-57.6-57.6s25.6-57.6 57.6-57.6 57.6 25.6 57.6 57.6-25.6 57.6-57.6 57.6zM512-64c-70.4 0-121.6 57.6-121.6 121.6 0 70.4 57.6 121.6 121.6 121.6 70.4 0 121.6-57.6 121.6-121.6s-51.2-121.6-121.6-121.6zM512 121.6c-32 0-57.6-25.6-57.6-57.6s25.6-64 57.6-64 57.6 25.6 57.6 57.6-25.6 64-57.6 64z" />
<glyph unicode="&#xe949;" glyph-name="more" d="M192 448c0-53.019-42.981-96-96-96s-96 42.981-96 96c0 53.019 42.981 96 96 96s96-42.981 96-96zM608 448c0-53.019-42.981-96-96-96s-96 42.981-96 96c0 53.019 42.981 96 96 96s96-42.981 96-96zM1024 448c0-53.019-42.981-96-96-96s-96 42.981-96 96c0 53.019 42.981 96 96 96s96-42.981 96-96z" />
<glyph unicode="&#xe94a;" glyph-name="no-avatar" d="M590.306 393.788c126.494-36.141 228.894-138.541 228.894-277.082 0 144.565-102.4 240.941-228.894 277.082zM716.8 580.518c0-84.329-48.188-156.612-126.494-186.729 78.306 24.094 126.494 102.4 126.494 186.729zM433.694 393.788c-66.259 24.094-126.494 102.4-126.494 186.729 0-84.329 54.212-162.635 126.494-186.729zM512 960c-283.106 0-512-228.894-512-512s228.894-512 512-512 512 228.894 512 512-228.894 512-512 512zM819.2 116.706c0 138.541-102.4 240.941-228.894 277.082 78.306 30.118 126.494 102.4 126.494 186.729 0 114.447-90.353 204.8-204.8 204.8s-204.8-90.353-204.8-204.8c0-84.329 60.235-162.635 126.494-186.729-132.518-36.141-228.894-138.541-228.894-277.082-90.353 90.353-144.565 192.753-144.565 331.294 0 271.059 228.894 451.765 451.765 451.765 259.012 0 451.765-216.847 451.765-451.765 0-138.541-60.235-252.988-144.565-331.294z" />
<glyph unicode="&#xe94b;" glyph-name="ol" d="M85.074 874.926h-60.866v60.866h122.078v-243.81h-61.212v182.944zM755.982 326.095h-426.753v60.866h426.753v-60.866zM999.792 935.792v-60.866h-670.563v60.866h670.563zM755.982 691.982h-426.753v60.866h426.753v-60.866zM24.208 204.018h182.944v-243.81h-182.944v60.866h122.078v18.329l-30.433 12.104v61.212l30.433 12.104v18.329h-122.078v60.866zM329.229 569.905h670.563v-60.866h-670.563v60.866zM329.229 204.018h670.563v-60.866h-670.563v60.866zM24.208 569.905h182.944v-60.866l-122.078-122.078h122.078v-60.866h-182.944v60.866l122.078 122.078h-122.078v60.866zM329.229 21.074h426.753v-60.866h-426.753v60.866z" />
<glyph unicode="&#xe94c;" glyph-name="out" d="M396.8 825.6v-185.6h89.6v115.2l390.4 89.6v-793.6l-390.4 83.2v121.6h-89.6v-198.4l569.6-121.6v1024zM646.4 403.2v89.6h-422.4l102.4 108.8-64 57.6-204.8-211.2 204.8-217.6 64 64-102.4 108.8z" />
<glyph unicode="&#xe94d;" glyph-name="password" d="M768 505.6c0 211.2 0 224 0 224-19.2 192-179.2 236.8-256 230.4-192 0-249.6-153.6-249.6-236.8v-224h-153.6v-563.2h800v569.6h-140.8zM358.4 723.2c0 12.8 12.8 140.8 160 140.8 12.8 0 140.8 6.4 153.6-140.8 0-12.8 0-128 0-217.6h-313.6v217.6zM819.2 32h-614.4v377.6h614.4v-377.6z" />
<glyph unicode="&#xe94e;" glyph-name="phone" d="M1017.6 211.2l-339.2 76.8-57.6-115.2c0 0-275.2 83.2-377.6 377.6l108.8 57.6-76.8 339.2c0 0-153.6 57.6-243.2-83.2s25.6-428.8 83.2-524.8 211.2-345.6 627.2-403.2c345.6-38.4 275.2 275.2 275.2 275.2z" />
<glyph unicode="&#xe94f;" glyph-name="processing-rules" d="M467.2 364.8c-64 51.2-128 102.4-198.4 153.6 19.2 19.2 32 38.4 51.2 64 44.8-38.4 89.6-70.4 140.8-108.8 70.4 83.2 147.2 160 217.6 243.2 19.2-19.2 38.4-32 57.6-51.2-89.6-102.4-179.2-198.4-268.8-300.8zM268.8 275.2h480v-96h-480v96zM979.2-64h-934.4v1024h940.8v-1024zM140.8 32h748.8v832h-748.8v-832z" />
<glyph unicode="&#xe950;" glyph-name="profile" d="M729.6 569.6c0 25.6 0 44.8-6.4 70.4-6.4 19.2-12.8 38.4-32 51.2-12.8 6.4-25.6 12.8-38.4 12.8-6.4 6.4-12.8 19.2-25.6 32-25.6 32-64 44.8-108.8 38.4-32-6.4-64-6.4-96-6.4-19.2 0-44.8 0-64 6.4 0-12.8 0-19.2 19.2-38.4 0 0 0 0 0 0s0 0 0 0c-44.8-32-64-64-70.4-108.8-6.4-38.4-6.4-76.8 0-121.6-12.8-19.2-19.2-44.8-12.8-64 6.4-25.6 12.8-44.8 19.2-64 6.4-12.8 6.4-19.2 12.8-25.6s6.4-12.8 6.4-12.8c12.8-38.4 32-70.4 64-96 64-64 153.6-64 224-6.4 32 25.6 51.2 57.6 64 102.4 0 6.4 6.4 12.8 6.4 12.8 12.8 12.8 19.2 25.6 19.2 38.4 6.4 12.8 6.4 25.6 12.8 44.8 6.4 25.6 6.4 51.2-12.8 76.8 12.8 12.8 12.8 32 19.2 57.6zM678.4 390.4c-6.4-6.4-6.4-12.8-12.8-19.2 0-6.4 0-6.4-6.4-12.8-12.8-51.2-38.4-89.6-89.6-108.8-44.8-25.6-89.6-19.2-134.4 12.8-32 19.2-57.6 57.6-70.4 108.8 0 6.4-6.4 6.4-12.8 12.8-12.8 25.6-19.2 51.2-19.2 76.8 0 6.4 0 6.4 0 12.8 0 12.8 6.4 12.8 19.2 19.2-6.4 38.4 6.4 64 25.6 76.8 12.8 0 25.6 0 38.4 0 38.4 0 70.4 6.4 102.4 19.2 19.2 6.4 32 12.8 51.2 12.8 32 0 57.6-12.8 76.8-38.4 12.8-19.2 19.2-44.8 25.6-64 0 0 0-6.4 0-6.4 19.2-6.4 25.6-12.8 19.2-32 0-25.6-6.4-51.2-12.8-70.4zM512 960c-281.6 0-512-230.4-512-512s230.4-512 512-512c281.6 0 512 230.4 512 512s-230.4 512-512 512zM838.4 140.8c-51.2 38.4-102.4 70.4-160 96-44.8-51.2-96-83.2-166.4-83.2s-121.6 32-166.4 83.2c-57.6-32-108.8-64-160-96-76.8 83.2-128 192-128 313.6 0 249.6 204.8 454.4 454.4 454.4s454.4-204.8 454.4-454.4c0-128-51.2-236.8-128-313.6z" />
<glyph unicode="&#xe951;" glyph-name="read" d="M512 960l-512-320v-704h1024v697.6l-512 326.4zM928 390.4v-294.4c-38.4 38.4-89.6 83.2-160 147.2l160 147.2zM864 32h-697.6l345.6 307.2c115.2-96 262.4-230.4 352-307.2zM544 435.2l-32 25.6-185.6-166.4-230.4 224v64l416 268.8 57.6-32c102.4-64 281.6-179.2 364.8-230.4v-64l-230.4-217.6c-51.2 32-102.4 76.8-160 128zM256 236.8l-166.4-147.2v300.8l166.4-153.6z" />
<glyph unicode="&#xe952;" glyph-name="redo" d="M449.232 888.413c245.193 0 440.24-195.048 440.24-440.24h125.882l-188.823-188.823-188.823 188.823h138.332c0 182.252-151.127 327.154-327.154 327.154s-327.154-150.781-327.154-327.154c0-182.252 150.781-327.154 327.154-327.154 19.021 0 43.92 0 62.941 6.225v-113.086c-19.021-6.225-43.92-6.225-62.941-6.225-245.193-0.346-439.895 194.702-439.895 439.895s194.702 440.586 440.24 440.586z" />
<glyph unicode="&#xe953;" glyph-name="reestablish" d="M409.6 486.4c-128 0-236.8 108.8-236.8 236.8s108.8 236.8 236.8 236.8 236.8-108.8 236.8-236.8-108.8-236.8-236.8-236.8zM409.6 864c-76.8 0-140.8-64-140.8-140.8s64-140.8 140.8-140.8 140.8 64 140.8 140.8-64 140.8-140.8 140.8zM819.2-64h-819.2v185.6c0 230.4 192 300.8 294.4 307.2v0h192c262.4 0 326.4-204.8 326.4-307.2v-185.6zM96 32h627.2v89.6c0 19.2-6.4 211.2-230.4 211.2h-192c-25.6 0-204.8-19.2-204.8-211.2v-89.6zM953.6 665.6l-140.8-153.6-96 70.4-57.6-76.8 160-121.6 204.8 224z" />
<glyph unicode="&#xe954;" glyph-name="refresh" d="M729.6 800l-19.2 6.4-38.4-76.8 19.2-6.4c211.2-108.8 256-332.8 179.2-486.4-83.2-160-275.2-243.2-454.4-198.4-192 51.2-313.6 217.6-294.4 396.8 19.2 172.8 160 288 288 313.6l12.8-121.6 160 185.6-198.4 147.2 12.8-121.6c-243.2-57.6-403.2-275.2-371.2-512 32-217.6 249.6-390.4 486.4-390.4 0 0 0 0 0 0 236.8 0 454.4 172.8 486.4 390.4 32 230.4-115.2 416-268.8 473.6z" />
<glyph unicode="&#xe955;" glyph-name="replied" d="M533.614 385.232c243.81 0 443.007-283.926 481.394-416.378 2.075 6.225 3.112 12.45 3.112 18.329 0 0 0 766.357-593.097 766.357v115.507c-6.917 29.395-36.312 58.099-65.016 58.099-29.395 0-43.574-21.787-58.099-35.966l-260.063-267.326c-21.787-22.133-35.966-29.395-35.966-58.099s14.179-35.966 35.966-58.099l259.718-267.326c14.179-14.179 29.395-35.966 58.099-35.966 36.312 0 58.099 29.395 58.099 58.099v122.769h115.853z" />
<glyph unicode="&#xe956;" glyph-name="search" d="M1024 6.4l-249.6 249.6c57.6 76.8 96 166.4 96 268.8 0 236.8-192 435.2-435.2 435.2s-435.2-198.4-435.2-435.2 192-435.2 435.2-435.2c102.4 0 198.4 38.4 268.8 96l249.6-249.6 70.4 70.4zM435.2 185.6c-185.6 0-339.2 153.6-339.2 339.2s153.6 339.2 339.2 339.2c185.6 0 339.2-153.6 339.2-339.2s-153.6-339.2-339.2-339.2z" />
<glyph unicode="&#xe957;" glyph-name="send-mail" d="M0 838.4v-454.4h96v256l416-249.6 416 249.6v-486.4h-608v-96h704v780.8h-1024zM108.8 742.4h812.8l-409.6-236.8-403.2 236.8zM96 288h140.8v-96h-140.8v96zM0 153.6h236.8v-96h-236.8v96z" />
<glyph unicode="&#xe958;" glyph-name="send-on" d="M544 230.4c0 44.8 0 83.2 0 128-217.6-19.2-364.8-134.4-448-332.8 12.8 121.6 64 230.4 147.2 320 76.8 89.6 172.8 147.2 300.8 166.4 0 38.4 0 76.8 0 115.2 70.4-70.4 140.8-134.4 211.2-204.8-70.4-57.6-140.8-121.6-211.2-192zM0 960v-1024h1024v1024h-1024zM928 32h-832v832h832v-832z" />
<glyph unicode="&#xe959;" glyph-name="sent" d="M620.8 659.2v38.4h128l-236.8 262.4-236.8-262.4h134.4v-32h-409.6v-729.6h1017.6v19.2h6.4v704h-403.2zM512 870.4l102.4-115.2h-51.2v-224h-89.6v224h-64l102.4 115.2zM409.6 569.6v-96h211.2v96h224l-332.8-262.4-332.8 262.4h230.4zM934.4 25.6h-838.4v492.8l416-326.4 422.4 332.8v-499.2z" />
<glyph unicode="&#xe95a;" glyph-name="settings" d="M614.4-64h-204.8l-38.4 121.6-44.8 19.2-108.8-64-147.2 140.8 57.6 108.8-19.2 44.8-108.8 38.4v204.8l121.6 38.4 19.2 44.8-64 102.4 147.2 140.8 108.8-57.6 44.8 19.2 32 121.6h198.4l38.4-121.6 44.8-19.2 108.8 57.6 147.2-140.8-57.6-108.8 19.2-44.8 115.2-32v-198.4l-121.6-38.4-19.2-44.8 57.6-108.8-147.2-147.2-102.4 57.6-44.8-19.2-32-115.2zM480 32h57.6l32 96 128 57.6 83.2-44.8 44.8 44.8-44.8 83.2 51.2 128 96 25.6v57.6l-96 25.6-51.2 128 44.8 83.2-44.8 44.8-83.2-44.8-128 51.2-32 96h-57.6l-25.6-96-128-51.2-83.2 44.8-44.8-44.8 44.8-83.2-51.2-128-96-25.6v-57.6l96-32 51.2-128-44.8-89.6 44.8-38.4 89.6 51.2 128-57.6 19.2-96zM512 236.8c0 0 0 0 0 0-115.2 0-211.2 96-211.2 211.2 0 57.6 19.2 108.8 64 147.2 38.4 38.4 89.6 64 147.2 64v0c0 0 0 0 0 0 115.2 0 211.2-89.6 211.2-211.2 0-57.6-19.2-108.8-57.6-147.2-44.8-38.4-96-64-153.6-64zM512 563.2c-32 0-57.6-12.8-76.8-32-25.6-25.6-38.4-51.2-38.4-83.2 0-64 51.2-115.2 115.2-115.2 0 0 0 0 0 0 32 0 57.6 12.8 83.2 32 19.2 25.6 32 51.2 32 83.2-6.4 64-51.2 115.2-115.2 115.2 0 0 0 0 0 0v0z" />
<glyph unicode="&#xe95b;" glyph-name="show-password" d="M512 128c-172.8 0-339.2 96-492.8 288l-19.2 25.6 19.2 25.6c6.4 12.8 204.8 294.4 486.4 300.8 172.8 6.4 345.6-96 499.2-300.8l19.2-19.2-19.2-25.6c-6.4-12.8-192-281.6-467.2-294.4-6.4 0-12.8 0-25.6 0zM115.2 448c134.4-160 275.2-236.8 416-230.4 185.6 6.4 332.8 166.4 377.6 230.4-128 160-262.4 243.2-403.2 236.8-185.6-6.4-339.2-172.8-390.4-236.8zM512 268.8c-102.4 0-179.2 83.2-179.2 179.2s83.2 179.2 179.2 179.2c102.4 0 179.2-83.2 179.2-179.2s-76.8-179.2-179.2-179.2zM512 537.6c-51.2 0-89.6-38.4-89.6-89.6s38.4-89.6 89.6-89.6c51.2 0 89.6 38.4 89.6 89.6s-38.4 89.6-89.6 89.6z" />
<glyph unicode="&#xe95c;" glyph-name="soc-fb" d="M262.4 620.8h108.8v102.4c0 44.8 0 115.2 32 160 38.4 44.8 83.2 76.8 166.4 76.8 134.4 0 192-19.2 192-19.2l-25.6-160c0 0-44.8 12.8-83.2 12.8s-76.8-12.8-76.8-57.6v-128h166.4l-12.8-153.6h-160v-518.4h-198.4v531.2h-108.8v153.6z" />
<glyph unicode="&#xe95d;" glyph-name="soc-g" d="M531.2 377.6c-64 0-121.6 0-185.6 0 0 44.8 0 89.6 0 134.4 108.8 0 211.2 0 320 0 0-6.4 6.4-19.2 6.4-32 6.4-102.4-12.8-198.4-83.2-275.2-51.2-57.6-115.2-83.2-192-96-108.8-12.8-211.2 12.8-288 96-96 96-128 217.6-89.6 345.6s134.4 211.2 268.8 236.8c102.4 19.2 192-6.4 275.2-76.8 0-6.4 0-6.4 6.4-6.4 0 0 0 0 0 0-32-32-64-64-96-96 0 0 0 0 0 0-89.6 76.8-243.2 64-307.2-64-70.4-128 6.4-288 153.6-300.8 70.4-6.4 134.4 12.8 179.2 70.4 12.8 19.2 25.6 38.4 32 64zM915.2 403.2c0-38.4 0-70.4 0-108.8-25.6 0-57.6 0-83.2 0 0 32 0 70.4 0 102.4-38.4 0-70.4 0-108.8 0 0 32 0 57.6 0 83.2 32 0 70.4 0 102.4 0 0 38.4 0 70.4 0 102.4 25.6 0 57.6 0 83.2 0 0-32 0-70.4 0-102.4 38.4 0 70.4 0 108.8 0 0-32 0-57.6 0-83.2-25.6 6.4-64 6.4-102.4 6.4z" />
<glyph unicode="&#xe95e;" glyph-name="soc-in" d="M121.6 710.4c76.8 0 121.6 51.2 121.6 115.2s-44.8 115.2-121.6 115.2c-70.4-6.4-121.6-51.2-121.6-115.2s44.8-115.2 121.6-115.2v0 0zM230.4-38.4v659.2h-217.6v-659.2h217.6zM352-38.4h224v364.8c0 19.2 0 38.4 6.4 57.6 12.8 38.4 51.2 83.2 115.2 83.2 76.8 0 108.8-57.6 108.8-147.2v-352h217.6v371.2c0 204.8-108.8 294.4-249.6 294.4-121.6 0-172.8-64-198.4-108.8v0 96h-224c6.4-64 0-659.2 0-659.2v0 0z" />
<glyph unicode="&#xe95f;" glyph-name="soc-tw" d="M1024 768c-38.4-19.2-76.8-25.6-121.6-32 44.8 25.6 76.8 64 89.6 115.2-38.4-25.6-83.2-38.4-134.4-51.2-38.4 38.4-96 64-153.6 64-108.8 0-204.8-96-204.8-211.2 0-19.2 0-32 6.4-44.8-172.8 6.4-332.8 89.6-435.2 217.6-19.2-32-25.6-64-25.6-108.8 0-70.4 38.4-134.4 96-172.8-32 0-64 12.8-96 25.6 0 0 0 0 0 0 0-102.4 70.4-185.6 166.4-204.8-19.2-6.4-38.4-6.4-57.6-6.4-12.8 0-25.6 0-38.4 6.4 25.6-83.2 102.4-147.2 198.4-147.2-70.4-57.6-160-89.6-262.4-89.6-19.2 0-32 0-51.2 0 96-57.6 204.8-96 320-96 384 0 595.2 320 595.2 595.2 0 6.4 0 19.2 0 25.6 44.8 32 83.2 70.4 108.8 115.2v0z" />
<glyph unicode="&#xe960;" glyph-name="spam" d="M780.8 524.8v0c-12.8 19.2-32 51.2-57.6 70.4l-12.8 12.8v-19.2c0 0-6.4-83.2-12.8-108.8s-32-83.2-121.6-198.4c-153.6-198.4-153.6-243.2-153.6-294.4v-44.8l38.4-6.4c0 0 25.6-6.4 70.4-6.4 51.2 0 128 6.4 192 51.2 70.4 44.8 121.6 121.6 140.8 224 12.8 153.6-83.2 313.6-83.2 320zM768 230.4c-12.8-76.8-51.2-134.4-102.4-172.8-57.6-38.4-121.6-38.4-160-38.4 6.4 32 32 83.2 134.4 217.6 44.8 57.6 83.2 115.2 102.4 153.6 19.2-44.8 38.4-108.8 25.6-160zM550.4 332.8c166.4 198.4 160 377.6-19.2 524.8l-121.6 102.4 19.2-44.8c44.8-102.4-19.2-224-44.8-268.8-25.6-38.4-64-83.2-102.4-128-121.6-140.8-121.6-262.4-102.4-339.2 12.8-64 51.2-115.2 76.8-140.8v0l6.4-6.4c0 0 51.2-51.2 96-64l12.8-6.4v12.8c-6.4 19.2 0 51.2 6.4 76.8 25.6 76.8 83.2 172.8 172.8 281.6zM480 384c-89.6-108.8-147.2-204.8-172.8-275.2-19.2 19.2-38.4 51.2-51.2 89.6-19.2 83.2 6.4 172.8 83.2 262.4 96 115.2 160 204.8 192 281.6 83.2-102.4 64-224-51.2-358.4z" />
<glyph unicode="&#xe961;" glyph-name="style" d="M135.911 698.553v125.536h-62.595v-188.131h501.452v-188.131h62.595v-501.452h-188.131v501.452h62.595v125.19h-501.106v313.667h125.19v62.595h877.714v-250.726h-877.714z" />
<glyph unicode="&#xe962;" glyph-name="template" d="M243.2 960v-108.8h83.2v25.6h544v-646.4h-19.2v-83.2h102.4v812.8zM793.6-64h-723.2v825.6h723.2v-825.6zM166.4 32h531.2v633.6h-531.2v-633.6z" />
<glyph unicode="&#xe963;" glyph-name="thru" d="M579.264 699.245v-251.072h435.399v-83.691h-435.399v-335.108h-150.781v335.108h-418.799v83.691h418.799v251.072h-418.799v167.381h1004.979v-167.727h-435.399z" />
<glyph unicode="&#xe964;" glyph-name="time" d="M512-64c-281.6 0-512 230.4-512 512s230.4 512 512 512c281.6 0 512-230.4 512-512s-230.4-512-512-512zM512 864c-230.4 0-416-185.6-416-416s185.6-416 416-416c230.4 0 416 185.6 416 416s-185.6 416-416 416zM339.2 300.8l-44.8 83.2 179.2 96v281.6h96v-345.6z" />
<glyph unicode="&#xe965;" glyph-name="to-a-folder" d="M1024-32h-1024v960h358.4l128-160h537.6v-800zM96 64h832v608h-486.4l-128 160h-217.6v-768z" />
<glyph unicode="&#xe966;" glyph-name="ul" d="M307.444 725.943h453.73v-39.010h-453.73v39.010zM307.444 904.411h699.49v-39.010h-699.49v39.010zM17.067 914.164h233.326v-236.983h-233.326v236.983zM17.067 566.491h233.326v-236.983h-233.326v236.983zM17.067 218.819h233.326v-236.983h-233.326v236.983zM307.444 378.27h453.73v-39.010h-453.73v39.010zM307.444 556.739h699.49v-39.010h-699.49v39.010zM307.444 30.598h453.73v-39.010h-453.73v39.010zM307.444 209.067h699.49v-39.010h-699.49v39.010z" />
<glyph unicode="&#xe967;" glyph-name="underlay" d="M381.45 447.827c-150.436 0-270.438 120.003-270.784 270.784v230.668h200.581v-260.755c0-20.058 20.058-40.116 40.116-40.116h330.958c20.058 0 30.087 10.029 30.087 30.087v270.784h200.581v-802.324h-200.581v330.958c0 20.058-20.058 30.087-30.087 20.058-60.174-40.116-180.523-50.145-300.871-50.145v0zM111.011 46.665h802.324v-100.29h-802.324v100.29z" />
<glyph unicode="&#xe968;" glyph-name="underline" d="M280.122 234.105c-59.137 48.762-89.57 117.236-89.57 206.114v507.331h181.906v-507.331c0-47.379 12.45-82.999 37.004-105.824 24.554-23.171 59.137-34.583 104.095-34.583 44.612 0 78.503 11.412 102.365 34.237 24.208 22.825 34.929 58.099 34.929 106.17v507.331h182.598v-507.331c0-88.532-29.395-157.352-88.186-206.114-58.791-49.108-135.911-73.316-231.36-73.316-96.486 0-174.644 24.554-233.78 73.316v0zM12.45-51.896h999.446v143.173h-999.446v-143.173z" />
<glyph unicode="&#xe969;" glyph-name="undo" d="M1011.55 447.827c0-243.464-193.664-437.128-437.128-437.128-19.021 0-43.92 0-62.595 6.225v112.74c19.021-6.225 43.92-6.225 62.595-6.225 174.644 0 324.734 143.519 324.734 324.734 0 174.644-149.744 324.734-324.734 324.734s-324.734-143.519-324.734-324.734h137.64l-187.439-187.439-187.439 187.439h124.844c0 243.464 193.664 437.128 437.128 437.128 243.81 0 437.128-194.010 437.128-437.474z" />
<glyph unicode="&#xe96a;" glyph-name="unlink" d="M958.984 813.023c69.512-69.512 69.512-189.169 0-264.559l-125.882-125.882c-12.45-12.45-25.246-25.246-37.695-31.47l-75.391 75.391c12.45 0 31.47 6.571 43.92 19.021l125.882 126.228c19.021 19.021 25.246 37.695 25.246 62.941s-6.225 43.92-25.246 62.941l-88.186 88.186c-19.021 19.021-37.695 25.246-62.941 25.246s-43.92-6.225-62.941-25.246l-125.882-125.882c-6.571-12.45-19.021-24.9-19.021-43.92l-75.391 75.391c6.225 12.45 18.675 24.9 37.695 43.92l125.882 125.882c31.47 31.47 81.961 50.491 125.882 50.491s88.186-12.796 125.882-50.491l88.186-88.186zM467.907 195.718c0 6.225 6.225 12.796 6.225 12.796l69.166-69.166c-6.225-6.571-6.225-12.796-12.45-19.021l-125.882-125.882c-31.47-31.47-81.616-50.491-125.882-50.491s-88.186 12.45-125.882 50.491l-87.841 88.186c-69.166 69.166-69.166 188.823 0 257.989l125.882 125.882c6.225 6.225 12.45 12.45 12.45 12.45l69.166-56.716c-6.571-6.225-12.796-6.225-19.021-12.45l-125.882-125.882c-19.021-19.021-25.246-37.695-25.246-62.941s6.225-43.92 25.246-62.941l88.186-88.186c19.021-19.021 37.695-25.246 62.941-25.246s43.92 6.225 62.941 25.246l125.882 125.882z" />
<glyph unicode="&#xe96b;" glyph-name="write" d="M1024-64h-1024v1024h441.6v-96h-345.6v-832h832v352h96zM537.6 403.2l-128-44.8 51.2 121.6 486.4 480 76.8-76.8z" />
<glyph unicode="&#xe96c;" glyph-name="arrow-right-2" d="M1030.4 460.8v0 0 0l-384 384-64-64 268.8-275.2h-844.8v-96h844.8c-115.2-121.6-249.6-256-268.8-268.8l32-38.4 19.2-44.8c12.8 6.4 19.2 12.8 352 352l44.8 51.2z" />
<glyph unicode="&#xe96d;" glyph-name="arrow-left-2" d="M-6.4 435.2v0 0 0l384-384 64 64-268.8 275.2h844.8v96h-844.8c115.2 121.6 249.6 256 268.8 268.8l-32 38.4-19.2 44.8c-12.8-6.4-19.2-12.8-352-352l-44.8-51.2z" />
<glyph unicode="&#xe96e;" glyph-name="arrow-down-2" d="M524.8-64v0 0 0l384 384-64 64-275.2-268.8v844.8h-89.6v-844.8c-121.6 115.2-256 249.6-268.8 268.8l-44.8-32-38.4-19.2c6.4-12.8 12.8-19.2 352-352l44.8-44.8z" />
<glyph unicode="&#xe96f;" glyph-name="replied-on" d="M480 230.4c0 44.8 0 83.2 0 128 217.6-19.2 364.8-134.4 448-332.8-12.8 121.6-64 230.4-147.2 320-76.8 89.6-172.8 147.2-300.8 166.4 0 38.4 0 76.8 0 115.2-70.4-64-140.8-128-211.2-198.4 70.4-64 140.8-128 211.2-198.4zM0 960v-1024h1024v1024h-1024zM96 864h832v-832h-832v832z" />
<glyph unicode="&#xe970;" glyph-name="double-arrow-left" d="M89.6 448l435.2 512 70.4-57.6-390.4-454.4 390.4-454.4-70.4-57.6zM428.8 448l435.2 512 70.4-57.6-384-454.4 384-454.4-70.4-57.6z" />
<glyph unicode="&#xe971;" glyph-name="double-arrow-right" d="M934.4 448l-435.2-512-70.4 57.6 390.4 454.4-390.4 454.4 70.4 57.6zM595.2 448l-435.2-512-70.4 57.6 384 454.4-384 454.4 70.4 57.6z" />
<glyph unicode="&#xe972;" glyph-name="forward" d="M512 960c281.6 0 512-230.4 512-512s-230.4-512-512-512-512 230.4-512 512c0 281.6 230.4 512 512 512zM512 25.6c230.4 0 422.4 185.6 422.4 422.4 0 230.4-185.6 422.4-422.4 422.4s-422.4-192-422.4-422.4c0-230.4 192-422.4 422.4-422.4zM678.4 460.8c-51.2-57.6-102.4-115.2-160-172.8-6.4 12.8-19.2 19.2-32 32 44.8 44.8 83.2 96 128 140.8-38.4 44.8-83.2 89.6-128 134.4 12.8 12.8 25.6 19.2 32 32 57.6-57.6 108.8-115.2 160-166.4zM563.2 460.8c-51.2-57.6-108.8-115.2-160-172.8-12.8 12.8-19.2 19.2-32 32 44.8 44.8 83.2 96 128 140.8-44.8 44.8-83.2 89.6-128 140.8 12.8 6.4 19.2 12.8 32 25.6 51.2-57.6 108.8-115.2 160-166.4z" />
<glyph unicode="&#xe973;" glyph-name="group" d="M441.6 32h-345.6v832h345.6v96h-441.6v-1024h441.6zM243.2 723.2h147.2v-147.2h-147.2v147.2zM243.2 518.4h147.2v-147.2h-147.2v147.2zM243.2 320h147.2v-147.2h-147.2v147.2zM454.4 723.2h147.2v-147.2h-147.2v147.2zM454.4 518.4h147.2v-147.2h-147.2v147.2zM454.4 320h147.2v-147.2h-147.2v147.2zM665.6 723.2h147.2v-147.2h-147.2v147.2zM665.6 518.4h147.2v-147.2h-147.2v147.2zM665.6 320h147.2v-147.2h-147.2v147.2z" />
<glyph unicode="&#xe974;" glyph-name="group-users" horiz-adv-x="1018" d="M438.857 31.404h-343.453v833.193h343.453v95.404h-438.857v-1024h438.857zM292.571 457.54c-25.441 0-44.522 19.081-44.522 44.522s19.081 44.522 44.522 44.522c25.441 0 44.522-19.081 44.522-44.522s-19.081-44.522-44.522-44.522zM375.255 349.416h-165.366v31.801c0 44.522 38.161 63.602 57.242 63.602v0h38.161c50.882 0 63.602-38.161 63.602-63.602v-31.801zM292.571 209.491c-25.441 0-44.522 19.081-44.522 44.522s19.081 44.522 44.522 44.522c25.441 0 44.522-19.081 44.522-44.522s-19.081-44.522-44.522-44.522zM375.255 95.006h-165.366v38.161c0 44.522 38.161 63.602 57.242 63.602v0h38.161c50.882 0 63.602-38.161 63.602-63.602v-38.161zM292.571 705.59c-25.441 0-50.882 25.441-50.882 50.882s19.081 44.522 44.522 44.522c25.441 0 44.522-19.081 44.522-44.522s-12.72-50.882-38.161-50.882zM375.255 597.466h-165.366v38.161c0 44.522 38.161 63.602 57.242 63.602v0h38.161c50.882 0 63.602-38.161 63.602-63.602v-38.161zM508.82 457.54c-25.441 0-44.522 19.081-44.522 44.522s19.081 44.522 44.522 44.522 44.522-19.081 44.522-44.522c0-25.441-19.081-44.522-44.522-44.522zM591.503 349.416h-165.366v31.801c0 44.522 38.161 63.602 57.242 63.602v0h38.161c50.882 0 63.602-38.161 63.602-63.602v-31.801zM508.82 209.491c-25.441 0-44.522 19.081-44.522 44.522s19.081 44.522 44.522 44.522 44.522-19.081 44.522-44.522c0-25.441-19.081-44.522-44.522-44.522zM591.503 95.006h-165.366v38.161c0 44.522 38.161 63.602 57.242 63.602v0h38.161c50.882 0 63.602-38.161 63.602-63.602v-38.161zM508.82 705.59c-25.441 0-44.522 25.441-44.522 50.882s19.081 44.522 44.522 44.522 44.522-19.081 44.522-44.522-19.081-50.882-44.522-50.882zM591.503 597.466h-165.366v38.161c0 44.522 38.161 63.602 57.242 63.602v0h38.161c50.882 0 63.602-38.161 63.602-63.602v-38.161zM725.068 457.54c-25.441 0-44.522 19.081-44.522 44.522s19.081 44.522 44.522 44.522c25.441 0 44.522-19.081 44.522-44.522 6.36-25.441-19.081-44.522-44.522-44.522zM807.752 349.416h-165.366v31.801c0 44.522 38.161 63.602 57.242 63.602v0h38.161c50.882 0 63.602-38.161 63.602-63.602v-31.801zM725.068 209.491c-25.441 0-44.522 19.081-44.522 44.522s19.081 44.522 44.522 44.522c25.441 0 44.522-19.081 44.522-44.522 6.36-25.441-19.081-44.522-44.522-44.522zM807.752 95.006h-165.366v38.161c0 44.522 38.161 63.602 57.242 63.602v0h38.161c50.882 0 63.602-38.161 63.602-63.602v-38.161zM725.068 705.59c-25.441 0-44.522 19.081-44.522 44.522s19.081 44.522 44.522 44.522c25.441 0 44.522-19.081 44.522-44.522s-19.081-44.522-44.522-44.522zM807.752 597.466h-165.366v38.161c0 44.522 38.161 63.602 57.242 63.602v0h38.161c50.882 0 63.602-38.161 63.602-63.602v-38.161z" />
<glyph unicode="&#xe975;" glyph-name="affix-plus" horiz-adv-x="1331" d="M915.2-64l-486.4 492.8c0 0-83.2 70.4-89.6 185.6 0 83.2 32 166.4 115.2 243.2 70.4 70.4 140.8 102.4 224 102.4 121.6-6.4 204.8-96 211.2-102.4l371.2-364.8c6.4-6.4 64-64 64-147.2 0-57.6-25.6-115.2-83.2-166.4-38.4-32-83.2-51.2-128-51.2-102.4 6.4-185.6 96-192 102.4l-313.6 326.4 70.4 70.4 313.6-320c19.2-19.2 76.8-70.4 121.6-76.8 19.2 0 38.4 6.4 57.6 25.6 32 32 51.2 64 51.2 96 0 44.8-32 76.8-32 76.8l-377.6 364.8c0 6.4-64 70.4-140.8 70.4-51.2 0-102.4-25.6-147.2-70.4-64-64-89.6-121.6-89.6-172.8 0-70.4 57.6-115.2 57.6-115.2l492.8-499.2-70.4-70.4zM262.4 486.4h-89.6v89.6h-70.4v-89.6h-96v-76.8h96v-89.6h70.4v89.6h89.6z" />
<glyph unicode="&#xe976;" glyph-name="draft-line" d="M582.4 960v0h-454.4v-1024h768v704l-313.6 320zM800 32h-576v832h313.6v-262.4h262.4v-569.6z" />
<glyph unicode="&#xe977;" glyph-name="mobile-menu-h" d="M774.4 448c0 70.4 57.6 121.6 128 121.6s121.6-51.2 121.6-121.6-57.6-121.6-121.6-121.6-128 51.2-128 121.6zM960 448c0 32-25.6 57.6-57.6 57.6s-64-25.6-64-57.6 25.6-57.6 57.6-57.6 64 25.6 64 57.6zM390.4 448c0 70.4 51.2 121.6 121.6 121.6s121.6-57.6 121.6-121.6c0-70.4-57.6-121.6-121.6-121.6-70.4 0-121.6 51.2-121.6 121.6zM569.6 448c0 32-25.6 57.6-57.6 57.6s-57.6-25.6-57.6-57.6 25.6-57.6 57.6-57.6 57.6 25.6 57.6 57.6zM0 448c0 70.4 57.6 121.6 121.6 121.6 70.4 0 121.6-57.6 121.6-121.6 0-70.4-57.6-121.6-121.6-121.6s-121.6 51.2-121.6 121.6zM185.6 448c0 32-25.6 57.6-57.6 57.6s-64-25.6-64-57.6 25.6-57.6 57.6-57.6 64 25.6 64 57.6z" />
<glyph unicode="&#xe978;" glyph-name="flagged-red-old" d="M0-64h1024l-409.6 512 409.6 512c-358.4 0-1024 0-1024 0z" />
<glyph unicode="&#xe979;" glyph-name="forward-old" d="M70.4 352c57.6 96 204.8 243.2 396.8 243.2v89.6c6.4 25.6 25.6 44.8 51.2 44.8s32-19.2 44.8-25.6l204.8-211.2c19.2-19.2 25.6-25.6 25.6-44.8 0-25.6-12.8-25.6-25.6-44.8l-204.8-211.2c-12.8-12.8-25.6-25.6-44.8-25.6-25.6 0-44.8 25.6-44.8 44.8v96h-89.6c-89.6-6.4-249.6-76.8-268.8-140.8v-115.2h793.6v793.6h-793.6v-230.4h-115.2v288c0 32 25.6 57.6 57.6 57.6h908.8c32 0 57.6-25.6 57.6-57.6v-908.8c0-25.6-25.6-57.6-57.6-57.6h-908.8c-32 0-57.6 25.6-57.6 57.6 0 0 0 166.4 0 217.6 0 38.4 44.8 108.8 70.4 140.8z" />
<glyph unicode="&#xe97a;" glyph-name="replied-old" d="M953.6 352c-57.6 96-204.8 243.2-396.8 243.2v89.6c-6.4 25.6-25.6 44.8-51.2 44.8s-32-12.8-44.8-25.6l-204.8-211.2c-19.2-19.2-25.6-19.2-25.6-44.8s12.8-25.6 25.6-44.8l204.8-211.2c12.8-12.8 25.6-25.6 44.8-25.6 25.6 0 44.8 25.6 44.8 44.8v96h89.6c89.6-6.4 249.6-76.8 268.8-140.8v-115.2h-793.6v793.6h793.6v-230.4h115.2v288c0 32-25.6 57.6-57.6 57.6h-908.8c-32 0-57.6-25.6-57.6-57.6v-908.8c0-32 25.6-57.6 57.6-57.6h908.8c25.6 0 57.6 25.6 57.6 57.6 0 0 0 166.4 0 217.6 0 38.4-44.8 108.8-70.4 140.8z" />
<glyph unicode="&#xe97b;" glyph-name="inbox-old" d="M0-64h1024v1024h-1024v-1024zM448 704v-128h-192l256-320 256 320h-192v128h320v-640h-768v640h320zM448 704v256h128v-256h-128zM320 960h384v-256h-384v256z" />
<glyph unicode="&#xe97c;" glyph-name="sent-old" d="M1024 448l-416-409.6-96 89.6 326.4 320-326.4 320 89.6 89.6 422.4-409.6zM672 448l-416-409.6-89.6 89.6 262.4 256h-428.8v128h422.4l-256 256 89.6 89.6c0 0 416-409.6 416-409.6z" />
<glyph unicode="&#xe97d;" glyph-name="out-rotate" d="M627.2 825.6v-185.6h-89.6v115.2l-390.4 89.6v-793.6l390.4 83.2v121.6h89.6v-198.4l-569.6-121.6v1024zM377.6 403.2v89.6h422.4l-102.4 108.8 64 57.6 204.8-211.2-204.8-217.6-64 64 102.4 108.8z" />
</font>
</defs>
</svg>
