<?xml version="1.0" encoding="utf-8"?>
<!-- Generator: Adobe Illustrator 16.2.0, SVG Export Plug-In . SVG Version: 6.00 Build 0)  -->
<!DOCTYPE svg PUBLIC "-//W3C//DTD SVG 1.1//EN" "http://www.w3.org/Graphics/SVG/1.1/DTD/svg11.dtd">
<svg version="1.1" id="Слой_1" xmlns="http://www.w3.org/2000/svg" xmlns:xlink="http://www.w3.org/1999/xlink" x="0px" y="0px"
	 width="118px" height="28px" viewBox="0 0 118 28" enable-background="new 0 0 118 28" xml:space="preserve">
<g>
	<path fill="#FFFFFF" d="M113.547,20.983l-3.846-6.389l-2.361,2.259v3.501c0,0.85-0.221,1.503-0.662,1.96S105.729,23,105.153,23
		c-0.67,0-1.196-0.226-1.58-0.677c-0.382-0.452-0.573-1.119-0.573-2.001V3.001c0-0.978,0.186-1.724,0.559-2.233
		C103.931,0.256,104.462,0,105.153,0c0.671,0,1.203,0.232,1.596,0.694c0.395,0.463,0.591,1.145,0.591,2.05v9.221l4.899-5.195
		c0.606-0.646,1.069-1.087,1.389-1.323c0.318-0.237,0.707-0.355,1.165-0.355c0.541,0,0.993,0.175,1.355,0.525
		c0.361,0.349,0.543,0.787,0.543,1.314c0,0.645-0.591,1.505-1.771,2.581l-2.314,2.146l4.469,7.099
		c0.33,0.527,0.565,0.929,0.709,1.203c0.145,0.272,0.216,0.534,0.216,0.781c0,0.7-0.189,1.251-0.566,1.654
		C117.055,22.798,116.558,23,115.94,23c-0.532,0-0.941-0.145-1.229-0.435C114.426,22.274,114.037,21.748,113.547,20.983z"/>
	<path fill="#FFFFFF" d="M51.242,4.999c-0.98,0-1.674,0.787-1.674,1.55V7.14c-1.531-1.31-3.515-2.134-5.664-2.134
		C39.178,4.999,35,9.007,35,14.014c0,4.602,3.977,8.985,8.904,8.985c1.986,0,4.131-0.773,5.652-2.076l0.008,0.424
		c0,0.822,0.641,1.652,1.688,1.652c1.207,0,1.748-0.952,1.748-1.725V6.643C53.006,5.953,52.258,4.999,51.242,4.999L51.242,4.999z
		 M43.893,19.67c-3.109,0-5.635-2.536-5.635-5.676c0-3.135,2.525-5.673,5.635-5.673c3.121,0,5.648,2.538,5.648,5.673
		C49.537,17.134,47.01,19.67,43.893,19.67L43.893,19.67z"/>
	<path fill="#FFFFFF" d="M60,20.999c0,1.105-0.896,2-2,2l0,0c-1.105,0-2-0.895-2-2v-14c0-1.103,0.895-2,2-2l0,0c1.104,0,2,0.897,2,2
		V20.999z"/>
	<circle fill="#FFFFFF" cx="58" cy="1.999" r="2"/>
	<path fill="#FFFFFF" d="M67,21c0,1.105-0.896,2-2,2l0,0c-1.105,0-2-0.895-2-2V2c0-1.104,0.895-1.999,2-1.999l0,0
		c1.104,0,2,0.896,2,1.999V21z"/>
	<circle fill="#FFFFFF" cx="72" cy="20.999" r="2"/>
	<path fill="#FFFFFF" d="M32,28H5c-2.762,0-5-2.238-5-5.001V0h24c4.387,0,8,3.447,8,8V28z M18.949,10.069
		c0.276-0.551,0.662-0.989,1.158-1.315c0.496-0.328,1.021-0.49,1.574-0.49c0.686,0,1.197,0.183,1.536,0.551
		c0.337,0.366,0.544,0.822,0.622,1.362c0.076,0.541,0.115,1.263,0.115,2.161v8.028c0,0.868,0.201,1.523,0.605,1.967
		c0.404,0.444,0.924,0.666,1.56,0.666c0.653,0,1.182-0.219,1.581-0.657c0.399-0.44,0.599-1.099,0.599-1.976v-9.162
		c0-1.625-0.179-2.814-0.538-3.569c-0.409-0.837-1.028-1.481-1.857-1.93c-0.828-0.45-1.816-0.674-2.963-0.674
		c-0.982,0-1.879,0.206-2.688,0.62S18.688,6.7,17.98,7.559c-0.49-0.849-1.115-1.481-1.873-1.899
		c-0.758-0.42-1.663-0.628-2.717-0.628c-1.014,0-1.936,0.204-2.765,0.613C9.797,6.053,9.02,6.69,8.293,7.559V7.159
		c0-0.673-0.193-1.202-0.576-1.586C7.333,5.191,6.854,4.999,6.281,4.999c-0.594,0-1.074,0.206-1.436,0.614
		C4.481,6.021,4.3,6.618,4.3,7.405v12.961c0,0.868,0.202,1.523,0.606,1.967c0.404,0.444,0.924,0.666,1.559,0.666
		c0.646,0,1.164-0.222,1.559-0.666c0.395-0.443,0.592-1.099,0.592-1.967v-6.65c0-1.756,0.217-3.105,0.652-4.044
		c0.435-0.94,1.338-1.408,2.71-1.408c0.685,0,1.188,0.186,1.505,0.559c0.316,0.373,0.512,0.85,0.584,1.432
		c0.07,0.582,0.107,1.4,0.107,2.45v7.662c0,0.877,0.195,1.535,0.591,1.976c0.394,0.438,0.907,0.657,1.544,0.657
		c0.654,0,1.182-0.219,1.581-0.657c0.398-0.44,0.599-1.099,0.599-1.976v-6.559C18.488,12.021,18.643,10.775,18.949,10.069z"/>
	<path fill="#FFFFFF" d="M90.188,13.809v6.559c0,0.877-0.2,1.535-0.599,1.976C89.19,22.781,88.663,23,88.009,23
		c-0.637,0-1.15-0.219-1.544-0.657c-0.396-0.44-0.591-1.099-0.591-1.976v-7.662c0-1.05-0.037-1.868-0.107-2.45
		c-0.072-0.582-0.268-1.059-0.584-1.432c-0.317-0.373-0.82-0.559-1.505-0.559c-1.372,0-2.275,0.468-2.71,1.408
		c-0.436,0.938-0.652,2.288-0.652,4.044v6.65c0,0.868-0.197,1.523-0.592,1.967C79.329,22.778,78.811,23,78.165,23
		c-0.635,0-1.154-0.222-1.559-0.666C76.202,21.891,76,21.235,76,20.367V7.406c0-0.787,0.182-1.385,0.546-1.792
		C76.907,5.206,77.388,5,77.981,5c0.572,0,1.052,0.192,1.436,0.574c0.383,0.384,0.576,0.913,0.576,1.586V7.56
		c0.727-0.868,1.504-1.506,2.333-1.914c0.829-0.409,1.751-0.613,2.765-0.613c1.054,0,1.959,0.208,2.717,0.628
		c0.758,0.418,1.383,1.051,1.873,1.899c0.707-0.858,1.465-1.493,2.273-1.907s1.705-0.62,2.688-0.62c1.146,0,2.135,0.224,2.963,0.674
		c0.829,0.448,1.448,1.093,1.857,1.93C99.821,8.391,100,9.58,100,11.205v9.162c0,0.877-0.199,1.535-0.599,1.976
		C99.002,22.781,98.474,23,97.82,23c-0.636,0-1.155-0.222-1.56-0.666c-0.404-0.443-0.605-1.099-0.605-1.967v-8.028
		c0-0.898-0.039-1.62-0.115-2.161c-0.078-0.54-0.285-0.996-0.622-1.362c-0.339-0.368-0.851-0.551-1.536-0.551
		c-0.553,0-1.078,0.162-1.574,0.49c-0.496,0.326-0.882,0.765-1.158,1.315C90.343,10.776,90.188,12.022,90.188,13.809z"/>
	<path fill="#FFFFFF" d="M117.564,21.347"/>
</g>
</svg>
