<?xml version="1.0" encoding="utf-8"?>
<!-- Generator: Adobe Illustrator 16.2.0, SVG Export Plug-In . SVG Version: 6.00 Build 0)  -->
<!DOCTYPE svg PUBLIC "-//W3C//DTD SVG 1.1//EN" "http://www.w3.org/Graphics/SVG/1.1/DTD/svg11.dtd">
<svg version="1.1" id="Слой_1" xmlns="http://www.w3.org/2000/svg" xmlns:xlink="http://www.w3.org/1999/xlink" x="0px" y="0px"
	 width="113px" height="28px" viewBox="0 0 113 28" enable-background="new 0 0 113 28" xml:space="preserve">
<g>
	<path fill="#FF0000" d="M32,8.001c0-4.553-3.613-8-8-8H0V23c0,2.763,2.238,5.001,5,5.001h27V8.001z"/>
	<path fill="#333333" d="M51.242,5c-0.98,0-1.674,0.787-1.674,1.55v0.591c-1.531-1.31-3.515-2.134-5.664-2.134
		C39.178,5,35,9.008,35,14.015C35,18.616,38.977,23,43.904,23c1.986,0,4.131-0.773,5.652-2.076l0.008,0.424
		c0,0.822,0.641,1.652,1.688,1.652C52.459,23,53,22.048,53,21.275V6.644C53.006,5.954,52.258,5,51.242,5L51.242,5z M43.893,19.671
		c-3.109,0-5.635-2.536-5.635-5.676c0-3.135,2.525-5.673,5.635-5.673c3.121,0,5.648,2.538,5.648,5.673
		C49.537,17.135,47.01,19.671,43.893,19.671L43.893,19.671z"/>
	<g>
		<path fill="#333333" d="M60,21c0,1.105-0.896,2-2,2l0,0c-1.105,0-2-0.895-2-2V7c0-1.103,0.895-2,2-2l0,0c1.104,0,2,0.897,2,2V21z"
			/>
		<circle fill="#333333" cx="58" cy="2" r="2"/>
	</g>
	<path fill="#333333" d="M67,21c0,1.105-0.896,2-2,2l0,0c-1.105,0-2-0.895-2-2V2c0-1.104,0.895-1.999,2-1.999l0,0
		c1.104,0,2,0.896,2,1.999V21z"/>
	<path fill="#333333" d="M111.242,5c-0.98,0-1.674,0.787-1.674,1.55v0.591c-1.531-1.31-3.515-2.134-5.664-2.134
		C99.178,5,95,9.008,95,14.015C95,18.616,98.977,23,103.904,23c1.986,0,4.131-0.773,5.652-2.076l0.008,0.424
		c0,0.822,0.641,1.652,1.688,1.652c1.207,0,1.748-0.952,1.748-1.725V6.644C113.006,5.954,112.258,5,111.242,5L111.242,5z
		 M103.893,19.671c-3.109,0-5.635-2.536-5.635-5.676c0-3.135,2.525-5.673,5.635-5.673c3.121,0,5.648,2.538,5.648,5.673
		C109.537,17.135,107.01,19.671,103.893,19.671L103.893,19.671z"/>
	<circle fill="#333333" cx="72" cy="21" r="2"/>
	<path fill="#FFFFFF" d="M18.488,13.809v6.559c0,0.877-0.2,1.535-0.599,1.976C17.49,22.781,16.963,23,16.309,23
		c-0.637,0-1.15-0.219-1.544-0.657c-0.396-0.44-0.591-1.099-0.591-1.976v-7.662c0-1.05-0.037-1.868-0.107-2.45
		c-0.072-0.582-0.268-1.059-0.584-1.432c-0.317-0.373-0.82-0.559-1.505-0.559c-1.372,0-2.275,0.468-2.71,1.408
		c-0.436,0.938-0.652,2.288-0.652,4.044v6.65c0,0.868-0.197,1.523-0.592,1.967C7.629,22.778,7.11,23,6.465,23
		c-0.635,0-1.154-0.222-1.559-0.666C4.502,21.891,4.3,21.235,4.3,20.367V7.406c0-0.787,0.182-1.385,0.546-1.792
		C5.207,5.206,5.688,5,6.281,5c0.572,0,1.052,0.192,1.436,0.574C8.1,5.958,8.293,6.487,8.293,7.16V7.56
		c0.727-0.868,1.504-1.506,2.333-1.914c0.829-0.409,1.751-0.613,2.765-0.613c1.054,0,1.959,0.208,2.717,0.628
		c0.758,0.418,1.383,1.051,1.873,1.899c0.707-0.858,1.465-1.493,2.273-1.907s1.705-0.62,2.688-0.62c1.146,0,2.135,0.224,2.963,0.674
		c0.829,0.448,1.448,1.093,1.857,1.93C28.121,8.391,28.3,9.58,28.3,11.205v9.162c0,0.877-0.199,1.535-0.599,1.976
		C27.302,22.781,26.773,23,26.12,23c-0.636,0-1.155-0.222-1.56-0.666c-0.404-0.443-0.605-1.099-0.605-1.967v-8.028
		c0-0.898-0.039-1.62-0.115-2.161c-0.078-0.54-0.285-0.996-0.622-1.362c-0.339-0.368-0.851-0.551-1.536-0.551
		c-0.553,0-1.078,0.162-1.574,0.49c-0.496,0.326-0.882,0.765-1.158,1.315C18.643,10.776,18.488,12.022,18.488,13.809z"/>
	<g>
		<path fill="#333333" d="M80.912,2.362v6.33c0.781-0.809,1.572-1.433,2.381-1.861c0.81-0.428,1.815-0.637,3.007-0.637
			c1.373,0,2.582,0.32,3.618,0.972c1.034,0.652,1.841,1.597,2.418,2.834c0.567,1.248,0.855,2.712,0.855,4.415
			c0,1.246-0.158,2.404-0.475,3.445c-0.328,1.051-0.784,1.954-1.391,2.731c-0.607,0.766-1.345,1.355-2.216,1.778
			C88.252,22.794,87.292,23,86.255,23c-0.634,0-1.236-0.072-1.797-0.227c-0.563-0.154-1.037-0.355-1.437-0.603
			c-0.388-0.248-0.725-0.499-1.01-0.766c-0.273-0.266-0.648-0.654-1.1-1.187v0.419c0,0.771-0.184,1.357-0.562,1.759
			C79.983,22.799,79.51,23,78.93,23c-0.586,0-1.055-0.201-1.409-0.604C77.178,21.995,77,21.409,77,20.638V2.544
			c0-0.836,0.175-1.468,0.513-1.896C77.851,0.22,78.323,0,78.93,0c0.633,0,1.125,0.203,1.466,0.609
			C80.746,1.028,80.912,1.601,80.912,2.362z M81.111,14.668c0,1.655,0.379,2.918,1.127,3.799c0.758,0.892,1.747,1.326,2.977,1.326
			c1.037,0,1.936-0.451,2.683-1.353c0.759-0.902,1.138-2.202,1.138-3.889c0-1.097-0.157-2.038-0.47-2.826
			c-0.315-0.787-0.763-1.396-1.342-1.824c-0.57-0.428-1.243-0.648-2.009-0.648c-0.799,0-1.499,0.221-2.109,0.648
			c-0.624,0.429-1.114,1.043-1.459,1.866C81.289,12.578,81.111,13.546,81.111,14.668z"/>
	</g>
</g>
</svg>
