<?xml version="1.0" encoding="utf-8"?>
<!-- Generator: Adobe Illustrator 16.2.0, SVG Export Plug-In . SVG Version: 6.00 Build 0)  -->
<!DOCTYPE svg PUBLIC "-//W3C//DTD SVG 1.1//EN" "http://www.w3.org/Graphics/SVG/1.1/DTD/svg11.dtd">
<svg version="1.1" id="Слой_1" xmlns="http://www.w3.org/2000/svg" xmlns:xlink="http://www.w3.org/1999/xlink" x="0px" y="0px"
	 width="113px" height="28px" viewBox="0 0 113 28" enable-background="new 0 0 113 28" xml:space="preserve">
<g>
	<path fill="#FFFFFF" d="M51.242,5c-0.98,0-1.674,0.787-1.674,1.55v0.591c-1.531-1.31-3.515-2.134-5.664-2.134
		C39.178,5,35,9.008,35,14.015C35,18.616,38.977,23,43.904,23c1.986,0,4.131-0.773,5.652-2.076l0.008,0.424
		c0,0.822,0.641,1.652,1.688,1.652C52.459,23,53,22.048,53,21.275V6.644C53.006,5.954,52.258,5,51.242,5L51.242,5z M43.893,19.671
		c-3.109,0-5.635-2.536-5.635-5.676c0-3.135,2.525-5.673,5.635-5.673c3.121,0,5.648,2.538,5.648,5.673
		C49.537,17.135,47.01,19.671,43.893,19.671L43.893,19.671z"/>
	<g>
		<path fill="#FFFFFF" d="M60,21c0,1.105-0.896,2-2,2l0,0c-1.105,0-2-0.895-2-2V7c0-1.103,0.895-2,2-2l0,0c1.104,0,2,0.897,2,2V21z"
			/>
		<circle fill="#FFFFFF" cx="58" cy="2" r="2"/>
	</g>
	<path fill="#FFFFFF" d="M67,21c0,1.105-0.896,2-2,2l0,0c-1.105,0-2-0.895-2-2V2c0-1.104,0.895-1.999,2-1.999l0,0
		c1.104,0,2,0.896,2,1.999V21z"/>
	<path fill="#FFFFFF" d="M111.242,5c-0.98,0-1.674,0.787-1.674,1.55v0.591c-1.531-1.31-3.515-2.134-5.664-2.134
		C99.178,5,95,9.008,95,14.015C95,18.616,98.977,23,103.904,23c1.986,0,4.131-0.773,5.652-2.076l0.008,0.424
		c0,0.822,0.641,1.652,1.688,1.652c1.207,0,1.748-0.952,1.748-1.725V6.644C113.006,5.954,112.258,5,111.242,5L111.242,5z
		 M103.893,19.671c-3.109,0-5.635-2.536-5.635-5.676c0-3.135,2.525-5.673,5.635-5.673c3.121,0,5.648,2.538,5.648,5.673
		C109.537,17.135,107.01,19.671,103.893,19.671L103.893,19.671z"/>
	<circle fill="#FFFFFF" cx="72" cy="21" r="2"/>
	<path fill="#FFFFFF" d="M32,28.001H5c-2.762,0-5-2.238-5-5.001V0.001h24c4.387,0,8,3.447,8,8V28.001z M18.949,10.07
		c0.276-0.551,0.662-0.989,1.158-1.315c0.496-0.328,1.021-0.49,1.574-0.49c0.686,0,1.197,0.183,1.536,0.551
		c0.337,0.366,0.544,0.822,0.622,1.362c0.076,0.541,0.115,1.263,0.115,2.161v8.028c0,0.868,0.201,1.523,0.605,1.967
		C24.965,22.778,25.484,23,26.12,23c0.653,0,1.182-0.219,1.581-0.657c0.399-0.44,0.599-1.099,0.599-1.976v-9.162
		c0-1.625-0.179-2.814-0.538-3.569c-0.409-0.837-1.028-1.481-1.857-1.93c-0.828-0.45-1.816-0.674-2.963-0.674
		c-0.982,0-1.879,0.206-2.688,0.62S18.688,6.701,17.98,7.56c-0.49-0.849-1.115-1.481-1.873-1.899
		c-0.758-0.42-1.663-0.628-2.717-0.628c-1.014,0-1.936,0.204-2.765,0.613C9.797,6.054,9.02,6.691,8.293,7.56V7.16
		c0-0.673-0.193-1.202-0.576-1.586C7.333,5.192,6.854,5,6.281,5C5.688,5,5.207,5.206,4.846,5.614C4.481,6.021,4.3,6.619,4.3,7.406
		v12.961c0,0.868,0.202,1.523,0.606,1.967C5.311,22.778,5.83,23,6.465,23c0.646,0,1.164-0.222,1.559-0.666
		c0.395-0.443,0.592-1.099,0.592-1.967v-6.65c0-1.756,0.217-3.105,0.652-4.044c0.435-0.94,1.338-1.408,2.71-1.408
		c0.685,0,1.188,0.186,1.505,0.559c0.316,0.373,0.512,0.85,0.584,1.432c0.07,0.582,0.107,1.4,0.107,2.45v7.662
		c0,0.877,0.195,1.535,0.591,1.976C15.158,22.781,15.672,23,16.309,23c0.654,0,1.182-0.219,1.581-0.657
		c0.398-0.44,0.599-1.099,0.599-1.976v-6.559C18.488,12.022,18.643,10.776,18.949,10.07z"/>
	<g>
		<path fill="#FFFFFF" d="M80.912,2.362v6.33c0.781-0.809,1.572-1.433,2.381-1.861c0.81-0.428,1.815-0.637,3.007-0.637
			c1.373,0,2.582,0.32,3.618,0.972c1.034,0.652,1.841,1.597,2.418,2.834c0.567,1.248,0.855,2.712,0.855,4.415
			c0,1.246-0.158,2.404-0.475,3.445c-0.328,1.051-0.784,1.954-1.391,2.731c-0.607,0.766-1.345,1.355-2.216,1.778
			C88.252,22.794,87.292,23,86.255,23c-0.634,0-1.236-0.072-1.797-0.227c-0.563-0.154-1.037-0.355-1.437-0.603
			c-0.388-0.248-0.725-0.499-1.01-0.766c-0.273-0.266-0.648-0.654-1.1-1.187v0.419c0,0.771-0.184,1.357-0.562,1.759
			C79.983,22.799,79.51,23,78.93,23c-0.586,0-1.055-0.201-1.409-0.604C77.178,21.995,77,21.409,77,20.638V2.544
			c0-0.836,0.175-1.468,0.513-1.896C77.851,0.22,78.323,0,78.93,0c0.633,0,1.125,0.203,1.466,0.609
			C80.746,1.028,80.912,1.601,80.912,2.362z M81.111,14.668c0,1.655,0.379,2.918,1.127,3.799c0.758,0.892,1.747,1.326,2.977,1.326
			c1.037,0,1.936-0.451,2.683-1.353c0.759-0.902,1.138-2.202,1.138-3.889c0-1.097-0.157-2.038-0.47-2.826
			c-0.315-0.787-0.763-1.396-1.342-1.824c-0.57-0.428-1.243-0.648-2.009-0.648c-0.799,0-1.499,0.221-2.109,0.648
			c-0.624,0.429-1.114,1.043-1.459,1.866C81.289,12.578,81.111,13.546,81.111,14.668z"/>
	</g>
</g>
</svg>
