<?xml version="1.0" encoding="utf-8"?>
<!-- Generator: Adobe Illustrator 16.2.0, SVG Export Plug-In . SVG Version: 6.00 Build 0)  -->
<!DOCTYPE svg PUBLIC "-//W3C//DTD SVG 1.1//EN" "http://www.w3.org/Graphics/SVG/1.1/DTD/svg11.dtd">
<svg version="1.1" id="Слой_1" xmlns="http://www.w3.org/2000/svg" xmlns:xlink="http://www.w3.org/1999/xlink" x="0px" y="0px"
	 width="160px" height="28px" viewBox="0 0 160 28" enable-background="new 0 0 160 28" xml:space="preserve">
<g>
	<path fill="#FF0000" d="M32,8C32,3.447,28.386,0,24,0H0v23c0,2.762,2.238,5,5,5H32V8z"/>
	<path fill="#FFFFFF" d="M51.242,5c-0.98,0-1.674,0.787-1.674,1.549v0.592c-1.531-1.311-3.516-2.135-5.664-2.135
		C39.177,5,35,9.008,35,14.014C35,18.615,38.976,23,43.904,23c1.986,0,4.131-0.773,5.652-2.076l0.008,0.424
		c0,0.822,0.641,1.652,1.688,1.652C52.458,23,53,22.047,53,21.275V6.643C53.005,5.953,52.257,5,51.242,5L51.242,5z M43.892,19.67
		c-3.109,0-5.635-2.535-5.635-5.676c0-3.135,2.525-5.672,5.635-5.672c3.121,0,5.648,2.537,5.648,5.672
		C49.537,17.135,47.009,19.67,43.892,19.67L43.892,19.67z"/>
	<g>
		<path fill="#FFFFFF" d="M60,21c0,1.105-0.896,2-2,2l0,0c-1.105,0-2-0.895-2-2V7c0-1.104,0.895-2,2-2l0,0c1.104,0,2,0.896,2,2V21z"
			/>
		<circle fill="#FFFFFF" cx="58" cy="2" r="2"/>
	</g>
	<path fill="#FFFFFF" d="M67,21c0,1.105-0.896,2-2,2l0,0c-1.105,0-2-0.895-2-2V2c0-1.104,0.895-2,2-2l0,0c1.104,0,2,0.896,2,2V21z"
		/>
	<circle fill="#FFFFFF" cx="72" cy="21" r="2.001"/>
	<path fill="#FFFFFF" d="M18.489,13.809v6.559c0,0.877-0.201,1.535-0.6,1.975S16.961,23,16.307,23c-0.635,0-1.148-0.219-1.543-0.658
		s-0.59-1.098-0.59-1.975v-7.662c0-1.051-0.037-1.869-0.109-2.451c-0.07-0.582-0.266-1.059-0.582-1.432
		c-0.318-0.373-0.82-0.559-1.506-0.559c-1.371,0-2.275,0.469-2.709,1.408c-0.436,0.939-0.652,2.289-0.652,4.045v6.65
		c0,0.867-0.199,1.523-0.592,1.967C7.629,22.777,7.11,23,6.465,23c-0.635,0-1.154-0.223-1.559-0.666
		c-0.406-0.443-0.607-1.1-0.607-1.967V7.406c0-0.787,0.182-1.385,0.545-1.793S5.686,5,6.282,5c0.572,0,1.051,0.191,1.436,0.574
		C8.1,5.957,8.292,6.486,8.292,7.16v0.398c0.727-0.867,1.506-1.506,2.334-1.914c0.83-0.408,1.752-0.613,2.766-0.613
		c1.053,0,1.959,0.209,2.717,0.629c0.758,0.418,1.383,1.051,1.873,1.898c0.707-0.857,1.463-1.492,2.273-1.906
		c0.809-0.414,1.703-0.621,2.688-0.621c1.145,0,2.133,0.225,2.963,0.674c0.827,0.449,1.446,1.094,1.856,1.93
		c0.359,0.756,0.537,1.945,0.537,3.57v9.162c0,0.877-0.199,1.535-0.598,1.975C27.3,22.781,26.773,23,26.12,23
		c-0.637,0-1.154-0.223-1.559-0.666c-0.406-0.443-0.607-1.1-0.607-1.967v-8.029c0-0.898-0.037-1.619-0.113-2.16
		c-0.078-0.541-0.285-0.996-0.623-1.363s-0.85-0.551-1.535-0.551c-0.553,0-1.078,0.162-1.574,0.49
		c-0.496,0.326-0.883,0.766-1.16,1.316C18.641,10.775,18.489,12.021,18.489,13.809z"/>
	<g>
		<path fill="#FFFFFF" d="M89.639,6.599c0-0.403,0.033-1.671,1.301-1.671c1.301,0,1.301,1.145,1.301,2.415v12.261
			c0,1.952-0.215,3.624-0.588,4.553c-1.455,3.653-5.943,3.778-7.277,3.778c-5.604,0-6.842-3.407-6.842-4.211
			c0-0.526,0.463-1.148,1.238-1.148c0.65,0,0.744,0.155,1.578,1.456c0.527,0.837,1.426,1.796,4.026,1.796
			c2.201,0,3.871-0.681,4.523-1.918c0.619-1.179,0.619-2.2,0.648-4.831c-0.836,0.835-2.57,2.508-5.48,2.508
			c-6.625,0-7.215-6.657-7.215-8.298c0-3.996,2.014-8.36,7.09-8.36c3.408,0,4.924,1.95,5.697,2.909V6.599z M89.547,13.441
			c0-4.18-2.105-6.408-4.986-6.408c-1.641,0-4.954,0.896-4.954,6.286c0,4.489,2.446,6.159,4.954,6.159
			C86.791,19.479,89.547,17.963,89.547,13.441z"/>
		<path fill="#FFFFFF" d="M97.043,6.63c0-0.743,0-1.702,1.174-1.702c1.148,0,1.148,0.959,1.148,1.702v1.239
			c1.082-1.674,1.918-2.941,3.9-2.941c1.33,0,3.189,0.679,3.189,1.827c0,0.773-0.682,1.237-1.084,1.237
			c-0.682,0-1.053-0.464-2.23-0.464c-2.879,0-3.404,3.127-3.404,6.813v5.82c0,1.362-0.93,1.548-1.332,1.548
			c-0.373,0-0.713-0.123-0.961-0.371c-0.4-0.341-0.4-0.896-0.4-1.827V6.63z"/>
		<path fill="#FFFFFF" d="M115.127,21.709c-5.049,0-7.557-3.716-7.557-8.08c0-5.606,2.848-8.701,7.557-8.701
			c4.057,0,7.553,2.476,7.553,8.392C122.68,19.233,119.152,21.709,115.127,21.709z M115.156,7.033c-3.064,0-4.83,2.507-4.83,6.286
			c0,3.838,1.797,6.284,4.83,6.284c3.035,0,4.768-2.477,4.768-6.284C119.924,9.324,118.037,7.033,115.156,7.033z"/>
		<path fill="#FFFFFF" d="M126.15,7.155c0-0.928,0-1.486,0.371-1.826c0.248-0.248,0.588-0.401,0.99-0.401
			c0.342,0,0.713,0.153,0.961,0.371c0.371,0.37,0.371,0.929,0.371,1.856v7.494c0,1.084,0,2.229,0.525,3.097
			c0.619,1.021,1.732,1.61,2.85,1.61c1.547,0,3.129-0.897,3.84-2.229c0.371-0.712,0.711-1.363,0.711-4.954V7.155
			c0-0.897,0-1.486,0.371-1.826c0.217-0.186,0.525-0.401,0.963-0.401c0.371,0,0.711,0.153,0.99,0.371
			c0.369,0.37,0.369,0.929,0.369,1.856v12.418c0,0.868,0,1.424-0.369,1.765c-0.186,0.186-0.527,0.371-0.93,0.371
			c-0.527,0-0.961-0.309-1.084-0.589c-0.188-0.433-0.217-0.834-0.217-2.197c-0.805,1.022-2.168,2.786-5.201,2.786
			c-1.643,0-3.871-0.649-4.738-2.353c-0.711-1.394-0.773-2.415-0.773-3.653V7.155z"/>
		<path fill="#FFFFFF" d="M152.316,4.928c5.82,0,7.152,5.449,7.152,8.546c0,3.405-1.549,8.235-7.092,8.235
			c-3.531,0-5.389-2.383-5.666-2.786v6.656c0,1.086,0,2.261-1.332,2.261c-1.363,0-1.363-1.207-1.363-2.229V7.063
			c0-0.898,0-1.457,0.373-1.765c0.246-0.248,0.588-0.371,0.928-0.371c1.301,0,1.301,1.36,1.301,1.827v0.959
			C147.391,6.785,148.908,4.928,152.316,4.928z M146.68,13.163c0,5.449,3.559,6.44,5.203,6.44c3.002,0,4.83-2.662,4.83-6.162
			c0-4.798-2.818-6.408-4.926-6.408C149.373,7.033,146.68,8.581,146.68,13.163z"/>
	</g>
</g>
</svg>
