<?xml version="1.0" encoding="utf-8"?>
<!-- Generator: Adobe Illustrator 16.2.0, SVG Export Plug-In . SVG Version: 6.00 Build 0)  -->
<!DOCTYPE svg PUBLIC "-//W3C//DTD SVG 1.1//EN" "http://www.w3.org/Graphics/SVG/1.1/DTD/svg11.dtd">
<svg version="1.1" id="Слой_1" xmlns="http://www.w3.org/2000/svg" xmlns:xlink="http://www.w3.org/1999/xlink" x="0px" y="0px"
	 width="107px" height="28px" viewBox="0 0 107 28" enable-background="new 0 0 107 28" xml:space="preserve">
<g>
	<path fill="#FF0000" d="M32,8.001c0-4.553-3.613-8-8-8H0V23c0,2.763,2.238,5.001,5,5.001h27V8.001z"/>
	<path fill="#FFFFFF" d="M51.242,5c-0.98,0-1.674,0.787-1.674,1.55v0.591c-1.531-1.31-3.514-2.134-5.664-2.134
		C39.178,5,35,9.008,35,14.015C35,18.616,38.977,23,43.904,23c1.986,0,4.131-0.773,5.652-2.076l0.008,0.424
		c0,0.822,0.641,1.652,1.688,1.652C52.459,23,53,22.048,53,21.275V6.644C53.006,5.954,52.258,5,51.242,5L51.242,5z M43.893,19.671
		c-3.109,0-5.635-2.536-5.635-5.676c0-3.135,2.525-5.673,5.635-5.673c3.121,0,5.648,2.538,5.648,5.673
		C49.537,17.135,47.01,19.671,43.893,19.671L43.893,19.671z"/>
	<g>
		<path fill="#FFFFFF" d="M60,21c0,1.105-0.896,2-2,2l0,0c-1.105,0-2-0.895-2-2V7c0-1.103,0.895-2,2-2l0,0c1.104,0,2,0.897,2,2V21z"
			/>
		<circle fill="#FFFFFF" cx="58" cy="2" r="2"/>
	</g>
	<path fill="#FFFFFF" d="M67,21c0,1.105-0.896,2-2,2l0,0c-1.105,0-2-0.895-2-2V2c0-1.104,0.895-1.999,2-1.999l0,0
		c1.104,0,2,0.896,2,1.999V21z"/>
	<circle fill="#FFFFFF" cx="72" cy="21" r="2"/>
	<path fill="#FFFFFF" d="M18.488,13.809v6.559c0,0.877-0.2,1.535-0.599,1.976C17.49,22.781,16.963,23,16.309,23
		c-0.637,0-1.15-0.219-1.544-0.657c-0.396-0.44-0.591-1.099-0.591-1.976v-7.662c0-1.05-0.037-1.868-0.107-2.45
		c-0.072-0.582-0.268-1.059-0.584-1.432c-0.317-0.373-0.82-0.559-1.505-0.559c-1.372,0-2.275,0.468-2.71,1.408
		c-0.436,0.938-0.652,2.288-0.652,4.044v6.65c0,0.868-0.197,1.523-0.592,1.967C7.629,22.778,7.11,23,6.465,23
		c-0.635,0-1.154-0.222-1.559-0.666C4.502,21.891,4.3,21.235,4.3,20.367V7.406c0-0.787,0.182-1.385,0.546-1.792
		C5.207,5.206,5.688,5,6.281,5c0.572,0,1.052,0.192,1.436,0.574C8.1,5.958,8.293,6.487,8.293,7.16V7.56
		c0.727-0.868,1.504-1.506,2.333-1.914c0.829-0.409,1.751-0.613,2.765-0.613c1.054,0,1.959,0.208,2.717,0.628
		c0.758,0.418,1.383,1.051,1.873,1.899c0.707-0.858,1.465-1.493,2.273-1.907s1.705-0.62,2.688-0.62c1.146,0,2.135,0.224,2.963,0.674
		c0.829,0.448,1.448,1.093,1.857,1.93C28.121,8.391,28.3,9.58,28.3,11.205v9.162c0,0.877-0.199,1.535-0.599,1.976
		C27.302,22.781,26.773,23,26.12,23c-0.636,0-1.155-0.222-1.56-0.666c-0.404-0.443-0.605-1.099-0.605-1.967v-8.028
		c0-0.898-0.039-1.62-0.115-2.161c-0.078-0.54-0.285-0.996-0.622-1.362c-0.339-0.368-0.851-0.551-1.536-0.551
		c-0.553,0-1.078,0.162-1.574,0.49c-0.496,0.326-0.882,0.765-1.158,1.315C18.643,10.776,18.488,12.022,18.488,13.809z"/>
	<g>
		<path fill="#FFFFFF" d="M81.139,2.516v6.15c0.531-0.606,1.047-1.094,1.545-1.439c0.498-0.356,1.055-0.625,1.66-0.803
			c0.607-0.179,1.26-0.268,1.957-0.268c1.053,0,1.98,0.225,2.803,0.67c0.811,0.448,1.445,1.086,1.914,1.938
			c0.293,0.496,0.492,1.053,0.588,1.662c0.107,0.62,0.154,1.321,0.154,2.125v7.931c0,0.832-0.184,1.459-0.564,1.884
			C90.814,22.78,90.314,23,89.688,23c-1.367,0-2.045-0.835-2.045-2.519v-7c0-1.325-0.201-2.34-0.6-3.056
			c-0.389-0.705-1.145-1.063-2.246-1.063c-0.74,0-1.398,0.206-1.996,0.629c-0.588,0.412-1.035,0.991-1.326,1.715
			c-0.225,0.623-0.336,1.722-0.336,3.297v5.478c0,0.815-0.182,1.441-0.547,1.87C80.217,22.779,79.701,23,79.047,23
			C77.68,23,77,22.165,77,20.481V2.516c0-0.834,0.18-1.464,0.541-1.887C77.898,0.205,78.398,0,79.047,0
			c0.654,0,1.17,0.206,1.545,0.632C80.957,1.058,81.139,1.687,81.139,2.516z"/>
		<path fill="#FFFFFF" d="M98.975,17.022v3.459c0,0.837-0.199,1.466-0.598,1.889C97.988,22.794,97.49,23,96.883,23
			c-0.6,0-1.094-0.22-1.475-0.635c-0.385-0.425-0.582-1.052-0.582-1.884V8.944c0-1.851,0.674-2.788,2.02-2.788
			c0.693,0,1.188,0.221,1.484,0.652c0.311,0.441,0.473,1.078,0.508,1.93c0.496-0.852,0.998-1.488,1.516-1.93
			c0.531-0.432,1.227-0.652,2.1-0.652c0.861,0,1.711,0.221,2.525,0.652c0.824,0.441,1.232,1.011,1.232,1.729
			c0,0.511-0.178,0.922-0.521,1.255c-0.354,0.332-0.732,0.492-1.137,0.492c-0.145,0-0.518-0.091-1.102-0.285
			c-0.582-0.184-1.086-0.275-1.533-0.275c-0.607,0-1.102,0.158-1.484,0.475c-0.395,0.317-0.689,0.801-0.896,1.417
			c-0.219,0.629-0.359,1.372-0.445,2.242S98.975,15.773,98.975,17.022z"/>
	</g>
</g>
</svg>
