<?xml version="1.0" encoding="utf-8"?>
<!-- Generator: Adobe Illustrator 16.2.0, SVG Export Plug-In . SVG Version: 6.00 Build 0)  -->
<!DOCTYPE svg PUBLIC "-//W3C//DTD SVG 1.1//EN" "http://www.w3.org/Graphics/SVG/1.1/DTD/svg11.dtd">
<svg version="1.1" id="Слой_1" xmlns="http://www.w3.org/2000/svg" xmlns:xlink="http://www.w3.org/1999/xlink" x="0px" y="0px"
	 width="107px" height="28px" viewBox="0 0 107 28" enable-background="new 0 0 107 28" xml:space="preserve">
<g>
	<path fill="#FFFFFF" d="M51.242,5c-0.98,0-1.674,0.787-1.674,1.55v0.591c-1.531-1.31-3.514-2.134-5.664-2.134
		C39.178,5,35,9.008,35,14.015C35,18.616,38.977,23,43.904,23c1.986,0,4.131-0.773,5.652-2.076l0.008,0.424
		c0,0.822,0.641,1.652,1.688,1.652C52.459,23,53,22.048,53,21.275V6.644C53.006,5.954,52.258,5,51.242,5L51.242,5z M43.893,19.671
		c-3.109,0-5.635-2.536-5.635-5.676c0-3.135,2.525-5.673,5.635-5.673c3.121,0,5.648,2.538,5.648,5.673
		C49.537,17.135,47.01,19.671,43.893,19.671L43.893,19.671z"/>
	<g>
		<path fill="#FFFFFF" d="M60,21c0,1.105-0.896,2-2,2l0,0c-1.105,0-2-0.895-2-2V7c0-1.103,0.895-2,2-2l0,0c1.104,0,2,0.897,2,2V21z"
			/>
		<circle fill="#FFFFFF" cx="58" cy="2" r="2"/>
	</g>
	<path fill="#FFFFFF" d="M67,21c0,1.105-0.896,2-2,2l0,0c-1.105,0-2-0.895-2-2V2c0-1.104,0.895-1.999,2-1.999l0,0
		c1.104,0,2,0.896,2,1.999V21z"/>
	<circle fill="#FFFFFF" cx="72" cy="21" r="2"/>
	<path fill="#FFFFFF" d="M32,28.001H5c-2.762,0-5-2.238-5-5.001V0.001h24c4.387,0,8,3.447,8,8V28.001z M18.949,10.07
		c0.276-0.551,0.662-0.989,1.158-1.315c0.496-0.328,1.021-0.49,1.574-0.49c0.686,0,1.197,0.183,1.536,0.551
		c0.337,0.366,0.544,0.822,0.622,1.362c0.076,0.541,0.115,1.263,0.115,2.161v8.028c0,0.868,0.201,1.523,0.605,1.967
		C24.965,22.778,25.484,23,26.12,23c0.653,0,1.182-0.219,1.581-0.657c0.399-0.44,0.599-1.099,0.599-1.976v-9.162
		c0-1.625-0.179-2.814-0.538-3.569c-0.409-0.837-1.028-1.481-1.857-1.93c-0.828-0.45-1.816-0.674-2.963-0.674
		c-0.982,0-1.879,0.206-2.688,0.62S18.688,6.701,17.98,7.56c-0.49-0.849-1.115-1.481-1.873-1.899
		c-0.758-0.42-1.663-0.628-2.717-0.628c-1.014,0-1.936,0.204-2.765,0.613C9.797,6.054,9.02,6.691,8.293,7.56V7.16
		c0-0.673-0.193-1.202-0.576-1.586C7.333,5.192,6.854,5,6.281,5C5.688,5,5.207,5.206,4.846,5.614C4.481,6.021,4.3,6.619,4.3,7.406
		v12.961c0,0.868,0.202,1.523,0.606,1.967C5.311,22.778,5.83,23,6.465,23c0.646,0,1.164-0.222,1.559-0.666
		c0.395-0.443,0.592-1.099,0.592-1.967v-6.65c0-1.756,0.217-3.105,0.652-4.044c0.435-0.94,1.338-1.408,2.71-1.408
		c0.685,0,1.188,0.186,1.505,0.559c0.316,0.373,0.512,0.85,0.584,1.432c0.07,0.582,0.107,1.4,0.107,2.45v7.662
		c0,0.877,0.195,1.535,0.591,1.976C15.158,22.781,15.672,23,16.309,23c0.654,0,1.182-0.219,1.581-0.657
		c0.398-0.44,0.599-1.099,0.599-1.976v-6.559C18.488,12.022,18.643,10.776,18.949,10.07z"/>
	<g>
		<path fill="#FFFFFF" d="M81.139,2.516v6.15c0.531-0.606,1.047-1.094,1.545-1.439c0.498-0.356,1.055-0.625,1.66-0.803
			c0.607-0.179,1.26-0.268,1.957-0.268c1.053,0,1.98,0.225,2.803,0.67c0.811,0.448,1.445,1.086,1.914,1.938
			c0.293,0.496,0.492,1.053,0.588,1.662c0.107,0.62,0.154,1.321,0.154,2.125v7.931c0,0.832-0.184,1.459-0.564,1.884
			C90.814,22.78,90.314,23,89.688,23c-1.367,0-2.045-0.835-2.045-2.519v-7c0-1.325-0.201-2.34-0.6-3.056
			c-0.389-0.705-1.145-1.063-2.246-1.063c-0.74,0-1.398,0.206-1.996,0.629c-0.588,0.412-1.035,0.991-1.326,1.715
			c-0.225,0.623-0.336,1.722-0.336,3.297v5.478c0,0.815-0.182,1.441-0.547,1.87C80.217,22.779,79.701,23,79.047,23
			C77.68,23,77,22.165,77,20.481V2.516c0-0.834,0.18-1.464,0.541-1.887C77.898,0.205,78.398,0,79.047,0
			c0.654,0,1.17,0.206,1.545,0.632C80.957,1.058,81.139,1.687,81.139,2.516z"/>
		<path fill="#FFFFFF" d="M98.975,17.022v3.459c0,0.837-0.199,1.466-0.598,1.889C97.988,22.794,97.49,23,96.883,23
			c-0.6,0-1.094-0.22-1.475-0.635c-0.385-0.425-0.582-1.052-0.582-1.884V8.944c0-1.851,0.674-2.788,2.02-2.788
			c0.693,0,1.188,0.221,1.484,0.652c0.311,0.441,0.473,1.078,0.508,1.93c0.496-0.852,0.998-1.488,1.516-1.93
			c0.531-0.432,1.227-0.652,2.1-0.652c0.861,0,1.711,0.221,2.525,0.652c0.824,0.441,1.232,1.011,1.232,1.729
			c0,0.511-0.178,0.922-0.521,1.255c-0.354,0.332-0.732,0.492-1.137,0.492c-0.145,0-0.518-0.091-1.102-0.285
			c-0.582-0.184-1.086-0.275-1.533-0.275c-0.607,0-1.102,0.158-1.484,0.475c-0.395,0.317-0.689,0.801-0.896,1.417
			c-0.219,0.629-0.359,1.372-0.445,2.242S98.975,15.773,98.975,17.022z"/>
	</g>
</g>
</svg>
