<?xml version="1.0" encoding="utf-8"?>
<!-- Generator: Adobe Illustrator 16.2.0, SVG Export Plug-In . SVG Version: 6.00 Build 0)  -->
<!DOCTYPE svg PUBLIC "-//W3C//DTD SVG 1.1//EN" "http://www.w3.org/Graphics/SVG/1.1/DTD/svg11.dtd">
<svg version="1.1" id="Layer_1" xmlns="http://www.w3.org/2000/svg" xmlns:xlink="http://www.w3.org/1999/xlink" x="0px" y="0px"
	 width="800px" height="800px" viewBox="0 0 800 800" enable-background="new 0 0 800 800" xml:space="preserve">
<g>
	<rect x="434.712" y="216.168" fill="#666666" width="46.24" height="321.511"/>
	<path fill="#666666" d="M593.27,154.509c0,17.5-46.243,19.702-46.243,0c0-49.982-33.025-80.535-82.569-80.535
		c-54.571,0-82.585,30.553-82.585,80.535c0,19.056-46.242,20.871-46.242,0c0-49.982,33.88-124.337,128.827-124.337
		C567.947,30.172,593.27,104.527,593.27,154.509z"/>
	<path fill="#666666" d="M434.712,537.205c0-17.511,46.24-19.704,46.24,0c0,17.524,12.487,28.45,33.046,28.45
		c18.354,0,33.027-10.595,33.027-28.449c0-19.073,46.242-20.875,46.242,0c0,28.63-23.119,72.244-79.271,72.244
		C457.834,609.448,434.712,565.835,434.712,537.205z"/>
	<path fill="#666666" d="M335.629,589.494c0-17.512,46.242-19.705,46.242,0c0,79.838,52.843,130.865,132.127,130.865
		c79.271,0,132.13-51.027,132.13-130.865c0-19.057,46.243-20.874,46.243,0c0,79.838-46.243,174.678-178.373,174.678
		C381.871,764.172,335.629,669.332,335.629,589.494z"/>
	<rect x="547.026" y="154.509" fill="#666666" width="46.243" height="383.17"/>
	<rect x="335.629" y="154.509" fill="#666666" width="46.242" height="444.819"/>
	<rect x="646.128" y="216.168" fill="#666666" width="46.243" height="383.16"/>
</g>
<g>
	<rect x="147.04" y="275.592" fill="#666666" width="46.244" height="243.16"/>
	<rect x="48.581" y="374.051" fill="#666666" width="243.16" height="46.243"/>
</g>
</svg>
