<?xml version="1.0" encoding="utf-8"?>
<!-- Generator: Adobe Illustrator 21.0.0, SVG Export Plug-In . SVG Version: 6.00 Build 0)  -->
<svg version="1.1" id="Layer_1" xmlns="http://www.w3.org/2000/svg" xmlns:xlink="http://www.w3.org/1999/xlink" x="0px" y="0px"
	 viewBox="0 0 25 25" style="enable-background:new 0 0 25 25;" xml:space="preserve">
<style type="text/css">
	.st0{fill:#ffffff;}
</style>
<g>
	<path class="st0" d="M8.7,13.9h3.8c-0.1,0.1-0.1,0.4-0.3,0.6c-0.1,0.3-0.3,0.5-0.5,0.8c-0.1,0.3-0.4,0.5-0.8,0.6
		c-0.3,0.3-0.6,0.4-1,0.5c-0.4,0.1-0.9,0.3-1.4,0.3c-0.8,0-1.4-0.1-2-0.5c-0.6-0.4-1.1-0.9-1.5-1.5c-0.4-0.6-0.5-1.4-0.5-2.2
		S4.7,11,5,10.3c0.4-0.6,0.9-1.1,1.5-1.5c0.6-0.4,1.4-0.5,2.2-0.5c1,0,1.9,0.3,2.7,1l1.8-1.8C12,6.4,10.5,5.8,8.7,5.8
		c-1,0-1.8,0.1-2.7,0.5C5.2,6.7,4.5,7.1,3.9,7.7C3.4,8.3,2.9,9,2.5,9.8C2.1,10.7,2,11.6,2,12.5s0,1.8,0.4,2.7
		c0.4,0.9,0.8,1.5,1.4,2.2c0.6,0.5,1.3,1,2.2,1.4c0.9,0.4,1.8,0.5,2.7,0.5c1.3,0,2.4-0.4,3.4-0.9c1-0.5,1.8-1.3,2.3-2.3
		c0.5-1,0.8-2.2,0.8-3.4c0-0.4,0-0.8,0-1.1H8.7V13.9z"/>
	<polygon class="st0" points="21.1,11.5 21.1,9.6 19.2,9.6 19.2,11.5 17.3,11.5 17.3,13.5 19.2,13.5 19.2,15.3 21.1,15.3 21.1,13.4 
		23,13.4 23,11.5 	"/>
</g>
</svg>
