<?xml version="1.0" encoding="utf-8"?>
<!-- Generator: Adobe Illustrator 21.0.0, SVG Export Plug-In . SVG Version: 6.00 Build 0)  -->
<svg version="1.1" id="Layer_1" xmlns="http://www.w3.org/2000/svg" xmlns:xlink="http://www.w3.org/1999/xlink" x="0px" y="0px"
	 viewBox="0 0 25 25" style="enable-background:new 0 0 25 25;" xml:space="preserve">
<style type="text/css">
	.st0{fill:#fff;}
</style>
<path class="st0" d="M22.9,17.2c-0.3-0.5-0.5-0.8-0.8-1.1c-0.6-0.8-1.4-1.4-2-2.1c-0.6-0.6-0.6-0.9-0.2-1.7c0.6-0.8,1.1-1.5,1.7-2.3
	c0.5-0.6,0.9-1.4,1.2-2.1c0.2-0.6,0-0.8-0.6-0.9c-0.2,0-0.2,0-0.3,0h-3.4c-0.5,0-0.6,0.2-0.8,0.6c-0.2,0.5-0.5,0.9-0.6,1.5
	c-0.5,1.1-1.1,2.1-2,3c0,0-0.3,0.2-0.5,0.2c-0.5-0.2-0.6-0.8-0.6-1.1V7.5c0-0.6-0.2-0.8-0.8-0.9H9.9C9.5,6.5,9.2,6.7,9,7
	c0,0.2,0,0.3,0.2,0.3c0.6,0.2,0.9,0.6,1.1,1.1c0.2,0.9,0.2,1.8,0,2.7c0,0.3,0,0.6-0.2,0.8c-0.2,0.5-0.5,0.6-0.8,0.3
	C9,12,8.7,11.7,8.6,11.4C7.8,10.2,7,9,6.6,7.6C6.4,7.1,6.1,7,5.7,7c-1.1,0-2,0-3,0C2,7,1.8,7.3,2.2,7.9c1.1,2.4,2.3,4.7,3.8,6.9
	c0.8,1.1,1.7,2.1,2.9,2.7c1.5,0.8,2.9,0.9,4.4,0.9c0.8,0,0.9-0.2,0.9-0.9c0-0.5,0.2-0.9,0.3-1.4c0.3-0.6,0.8-0.6,1.1-0.3
	c0.2,0.2,0.5,0.3,0.6,0.5c0.5,0.5,0.8,0.9,1.2,1.4c0.5,0.6,1.2,0.9,2,0.8h3C22.9,18.4,23.2,17.8,22.9,17.2z"/>
</svg>
