<?xml version="1.0" encoding="utf-8"?>
<!-- Generator: Adobe Illustrator 21.0.0, SVG Export Plug-In . SVG Version: 6.00 Build 0)  -->
<svg version="1.1" id="Layer_1" xmlns="http://www.w3.org/2000/svg" xmlns:xlink="http://www.w3.org/1999/xlink" x="0px" y="0px"
	 viewBox="0 0 25 25" style="enable-background:new 0 0 25 25;" xml:space="preserve">
<style type="text/css">
	.st0{fill:#ffffff;}
</style>
<g>
	<path class="st0" d="M23,6c-0.6,0.9-1.3,1.7-2.2,2.2c0,0.2,0,0.4,0,0.6c0,1.1-0.2,2.2-0.6,3.5c-0.2,1.1-0.7,2.2-1.3,3.3
		c-0.7,0.9-1.5,1.9-2.6,2.8c-0.9,0.7-2,1.5-3.3,1.9S10.2,21,8.7,21C6.3,21,4,20.5,2,19.2c0.4,0,0.7,0,1.1,0c2,0,3.7-0.6,5.4-1.9
		c-0.9,0-1.9-0.4-2.6-0.9c-0.7-0.6-1.3-1.1-1.5-2c0.4,0,0.6,0,0.7,0c0.4,0,0.7,0,1.1-0.2c-0.9-0.2-1.9-0.6-2.4-1.5
		c-0.7-0.7-1.1-1.7-1.1-2.6l0,0c0.7,0.2,1.3,0.4,2,0.4C4.2,10.1,3.7,9.5,3.3,9c-0.2-0.6-0.4-1.3-0.4-2s0.2-1.5,0.6-2.2
		C4.6,6,5.9,7.1,7.4,7.9c1.5,0.9,3.2,1.3,5,1.3c0-0.4-0.2-0.7-0.2-0.9c0-1.1,0.4-2.2,1.3-3c0.9-0.7,1.9-1.3,3-1.3
		c1.3,0,2.2,0.4,3.2,1.3c0.9-0.2,1.9-0.6,2.8-1.1c-0.4,1.1-0.9,1.9-1.9,2.4C21.3,6.6,22.3,6.4,23,6z"/>
</g>
</svg>
