<svg xmlns="http://www.w3.org/2000/svg" xmlns:xlink="http://www.w3.org/1999/xlink" x="0px" y="0px"
	 viewBox="0 0 256 256" style="enable-background:new 0 0 256 256;" xml:space="preserve">
<path class="st0" d="M251.6,113.9l-72.5-99.8C173.4,6.3,161,0,151.4,0H17.5C7.9,0,0.1,7.8,0.1,17.5v221c0,9.7,7.8,17.5,17.4,17.5
	h133.9c9.6,0,22-6.3,27.7-14.1l72.5-99.7C257.3,134.4,257.3,121.7,251.6,113.9z M139.7,162.9c-19.3,0-34.9-15.6-34.9-34.9
	s15.6-34.9,34.9-34.9c19.3,0,34.9,15.6,34.9,34.9S159,162.9,139.7,162.9z"/>
</svg>
